<?xml version="1.0" encoding="utf-8"?>
<!-- Generator: Adobe Illustrator 24.2.3, SVG Export Plug-In . SVG Version: 6.00 Build 0)  -->
<svg version="1.1" id="Layer_1" xmlns="http://www.w3.org/2000/svg" xmlns:xlink="http://www.w3.org/1999/xlink" x="0px" y="0px"
	 viewBox="0 0 800 800" style="enable-background:new 0 0 800 800;" xml:space="preserve">
<style type="text/css">
	.st0{display:none;opacity:0.38;}
	.st1{display:inline;}
	.st2{fill:#2B2925;}
	.st3{fill:#FFFFFF;}
	.st4{fill:#6D6875;}
</style>
<g class="st0">
	<g class="st1">
		<g>
			<path class="st2" d="M715.8,255.2c-0.3,0-0.6,0-0.8-0.1c-9-3.2-24.9-20.5-45.1-42.4c-22.3-24.2-47.7-51.6-66.8-62.8
				c-41.9-24.4-93.6-29.6-129.6-29.6c-24.1,0-42.9,2.2-49.9,3.1l-1.1,0.1c-0.1,0-0.2,0-0.3,0c-0.4,0-0.7-0.1-1.1-0.2
				c-3.7-1.5-3.7-4.8-3.8-6.5c0-0.6,0-1.1-0.1-1.5c-0.1-0.5-0.1-1.1,0.1-1.6l3.2-10.1c0.1-0.2,0.1-0.4,0.2-0.6
				c14.2-25.3,36.8-41.8,58.7-56.6c5-3.4,10.3-6.6,15.4-9.7c14.9-8.9,28.9-17.4,39-31.4c1.7-2.3,3.6-2.8,5-2.8
				c1.9,0,3.7,0.9,5.2,1.7c38.1,20,68.6,42.1,93.3,67.6c27.8,28.7,47.6,60.9,60.5,98.5c2.1,6.1,4.4,12.2,6.6,18.1
				c6.8,18.3,13.9,37.2,16,57.4c0,0.3,0.2,0.8,0.4,1.3c0.6,1.6,1.3,3.7,0.1,5.7c-1.4,2.1-4.1,2.3-5.1,2.3
				C715.9,255.2,715.9,255.2,715.8,255.2z"/>
			<path class="st3" d="M539,5c1.3,0,2.7,0.7,4,1.4c70.3,36.9,126,87.2,152.6,164.8c8.5,24.7,19.7,48.5,22.5,74.9
				c0.2,2.4,3.5,6.2-2.3,6.5c-18.2-6.5-75.4-83.9-111.5-105c-41.9-24.5-93.1-29.9-130.9-29.9c-25.6,0-45.1,2.5-51.3,3.2l0,0
				c-3.3-1.2-2-4.1-2.5-6.4l0,0l3.4-10.4l0,0c13.7-24.4,35.4-40.6,57.9-55.8c19.1-12.9,41-22.1,55.1-41.6C536.9,5.5,537.9,5,539,5
				 M539,0c-1.9,0-4.7,0.7-7,3.8c-9.9,13.6-23.7,21.9-38.3,30.7c-5.1,3.1-10.5,6.3-15.6,9.7c-22.2,14.9-45.1,31.7-59.5,57.5
				c-0.2,0.4-0.4,0.8-0.5,1.2l-3.2,9.9c-0.4,0.9-0.4,2-0.2,3c0,0.1,0,0.6,0,0.9c0,1.9,0.1,6.8,5.3,8.8c0.6,0.3,1.3,0.4,2,0.4
				c0.2,0,0.4,0,0.6,0l1.1-0.1c7-0.8,25.7-3.1,49.6-3.1c35.7,0,87,5.1,128.3,29.2c18.8,11,44,38.3,66.3,62.4
				c22.7,24.6,37.1,39.8,46.1,43.1c0.5,0.2,1.1,0.3,1.7,0.3c0.1,0,0.2,0,0.3,0c3.3-0.2,5.6-1.4,7-3.5c2-3,0.8-6.2,0.2-7.9
				c-0.1-0.3-0.2-0.6-0.3-0.8c-2.1-20.5-9.2-39.5-16.1-57.9c-2.2-5.9-4.5-12-6.6-18c-13-38-33-70.5-61.1-99.5
				c-24.9-25.7-55.6-48-94-68.1C543.6,1.2,541.5,0,539,0L539,0z"/>
		</g>
		<g>
			<path class="st2" d="M68.3,255c-2.1-0.2-3.6-0.9-4.6-2.2c-1.4-1.9-0.9-4.3-0.5-5.9c0.1-0.3,0.1-0.5,0.2-0.8
				c10.8-55.5,30.3-103.5,57.9-142.6c29.4-41.7,69.2-75,118.2-98.9c2-1,3.7-1.6,5.5-1.6c2.4,0,4.4,1.2,6.2,3.5
				c9.7,12.9,23.5,21.3,36.8,29.4c2.3,1.4,4.7,2.9,7,4.3c18,11.2,36.7,23.9,52.1,40.4l0.6,0.7c5.5,5.9,18.4,19.6,18.3,40.1
				c0,2.3-1.6,3.9-3.9,3.9c-2,0-4.5-1.2-7.2-2.5c-1.3-0.6-2.7-1.3-3.6-1.6c-12.8-4.1-27.8-6.1-44.8-6.1
				c-49.9,0-104.8,17.8-124.8,34.4c-10.6,8.9-27.1,25.7-44.6,43.6c-27.5,28.1-56,57.2-68,61.7C68.8,254.9,68.5,255,68.3,255
				C68.4,255,68.3,255,68.3,255z"/>
			<path class="st3" d="M245,5.4c1.4,0,2.8,0.7,4.2,2.5c11.7,15.5,28.5,24.4,44.5,34.3c18.6,11.6,36.6,23.8,51.6,40
				c4.9,5.3,18.3,18.7,18.3,39.1c0,1-0.5,1.4-1.4,1.4c-2.4,0-7.2-3-10-3.9c-13.7-4.4-29.4-6.2-45.6-6.2c-50.1,0-105.7,17.8-126.4,35
				c-27.3,22.7-93,97.8-111.9,104.8c-4.4-0.4-3.1-3.5-2.7-5.9C86.5,139.3,139.9,55.9,240.4,6.7C242.2,6,243.7,5.4,245,5.4 M245,0.4
				L245,0.4c-2.4,0-4.6,0.9-6.6,1.9c-25,12.2-47.9,27-67.8,43.8c-19.4,16.4-36.7,35.2-51.4,55.9c-27.8,39.4-47.5,87.7-58.4,143.6
				c0,0.2-0.1,0.4-0.1,0.7c-0.4,1.9-1.2,5.1,0.9,8c1.4,1.9,3.5,3,6.4,3.2c0.1,0,0.3,0,0.4,0c0.6,0,1.2-0.1,1.7-0.3
				c11.6-4.3,34.8-27.5,68.9-62.3c17.4-17.8,33.9-34.7,44.5-43.4c19.6-16.3,73.8-33.8,123.2-33.8c16.8,0,31.6,2,44.1,6
				c0.7,0.2,2.1,0.9,3.2,1.4c2.9,1.4,5.7,2.7,8.3,2.7c3.7,0,6.4-2.7,6.4-6.4c0-21.6-13.3-35.8-19-41.9l-0.6-0.7
				c-15.7-16.7-34.7-29.4-52.8-40.7c-2.3-1.5-4.7-2.9-7-4.3c-13.7-8.4-26.7-16.3-36.1-28.8C250.9,2,248.2,0.4,245,0.4L245,0.4z"/>
		</g>
		<g>
			<path class="st2" d="M625.7,535.8c-0.3,0-0.6,0-0.9-0.2c-1.1-0.4-1.8-1.5-1.6-2.6c3.7-31.8,2.4-60.5-4.1-87.7
				c-5-12.1-39.9-59.2-56.7-81.9c-10.7-14.5-11.5-15.6-11.7-16.3c-7.6-15.5,0.3-27.4,8-38.9l0.2-0.2c0.8-1.5,1.6-3,2.4-4.4
				c5.8-10.7,12.4-22.9,14.6-58.5c0.7-21-24.3-64.7-35-83.3c-3.1-5.5-4.5-7.9-5-9.1c-0.3-0.9-0.2-1.9,0.5-2.6
				c0.5-0.5,1.2-0.8,1.9-0.8c0.2,0,0.4,0,0.6,0.1c37.5,9.7,82.9,50.2,104.7,69.7c2.9,2.6,5.4,4.8,7.4,6.5
				c22.7,19.6,43,33.6,68.7,38.1c0.5,0.1,1,0.3,1.3,0.7c0.9,0.8,1.1,1,0.8,15.8c-0.1,7.5-0.5,19.4-1.4,33.3
				c-1.6,23.6-5,56-12.4,76.1h-0.1c-2,5.8-15.8,38.3-15.9,38.6c-11.5,26.8-19.5,43.2-23.9,48.8l0,0c-0.5,0.9-1.6,2.4-3.7,5.5
				c-9.5,13.6-34.6,49.8-36.3,52.4C627.3,535.4,626.5,535.8,625.7,535.8z"/>
			<path class="st3" d="M538.1,151.6c41.9,10.8,94.1,61.1,111.1,75.7c20.6,17.8,42.2,33.8,69.9,38.7c0.5,0.5,0.4,84.5-13.6,122.6
				c0,0-29.4,73.6-39.5,86.7c0,0-38.1,54.8-40.2,58c3.5-30,2.8-59.5-4.2-88.7l0,0c-6.5-16.4-67.9-96.6-68.5-98.4l0,0
				c-7.3-14.5,0.4-25.8,8-37.1l0,0c6.5-12.8,14.7-23,17.3-64.1C579.2,218.1,540.1,156.8,538.1,151.6 M634.9,471.4L634.9,471.4
				L634.9,471.4L634.9,471.4 M538.1,146.6c-1.4,0-2.8,0.6-3.7,1.7c-1.2,1.4-1.6,3.4-0.9,5.1c0.5,1.3,1.9,3.7,5.1,9.4
				c9.7,16.9,35.3,61.6,34.7,82c-2.2,35-8.3,46.4-14.3,57.4c-0.8,1.4-1.5,2.9-2.3,4.4l-0.1,0.1c-7.7,11.5-16.4,24.6-8.2,41.3
				c0.4,1,1.2,2.2,12.1,16.9c16.7,22.5,51.2,69.1,56.3,81.2c6.4,26.9,7.7,55.2,4,86.7c-0.3,2.3,1.1,4.5,3.3,5.3
				c0.6,0.2,1.1,0.3,1.7,0.3c1.6,0,3.2-0.8,4.2-2.3c1.7-2.6,27.9-40.3,36.5-52.6l2.7-3.9c0.3-0.5,0.6-0.9,0.8-1.2l0,0
				c4.4-5.8,12.6-22.3,24.2-49.3c4.5-10.4,8.6-20.3,11.2-26.8c3-7.4,4.3-10.4,4.8-11.9l0,0c7.5-20.4,11-53,12.5-76.8
				c0.9-14,1.3-25.9,1.4-33.4c0.1-3.9,0.1-7.5,0.1-10.3c0-4.6,0-5.8-1.6-7.4c-0.7-0.7-1.6-1.2-2.6-1.4
				c-25.1-4.4-45.1-18.2-67.5-37.5c-2-1.7-4.5-3.9-7.3-6.5c-21.9-19.6-67.6-60.4-105.7-70.3C538.9,146.7,538.5,146.6,538.1,146.6
				L538.1,146.6z"/>
		</g>
		<g>
			<path class="st2" d="M392.1,95.4c-3.2,0-5.2-2.9-6.4-5.1c-9.8-17.2-35.8-39.7-55.3-52.1c-12.8-8.1-32.4-18.1-46.7-25.4
				c-9-4.5-16-8.1-18.9-10c-2.5-1.6-3.6-3.4-3.5-5.4c0.2-3,3.3-4.4,5-5.1l0.2-0.1c42.8-19.3,84.2-28.7,126.6-28.7
				c10.9,0,22.1,0.7,33,2c33.7,4,79,20.3,94.7,27.7c2.4,1.1,5.5,3,5.5,6c0,3.3-3.5,5.1-6.4,6.5c-0.3,0.2-0.6,0.3-0.9,0.5
				c-7.7,4-16.4,8.3-24.7,12.4c-11.4,5.6-23.2,11.5-33.5,17c-27.6,14.9-47.9,32.8-62.1,54.8C397.3,92.6,395.1,95.4,392.1,95.4z"/>
			<path class="st3" d="M393.1-34c10.8,0,21.8,0.6,32.8,1.9c32.9,3.9,77.8,19.9,93.9,27.5c8.4,4,1.8,6.6-1.9,8.5
				c-18.1,9.4-40.4,19.8-58.4,29.5c-25.3,13.6-47.3,31.2-63,55.7c-1.7,2.6-3.1,3.8-4.5,3.8s-2.8-1.3-4.3-3.9
				c-9.6-16.9-35.4-39.8-56.2-53c-20.8-13.2-58.3-30.6-65.6-35.3c-5.2-3.4-0.4-5.4,1.4-6.2C307.8-23.7,349.6-34,393.1-34 M393.1-39
				c-42.8,0-84.6,9.5-127.8,29l-0.2,0.1c-1.8,0.8-6.1,2.7-6.5,7.2c-0.2,2,0.5,5,4.6,7.6c0,0,0,0,0.1,0c3,1.9,9.7,5.3,19.1,10.1
				c14.3,7.2,33.8,17.2,46.5,25.2c19.5,12.4,45.3,34.9,54.5,51.2c0.9,1.6,3.6,6.4,8.6,6.4c4.3,0,7-3.5,8.7-6.1
				c13.9-21.7,33.9-39.3,61.2-54c10.3-5.5,22.1-11.4,33.5-17c8.4-4.1,17-8.4,24.8-12.4c0.3-0.2,0.6-0.3,0.9-0.5
				c3.1-1.6,7.8-3.9,7.8-8.8c-0.1-4.9-5.3-7.4-7-8.2c-15.8-7.5-61.5-23.9-95.5-28C415.4-38.4,404.2-39,393.1-39L393.1-39z"/>
		</g>
		<g>
			<path class="st2" d="M350.5,267.8c-4.6,0-11.9-8.7-12.5-12.9c-0.9-5.4-3-7.2-8.2-7.2c-0.5,0-1,0-1.5,0c-3.5,0.2-7.1,0.3-10.7,0.3
				c-5.3,0-10.8-0.2-16.3-0.7c-8.4-0.7-22.1-12-35.4-23.6c-3-2.6-6-5.2-6.9-5.7c-1.3-0.4-2-0.4-3.4-0.5c-1,0-2.2,0-3.9-0.2
				c-1.1-0.1-2-0.9-2.2-2s0.3-2.1,1.2-2.7c11.6-6.7,23.1-10,35.2-10c9.3,0,18.8,1.9,29,5.9c1.8,0.7,3.8,1.6,6.2,2.8
				c6.5,3,15.3,7.2,23.9,7.8c0.3,0,0.6,0,1,0c2.7,0,6-0.5,8.6-0.9c1.5-0.2,2.8-0.4,3.8-0.5c0.1,0,0.1,0,0.2,0c1.2,0,2.2,0.8,2.5,2
				c0,0,0.8,3.9,1.5,7.3c0.9,4.3-1.4,9.1-3.2,13c-0.4,0.8-0.7,1.5-1,2.2v0.1c-1.9,3.9-2.2,8.1-2.6,12.6c-0.3,3.2-0.5,6.5-1.4,9.8
				C353.6,266.7,352.2,267.8,350.5,267.8z"/>
			<path class="st3" d="M285.7,205.4c9.4,0,18.7,2.1,28.1,5.8c6.7,2.6,18.7,9.9,30.8,10.7c0.4,0,0.8,0,1.2,0c4.5,0,9.9-1.2,12.6-1.4
				c0,0,0.8,3.9,1.5,7.3c0.9,4.4-2.6,10.1-4.1,13.6c-3.5,7.2-2.1,15.3-4.1,22.9c-0.2,0.7-0.6,1-1.2,1c-2.9,0-9.5-7.2-10.1-10.8
				c-1.1-6.9-4.5-9.3-10.7-9.3c-0.5,0-1.1,0-1.7,0.1c-3.5,0.2-7,0.3-10.6,0.3c-5.4,0-10.8-0.2-16.1-0.7c-11.7-1-38.7-28.2-41.6-29.1
				s-3.8-0.4-7.9-0.8C263.4,208.3,274.6,205.4,285.7,205.4 M285.7,200.4c-12.5,0-24.4,3.4-36.4,10.3c-1.9,1.1-2.8,3.3-2.4,5.4
				c0.5,2.1,2.2,3.7,4.4,3.9c1.8,0.2,3.1,0.2,4.1,0.2c1.1,0,1.6,0,2.4,0.2c1,0.7,3.8,3.2,6.3,5.3c14.2,12.3,27.7,23.4,36.8,24.2
				c5.6,0.5,11.2,0.7,16.6,0.7c3.7,0,7.3-0.1,10.9-0.3c0.5,0,1,0,1.4,0c3.8,0,5.1,0.7,5.8,5.1c0.9,5.2,8.9,14.9,15,14.9
				c2.9,0,5.3-1.9,6-4.7c0.9-3.5,1.2-6.9,1.4-10.2c0.3-4.2,0.6-8.3,2.3-11.7c0-0.1,0.1-0.1,0.1-0.2c0.3-0.6,0.6-1.3,1-2.1
				c1.9-4,4.5-9.4,3.4-14.5c-0.7-3.4-1.5-7.2-1.5-7.3c-0.5-2.4-2.5-4-4.9-4c-0.1,0-0.3,0-0.4,0c-1.1,0.1-2.4,0.3-4,0.5
				c-2.5,0.4-5.7,0.9-8.2,0.9c-0.3,0-0.6,0-0.9,0c-8.1-0.6-16.3-4.5-22.9-7.6c-2.4-1.1-4.5-2.1-6.3-2.8
				C305.1,202.4,295.3,200.4,285.7,200.4L285.7,200.4z"/>
		</g>
		<g>
			<path class="st2" d="M433.7,267.8c-1.8,0-3.2-1.1-3.6-2.9c-0.9-3.3-1.1-6.6-1.4-9.8c-0.4-4.5-0.7-8.7-2.6-12.6v-0.1
				c-0.3-0.7-0.6-1.4-1-2.2c-1.8-3.8-4.1-8.6-3.2-13c0.7-3.4,1.5-7.3,1.5-7.3c0.2-1.2,1.3-2,2.5-2c0.1,0,0.1,0,0.2,0
				c1,0.1,2.3,0.3,3.8,0.5c2.6,0.4,5.9,0.9,8.6,0.9c0.4,0,0.7,0,1,0c8.5-0.6,17.4-4.8,23.8-7.8c2.4-1.1,4.4-2.1,6.2-2.8
				c10.3-4,19.7-5.9,29-5.9c12.1,0,23.6,3.3,35.2,10c0.9,0.5,1.4,1.6,1.2,2.7s-1.1,1.9-2.2,2c-1.7,0.2-2.9,0.2-3.9,0.2
				c-1.4,0-2.1,0-3.4,0.5c-0.9,0.5-3.9,3.1-6.9,5.7c-13.3,11.5-27,22.9-35.4,23.6c-5.6,0.5-11.1,0.7-16.3,0.7
				c-3.6,0-7.2-0.1-10.7-0.3c-0.5,0-1,0-1.5,0c-5.3,0-7.4,1.8-8.2,7.2C445.5,259.1,438.3,267.8,433.7,267.8L433.7,267.8z"/>
			<path class="st3" d="M498.4,205.4c11.1,0,22.3,2.9,33.9,9.6c-4.1,0.4-5.1-0.1-7.9,0.8c-2.8,0.9-29.9,28.2-41.6,29.1
				c-5.4,0.4-10.8,0.7-16.1,0.7c-3.5,0-7-0.1-10.6-0.3c-0.6,0-1.1-0.1-1.7-0.1c-6.2,0-9.6,2.4-10.7,9.3c-0.6,3.6-7.2,10.8-10.1,10.8
				c-0.6,0-1-0.3-1.2-1c-2-7.5-0.6-15.6-4.1-22.9c-1.5-3.5-5-9.3-4.1-13.6c0.7-3.4,1.5-7.3,1.5-7.3c2.7,0.2,8.2,1.4,12.6,1.4
				c0.4,0,0.8,0,1.2,0c12.1-0.8,24.1-8.1,30.8-10.7C479.7,207.5,489,205.4,498.4,205.4 M498.4,200.4c-9.6,0-19.4,2-29.9,6.1
				c-1.9,0.7-3.9,1.7-6.3,2.8c-6.6,3.1-14.9,7-22.9,7.6c-0.3,0-0.6,0-0.9,0c-2.5,0-5.7-0.5-8.2-0.9c-1.5-0.2-2.9-0.4-4-0.5
				c-0.1,0-0.3,0-0.4,0c-2.4,0-4.4,1.7-4.9,4c0,0-0.8,3.9-1.5,7.3c-1.1,5.2,1.5,10.6,3.4,14.5c0.4,0.8,0.7,1.5,1,2.1
				c0,0.1,0.1,0.1,0.1,0.2c1.7,3.4,2,7.5,2.3,11.7c0.3,3.3,0.5,6.8,1.4,10.2c0.8,2.9,3.1,4.7,6,4.7c6.1,0,14.2-9.7,15-15
				c0.7-4.4,1.9-5.1,5.8-5.1c0.4,0,0.9,0,1.4,0c3.5,0.2,7.2,0.3,10.9,0.3c5.4,0,10.9-0.2,16.6-0.7c9.2-0.7,22.7-11.9,36.8-24.2
				c2.5-2.1,5.3-4.6,6.3-5.3c0.8-0.2,1.2-0.2,2.4-0.2c1,0,2.3,0,4.1-0.2c2.2-0.2,3.9-1.8,4.4-3.9s-0.5-4.3-2.4-5.4
				C522.9,203.8,511,200.4,498.4,200.4L498.4,200.4z"/>
		</g>
		<g>
			<path class="st2" d="M290.2,896.8c-0.5,0-0.9-0.1-1.3-0.3s-0.8-0.4-1.1-0.7c-1-0.9-1.2-2.5-0.3-3.5c0.5-0.6,1.2-0.9,1.9-0.9
				c0.5,0,1,0.1,1.4,0.4c1.2,0.2,2.1,1.3,2,2.6s-1.2,2.4-2.5,2.4H290.2z M424.9,840.4c-6.1,0-6.2-5.5-6.3-8.5c0-2.3,0.1-4.9,1.9-6.7
				c1.1-1.1,2.7-1.7,4.7-1.7c0.5,0,1,0,1.6,0.1c5.7,0.7,11.5,1.7,17.2,2.6c5.5,0.9,11.2,1.8,16.7,2.5c1.2,0.2,2.1,1.2,2.2,2.4
				c0.1,1.2-0.8,2.3-2,2.5c-0.2,0-22.6,4.9-33.8,6.6C426.3,840.4,425.5,840.4,424.9,840.4L424.9,840.4z M357.8,840.4
				c-0.7,0-1.4-0.1-2.2-0.2c-11.2-1.7-33.6-6.5-33.8-6.6c-1.2-0.3-2-1.3-2-2.5c0.1-1.2,1-2.2,2.2-2.4c5.6-0.7,11.2-1.6,16.7-2.5
				c5.6-0.9,11.4-1.9,17.2-2.6c0.6-0.1,1.1-0.1,1.6-0.1c2,0,3.6,0.6,4.7,1.7c1.7,1.8,1.9,4.4,1.9,6.7
				C364.1,834.9,364,840.4,357.8,840.4L357.8,840.4z M420.8,813c-3.6,0-5.3-3.5-6.4-5.7c-1.1-2.2-2-4.8-1-7.2c0.7-1.8,2.4-3,4.9-3.8
				c5.5-1.8,11.2-3.3,16.6-4.9c5.4-1.5,10.9-3.1,16.3-4.8c0.3-0.1,0.5-0.1,0.8-0.1c0.9,0,1.8,0.5,2.2,1.4c0.6,1.1,0.3,2.4-0.7,3.1
				c-0.2,0.1-18.5,14-27.9,20.2C423.7,812.5,422.2,813,420.8,813L420.8,813z M362,813c-1.4,0-2.9-0.6-4.8-1.8
				c-9.4-6.2-27.7-20.1-27.9-20.2c-1-0.7-1.3-2.1-0.7-3.1c0.4-0.8,1.3-1.4,2.2-1.4c0.3,0,0.5,0,0.8,0.1c5.4,1.7,10.9,3.3,16.3,4.8
				c5.5,1.5,11.1,3.1,16.6,4.9c2.5,0.8,4.2,2.1,4.9,3.8c1,2.4,0.1,5-1,7.2C367.2,809.6,365.6,813,362,813L362,813z M412.1,791
				c-2.2,0-4.1-1.4-6.3-3.7c-1.6-1.6-3.5-3.8-3.3-6.5c0.1-1.9,1.3-3.6,3.4-5.2c4.6-3.4,9.5-6.7,14.1-9.9s9.4-6.4,13.9-9.8
				c0.4-0.3,1-0.5,1.5-0.5c0.6,0,1.3,0.2,1.7,0.7c0.9,0.8,1,2.2,0.3,3.2c-0.1,0.2-12.9,19.1-19.9,28.1
				C416.4,789.1,414.6,791,412.1,791L412.1,791z M370.7,791c-2.5,0-4.3-1.9-5.6-3.5c-7-9-19.8-27.9-19.9-28.1
				c-0.7-1-0.5-2.4,0.3-3.2c0.5-0.5,1.1-0.7,1.7-0.7c0.5,0,1,0.2,1.5,0.5c4.5,3.3,9.3,6.6,13.9,9.8c4.7,3.2,9.5,6.5,14.1,9.9
				c2.2,1.6,3.3,3.3,3.4,5.2c0.2,2.7-1.6,4.9-3.3,6.5C375.1,789.2,373.1,791,370.7,791L370.7,791z M391.3,774.2
				c-2.4,0-5.2-0.3-6.9-2.3c-1.2-1.4-1.7-3.4-1.3-6.1c0.8-5.7,1.9-11.4,2.9-17c1-5.5,2.1-11.2,2.9-16.8c0.2-1.2,1.2-2.1,2.4-2.1
				c0,0,0,0,0.1,0c1.2,0,2.2,0.8,2.5,2c0,0.2,4.4,22.7,5.9,33.9c0.3,1.9,0.3,4.4-1.2,6.2C396.8,774,394,774.2,391.3,774.2z
				 M318.4,721.2c-1.4,0-2.5-1.1-2.5-2.5s1.1-2.5,2.5-2.5s2.5,1.1,2.5,2.5S319.8,721.2,318.4,721.2L318.4,721.2z"/>
			<path class="st3" d="M318.4,718.6L318.4,718.6C318.4,718.7,318.4,718.7,318.4,718.6L318.4,718.6L318.4,718.6 M391.4,732.4
				c0,0,4.4,22.5,5.9,33.8c0.6,4.7-1.1,5.5-6,5.5c-4.1,0-6.4-1-5.7-5.5C387.2,754.9,389.7,743.7,391.4,732.4 M435.5,758L435.5,758
				 M435.5,758c-0.4,0.6-13,19.1-19.8,28c-1.4,1.8-2.5,2.5-3.6,2.5c-1.3,0-2.7-1.1-4.5-2.9c-2.9-2.9-3.8-5.2-0.1-7.9
				C416.6,770.9,426.3,764.8,435.5,758 M347.2,758c9.2,6.8,18.9,12.9,28.1,19.7c3.7,2.7,2.8,5-0.1,7.9c-1.9,1.9-3.2,2.9-4.5,2.9
				c-1.1,0-2.2-0.8-3.6-2.5C360.2,777.1,347.6,758.6,347.2,758 M452,789L452,789 M452,789c0,0-18.3,13.8-27.8,20.1
				c-1.4,0.9-2.5,1.4-3.4,1.4c-1.7,0-2.8-1.5-4.2-4.3c-1.8-3.7-1.9-6.2,2.4-7.5C429.9,795.2,441.1,792.4,452,789 M330.8,789
				c10.8,3.4,22.1,6.2,32.9,9.6c4.3,1.4,4.2,3.8,2.4,7.5c-1.4,2.8-2.5,4.3-4.2,4.3c-0.9,0-2-0.5-3.4-1.4
				C349.1,802.8,330.8,789,330.8,789 M425.2,826c0.4,0,0.8,0,1.3,0.1c11.3,1.4,22.6,3.7,33.9,5.2c0,0-22.4,4.8-33.7,6.5
				c-0.7,0.1-1.3,0.2-1.8,0.2c-3.1,0-3.7-1.8-3.8-6C421,828.2,421.8,826,425.2,826 M357.6,826c3.4,0,4.1,2.2,4.1,5.9
				c-0.1,4.2-0.7,6-3.8,6c-0.5,0-1.1-0.1-1.8-0.2c-11.3-1.7-33.7-6.5-33.7-6.5c11.3-1.5,22.6-3.7,33.9-5.2
				C356.7,826,357.2,826,357.6,826 M289.4,893.9c0.1,0.1,0.3,0.2,0.4,0.3C289.7,894.1,289.5,894,289.4,893.9 M289.8,894.2
				c0.2,0.1,0.3,0.1,0.5,0.1C290.2,894.3,290,894.2,289.8,894.2 M318.4,713.6L318.4,713.6c-2.8,0-5,2.2-5,5s2.2,5,5,5s5-2.2,5-5
				S321.2,713.6,318.4,713.6L318.4,713.6z M391.4,727.4L391.4,727.4c-2.5,0.1-4.6,1.9-4.9,4.3c-0.8,5.5-1.9,11.2-2.9,16.7
				c-1,5.6-2.1,11.4-2.9,17.1c-0.5,3.4,0.1,6.1,1.8,8.1c2.4,2.8,6,3.1,8.8,3.1c3.2,0,6.7-0.2,9.1-3c2.3-2.6,2.1-5.9,1.8-8.2
				c-1.5-11.3-5.7-33.2-5.9-34.1C395.8,729.1,393.8,727.4,391.4,727.4L391.4,727.4z M435.5,753c-0.1,0-0.2,0-0.2,0l0,0l0,0
				c-1,0.1-2,0.4-2.8,1c-4.5,3.3-9.2,6.6-13.8,9.7c-4.7,3.2-9.5,6.5-14.2,10c-2.7,2-4.2,4.4-4.4,7c-0.3,3.7,2,6.4,4,8.4
				c2.1,2.1,4.6,4.4,8.1,4.4c3.7,0,6.1-2.6,7.6-4.5c6.7-8.7,18.8-26.5,19.9-28.1c0.6-0.8,0.9-1.8,0.9-2.9
				C440.5,755.2,438.3,753,435.5,753L435.5,753L435.5,753z M435.5,763L435.5,763L435.5,763L435.5,763z M347.3,753
				c-1.3,0-2.5,0.5-3.5,1.4c-1.8,1.7-2,4.4-0.7,6.4c0.1,0.2,13,19.1,20,28.2c1.5,1.9,3.9,4.5,7.6,4.5c3.4,0,6-2.3,8.1-4.4
				c2-2,4.3-4.8,4-8.4c-0.2-2.6-1.7-5-4.4-7c-4.7-3.4-9.5-6.8-14.2-10c-4.6-3.2-9.4-6.4-13.9-9.7C349.3,753.3,348.3,753,347.3,753
				L347.3,753z M452,784c-0.2,0-0.4,0-0.6,0c-0.3,0-0.7,0.1-1,0.2c-5.3,1.7-10.8,3.2-16.1,4.7c-5.5,1.5-11.2,3.1-16.7,4.9
				c-3.2,1-5.4,2.8-6.5,5.2c-1.4,3.4-0.2,6.7,1.1,9.3c1.2,2.5,3.5,7.1,8.6,7.1c2.5,0,4.7-1.3,6.2-2.2c9.3-6.1,26.5-19.1,27.9-20.2
				c1.2-0.9,2.1-2.4,2.1-4c0-2.6-2-4.8-4.6-5C452.2,784,452.1,784,452,784L452,784z M452,794L452,794L452,794L452,794z M330.8,784
				c-1.8,0-3.6,1-4.4,2.7c-1.1,2.2-0.5,4.8,1.4,6.3c0.8,0.6,18.5,14,28,20.3c1.4,1,3.6,2.2,6.2,2.2c5.1,0,7.4-4.6,8.6-7.1
				c1.2-2.5,2.5-5.9,1-9.3c-1-2.4-3.2-4.2-6.4-5.2c-5.5-1.8-11.2-3.4-16.7-4.9c-5.4-1.5-10.9-3.1-16.2-4.7
				C331.8,784.1,331.3,784,330.8,784L330.8,784z M425.2,821c-2.7,0-4.9,0.8-6.5,2.5c-2.4,2.5-2.7,5.8-2.6,8.5
				c0.1,2.7,0.2,10.9,8.8,10.9c0.8,0,1.6-0.1,2.6-0.2c11.3-1.7,33.1-6.4,34-6.6c2.4-0.5,4-2.7,3.9-5.1s-1.9-4.4-4.4-4.7
				c-5.5-0.7-11.2-1.6-16.7-2.5c-5.6-0.9-11.5-1.9-17.3-2.6C426.4,821,425.8,821,425.2,821L425.2,821z M357.6,821
				c-0.6,0-1.3,0-1.9,0.1c-5.8,0.7-11.6,1.7-17.3,2.6c-5.5,0.9-11.1,1.8-16.7,2.5c-2.4,0.3-4.3,2.3-4.4,4.7s1.6,4.6,3.9,5.1
				c0.9,0.2,22.7,4.9,34,6.6c0.9,0.1,1.8,0.2,2.6,0.2c8.6,0,8.7-8.2,8.8-10.9c0.1-2.7-0.2-6-2.6-8.5
				C362.4,821.8,360.3,821,357.6,821L357.6,821z M289.4,888.9c-1.4,0-2.8,0.6-3.8,1.7c-1.8,2.1-1.6,5.3,0.5,7.1
				c0.5,0.5,1.1,0.8,1.8,1.1c0.7,0.3,1.4,0.4,2.1,0.5c0.1,0,0.2,0,0.3,0c2.6,0,4.8-2,5-4.7c0.1-2.4-1.4-4.4-3.6-5.1
				C291,889.1,290.2,888.9,289.4,888.9L289.4,888.9z"/>
		</g>
		<g>
			<g>
				<path class="st2" d="M290.3,894.8c-0.2,0-0.5-0.1-0.7-0.1c-0.2-0.1-0.4-0.2-0.6-0.4s-0.2-0.5-0.1-0.7c0.1-0.1,0.2-0.2,0.4-0.2
					c0.1,0,0.2,0,0.3,0.1c0.1,0.1,0.2,0.1,0.3,0.2c0.1,0,0.2,0.1,0.3,0.1c0.3,0,0.5,0.3,0.5,0.5
					C290.8,894.6,290.6,894.8,290.3,894.8L290.3,894.8z M424.9,838.4c-3.9,0-4.2-2.8-4.3-6.5c-0.1-2.7,0.3-4.3,1.3-5.3
					c0.7-0.8,1.8-1.1,3.3-1.1c0.4,0,0.9,0,1.4,0.1c5.7,0.7,11.5,1.7,17.1,2.6c5.5,0.9,11.2,1.8,16.8,2.6c0.2,0,0.4,0.2,0.4,0.5
					c0,0.2-0.2,0.5-0.4,0.5s-22.6,4.9-33.7,6.5C426.1,838.4,425.4,838.4,424.9,838.4L424.9,838.4z M357.8,838.4
					c-0.5,0-1.2-0.1-1.9-0.2c-11.1-1.7-33.5-6.5-33.7-6.5c-0.2-0.1-0.4-0.3-0.4-0.5s0.2-0.4,0.4-0.5c5.6-0.7,11.3-1.7,16.8-2.6
					c5.6-0.9,11.4-1.9,17.1-2.6c0.5-0.1,0.9-0.1,1.4-0.1c1.4,0,2.5,0.4,3.3,1.1c1,1,1.4,2.6,1.3,5.3
					C362.1,835.6,361.7,838.4,357.8,838.4L357.8,838.4z M420.8,811c-2,0-3.2-1.7-4.6-4.6c-1.2-2.5-1.5-4.2-1-5.5
					c0.5-1.2,1.7-2.1,3.7-2.7c5.5-1.7,11.1-3.3,16.6-4.9c5.4-1.5,11-3.1,16.4-4.8c0,0,0.1,0,0.2,0c0.2,0,0.4,0.1,0.4,0.3
					c0.1,0.2,0.1,0.5-0.1,0.6c-0.2,0.1-18.4,13.9-27.8,20.1C423,810.5,421.8,811,420.8,811L420.8,811z M362,811
					c-1,0-2.2-0.5-3.7-1.5c-9.4-6.2-27.6-20-27.8-20.1c-0.2-0.1-0.3-0.4-0.1-0.6c0.1-0.2,0.3-0.3,0.4-0.3s0.1,0,0.2,0
					c5.4,1.7,11,3.3,16.4,4.8c5.5,1.5,11.1,3.1,16.6,4.9c2,0.6,3.2,1.5,3.7,2.7c0.6,1.3,0.3,3-1,5.5C365.1,809.3,363.9,811,362,811
					L362,811z M412.1,789c-1.5,0-3-1.2-4.9-3.1c-2-2-2.8-3.5-2.7-4.9c0.1-1.3,1-2.5,2.6-3.7c4.6-3.4,9.4-6.7,14.1-9.9
					c4.6-3.2,9.4-6.5,14-9.8c0.1-0.1,0.2-0.1,0.3-0.1s0.3,0,0.3,0.1c0.2,0.2,0.2,0.4,0.1,0.6c-0.1,0.2-12.9,19-19.8,28
					C414.6,788.2,413.4,789,412.1,789L412.1,789z M370.7,789c-1.3,0-2.5-0.8-4-2.7c-6.9-9-19.7-27.8-19.8-28
					c-0.1-0.2-0.1-0.5,0.1-0.6c0.1-0.1,0.2-0.1,0.3-0.1c0.1,0,0.2,0,0.3,0.1c4.6,3.4,9.4,6.6,14,9.8c4.7,3.2,9.5,6.5,14.1,9.9
					c1.7,1.2,2.5,2.4,2.6,3.7c0.1,1.5-0.7,2.9-2.7,4.9C373.7,787.9,372.2,789,370.7,789L370.7,789z M391.3,772.2
					c-2.8,0-4.4-0.5-5.4-1.6c-0.8-1-1.1-2.4-0.8-4.5c0.8-5.7,1.9-11.4,2.9-16.9s2.1-11.2,2.9-16.9c0-0.2,0.2-0.4,0.5-0.4l0,0
					c0.2,0,0.4,0.2,0.5,0.4c0,0.2,4.4,22.7,5.9,33.8c0.3,2.3,0.1,3.7-0.7,4.6C395.9,772,394,772.2,391.3,772.2z M318.4,719.2
					c-0.3,0-0.5-0.2-0.5-0.5s0.2-0.5,0.5-0.5s0.5,0.2,0.5,0.5S318.7,719.2,318.4,719.2L318.4,719.2z"/>
				<path class="st3" d="M318.4,718.6L318.4,718.6C318.4,718.7,318.4,718.7,318.4,718.6L318.4,718.6L318.4,718.6 M391.4,732.4
					c0,0,4.4,22.5,5.9,33.8c0.6,4.7-1.1,5.5-6,5.5c-4.1,0-6.4-1-5.7-5.5C387.2,754.9,389.7,743.7,391.4,732.4 M435.5,758L435.5,758
					 M435.5,758c-0.4,0.6-13,19.1-19.8,28c-1.4,1.8-2.5,2.5-3.6,2.5c-1.3,0-2.7-1.1-4.5-2.9c-2.9-2.9-3.8-5.2-0.1-7.9
					C416.6,770.9,426.3,764.8,435.5,758 M347.2,758c9.2,6.8,18.9,12.9,28.1,19.7c3.7,2.7,2.8,5-0.1,7.9c-1.9,1.9-3.2,2.9-4.5,2.9
					c-1.1,0-2.2-0.8-3.6-2.5C360.2,777.1,347.6,758.6,347.2,758 M452,789L452,789 M452,789c0,0-18.3,13.8-27.8,20.1
					c-1.4,0.9-2.5,1.4-3.4,1.4c-1.7,0-2.8-1.5-4.2-4.3c-1.8-3.7-1.9-6.2,2.4-7.5C429.9,795.2,441.1,792.4,452,789 M330.8,789
					c10.8,3.4,22.1,6.2,32.9,9.6c4.3,1.4,4.2,3.8,2.4,7.5c-1.4,2.8-2.5,4.3-4.2,4.3c-0.9,0-2-0.5-3.4-1.4
					C349.1,802.8,330.8,789,330.8,789 M425.2,826c0.4,0,0.8,0,1.3,0.1c11.3,1.4,22.6,3.7,33.9,5.2c0,0-22.4,4.8-33.7,6.5
					c-0.7,0.1-1.3,0.2-1.8,0.2c-3.1,0-3.7-1.8-3.8-6C421,828.2,421.8,826,425.2,826 M357.6,826c3.4,0,4.1,2.2,4.1,5.9
					c-0.1,4.2-0.7,6-3.8,6c-0.5,0-1.1-0.1-1.8-0.2c-11.3-1.7-33.7-6.5-33.7-6.5c11.3-1.5,22.6-3.7,33.9-5.2
					C356.7,826,357.2,826,357.6,826 M289.4,893.9c0.1,0.1,0.3,0.2,0.4,0.3C289.7,894.1,289.5,894,289.4,893.9 M289.8,894.2
					c0.2,0.1,0.3,0.1,0.5,0.1C290.2,894.3,290,894.2,289.8,894.2 M318.4,717.6L318.4,717.6c-0.6,0-1,0.4-1,1s0.4,1,1,1s1-0.4,1-1
					S318.9,717.6,318.4,717.6L318.4,717.6z M391.4,731.4L391.4,731.4c-0.5,0-0.9,0.4-1,0.9c-0.8,5.6-1.9,11.3-2.9,16.8
					c-1,5.6-2.1,11.3-2.9,17c-0.3,2.2,0,3.8,0.9,4.9c1.3,1.5,3.7,1.8,5.8,1.8c2.9,0,4.9-0.3,6.1-1.6c0.9-1,1.2-2.6,0.9-5
					c-1.5-11.2-5.8-33.6-5.9-33.9C392.3,731.7,391.9,731.4,391.4,731.4L391.4,731.4z M435.5,757L435.5,757
					C435.4,757,435.4,757,435.5,757C435.4,757,435.4,757,435.5,757c-0.3,0-0.4,0.1-0.6,0.2c-4.6,3.4-9.3,6.6-14,9.8
					s-9.5,6.5-14.1,9.9c-1.8,1.3-2.7,2.7-2.8,4.1c-0.2,2,1.3,3.8,2.8,5.3c2,2,3.5,3.2,5.2,3.2c1.5,0,2.8-0.9,4.4-2.9
					c6.8-8.8,19.1-27,19.8-28c0.1-0.2,0.2-0.4,0.2-0.6C436.5,757.4,436,757,435.5,757L435.5,757L435.5,757L435.5,757z M435.5,759
					L435.5,759L435.5,759L435.5,759z M347.3,757c-0.3,0-0.5,0.1-0.7,0.3c-0.4,0.3-0.4,0.9-0.1,1.3c0.1,0.2,12.9,19,19.8,28
					c1.1,1.4,2.5,2.9,4.4,2.9c1.7,0,3.3-1.2,5.2-3.2c1.5-1.5,3-3.3,2.8-5.3c-0.1-1.4-1-2.8-2.8-4.1c-4.6-3.4-9.4-6.7-14.1-9.9
					c-4.6-3.2-9.4-6.5-14-9.8C347.7,757.1,347.5,757,347.3,757L347.3,757z M452,788L452,788c-0.2,0-0.2,0-0.3,0
					c-5.4,1.7-10.9,3.3-16.3,4.8c-5.5,1.5-11.1,3.1-16.6,4.9c-2.1,0.7-3.4,1.6-4,3c-0.8,1.9,0,4.1,1,5.9c1.3,2.6,2.6,4.9,5,4.9
					c1.1,0,2.3-0.5,4-1.6c9.2-6.1,27-19.5,27.8-20.1c0.3-0.2,0.4-0.5,0.4-0.8C453,788.5,452.5,788,452,788L452,788L452,788z
					 M452,790L452,790L452,790L452,790z M330.8,788c-0.4,0-0.7,0.2-0.9,0.5c-0.2,0.4-0.1,1,0.3,1.3c0.2,0.1,18.4,13.9,27.8,20.2
					c1.6,1.1,2.8,1.6,4,1.6c2.4,0,3.8-2.3,5-4.9c0.9-1.9,1.8-4.1,1-6c-0.6-1.3-1.9-2.3-4-3c-5.5-1.7-11.1-3.3-16.6-4.9
					c-5.4-1.5-11-3.1-16.4-4.8C331,788,330.9,788,330.8,788L330.8,788z M425.2,825c-1.6,0-2.8,0.4-3.6,1.3c-1.4,1.4-1.5,3.6-1.5,5.6
					c0.1,3.7,0.5,7,4.8,7c0.6,0,1.2-0.1,2-0.2c11.2-1.7,33.5-6.5,33.7-6.5c0.5-0.1,0.8-0.5,0.8-1s-0.4-0.9-0.9-0.9
					c-5.6-0.7-11.3-1.7-16.8-2.6c-5.6-0.9-11.4-1.9-17.1-2.6C426.1,825,425.6,825,425.2,825L425.2,825z M357.6,825
					c-0.4,0-0.9,0-1.4,0.1c-5.7,0.7-11.5,1.7-17.1,2.6c-5.5,0.9-11.2,1.8-16.8,2.6c-0.5,0.1-0.9,0.5-0.9,0.9c0,0.5,0.3,0.9,0.8,1
					c0.2,0,22.6,4.9,33.7,6.5c0.7,0.1,1.4,0.2,2,0.2c4.3,0,4.7-3.3,4.8-7c0-2-0.1-4.2-1.5-5.6C360.3,825.4,359.2,825,357.6,825
					L357.6,825z M289.4,892.9c-0.3,0-0.6,0.1-0.8,0.3c-0.4,0.4-0.3,1.1,0.1,1.4c0.2,0.2,0.5,0.3,0.7,0.4c0.3,0.1,0.5,0.2,0.8,0.2
					c0,0,0,0,0.1,0c0.5,0,1-0.4,1-0.9c0-0.6-0.4-1-0.9-1.1c0,0-0.1,0-0.2,0s-0.1-0.1-0.2-0.1C289.9,893,289.6,892.9,289.4,892.9
					L289.4,892.9z"/>
			</g>
			<g>
				<path class="st2" d="M289.8,896.7c-0.3,0-0.6-0.1-0.9-0.2c-0.4-0.2-0.8-0.4-1.1-0.7c-1-0.9-1.2-2.5-0.3-3.5
					c0.5-0.6,1.2-0.9,1.9-0.9c0.5,0,1.1,0.2,1.5,0.5c1.2,0.6,1.7,2,1.2,3.2C291.7,896.1,290.8,896.7,289.8,896.7z"/>
				<path class="st3" d="M289.4,893.9L289.4,893.9L289.4,893.9 M289.4,893.9c0.1,0.1,0.3,0.2,0.4,0.3
					C289.7,894.1,289.5,894,289.4,893.9 M289.4,888.9c-1.4,0-2.8,0.6-3.8,1.8c-1.8,2.1-1.5,5.3,0.6,7l0,0l0,0
					c0.5,0.5,1.2,0.8,1.8,1.1c0.6,0.2,1.2,0.4,1.9,0.4c1.9,0,3.8-1.1,4.6-3c1-2.4,0.1-5.2-2.2-6.4
					C291.4,889.2,290.4,888.9,289.4,888.9L289.4,888.9z"/>
			</g>
			<g>
				<path class="st2" d="M289.8,896.7c-0.3,0-0.6-0.1-0.9-0.2c-0.4-0.2-0.8-0.4-1.1-0.7c-1-0.9-1.2-2.5-0.3-3.5
					c0.5-0.6,1.2-0.9,1.9-0.9c0.5,0,1.1,0.2,1.5,0.5c1.2,0.6,1.7,2,1.2,3.2C291.7,896.1,290.8,896.7,289.8,896.7z"/>
				<path class="st3" d="M289.4,893.9L289.4,893.9L289.4,893.9 M289.4,893.9c0.1,0.1,0.3,0.2,0.4,0.3
					C289.7,894.1,289.5,894,289.4,893.9 M289.4,888.9c-1.4,0-2.8,0.6-3.8,1.8c-1.8,2.1-1.5,5.3,0.6,7l0,0l0,0
					c0.5,0.5,1.2,0.8,1.8,1.1c0.6,0.2,1.2,0.4,1.9,0.4c1.9,0,3.8-1.1,4.6-3c1-2.4,0.1-5.2-2.2-6.4
					C291.4,889.2,290.4,888.9,289.4,888.9L289.4,888.9z"/>
			</g>
			<g>
				<path class="st2" d="M276.3,918.1c-1,0-1.9-0.6-2.3-1.5s-0.2-2,0.5-2.7c4-4,6.6-7.1,8.5-10.1c2.1-3.3,3.3-6.5,3.8-10
					c0-10.5,0-34.9,0-63.1c0-55.2,0-124-0.3-131.2c0-0.4,0-0.9,0-1.3c-0.1-3.3-0.1-4.5-4.9-5.9c-4.9-1.4-9.3-6.5-11.5-10.8
					c-1.3-2.4-2.5-6-1.5-9.1c0.2-0.7,0.7-1.3,1.4-1.6c0.3-0.1,0.6-0.2,1-0.2c0.1,0,0.2,0,0.3,0c3.9,0,19.2,0.2,24.2,0.3
					c7-14.7,14.8-48,5.5-62.4c-6.2-9.5-8.2-30.7-8.8-45.1c-3.1,8.4-7,21.6-8.6,28.5c-3.2,14.3-2.5,28.4-1.2,41.4
					c0.1,0.5,0.1,1.1,0.2,1.6c0.4,3.1,0.9,6.9-1.2,11.5c-0.4,0.8-1.1,1.3-1.9,1.4c-0.1,0-0.3,0-0.4,0c-0.7,0-1.4-0.3-1.8-0.8
					c-3.9-4.3-19-15-31.2-23.5c-8.2-5.8-15.3-10.8-18.7-13.6c-1.6-1.3-3.6-2.9-6-4.8c-14-10.9-40.2-31.1-49.1-53.3
					c0-0.1-0.1-0.2-0.1-0.3c-4.8-17.9,5.9-86,11.1-96.5c5.1-16.2,14.9-30.4,30.8-44.7c16.6-14.9,44.6-51.2,44.8-51.6
					c0.5-0.6,1.2-1,2-1c0.2,0,0.3,0,0.5,0.1c0.9,0.2,1.7,0.9,1.9,1.8l0.1,0.3c0,0.1,0,0.2,0.1,0.3c1.3,7.8,1,15.7,0.6,23.3
					c-0.2,3.3-0.3,6.8-0.3,10.2c0,6.5,16.3,47.7,22.6,52.4c6.4,4.8,12.8,7.1,19.6,7.1c2.9,0,5.8-0.4,8.9-1.2
					c18.2-5,54.3-25.6,61-29.5c0.1-0.5,0.2-1,0.3-1.4c0.3-0.9,0.6-1.9,0.3-4.8c-0.3-3.5-2.3-5.6-3.7-7c-0.2-0.2-0.4-0.4-0.6-0.6
					c-2.5-1.4-5.4-2.8-8.4-4.3c-6.6-3.2-13.4-6.6-18.3-11.1c-9.2-8.4-22.3-27.2-22.4-33.6c-0.1-5,3.5-9.3,9.7-11.3
					c18.2-6.1,37.1-9.1,56.2-9.1c20,0,40.2,3.4,60,10c0.3,0.1,0.7,0.2,1.1,0.4c3.6,1.1,11,3.3,9.6,11c-1.3,6.8-15.1,26.3-23.5,33.2
					c-5.1,4.2-11.5,7.4-17.6,10.4c-3,1.5-5.8,2.9-8.5,4.4c-0.2,0.2-0.3,0.4-0.5,0.6c-1.2,1.4-3.2,3.8-3.5,7.3
					c-0.4,3.5-0.1,4.7,0.2,5.8c0,0.1,0,0.2,0.1,0.3c5.7,3.5,36.6,22,54.6,27.5c0.8,0.2,2.2,0.5,4.4,0.5c5.4,0,13.5-1.9,18.5-7.3
					c19.3-20.7,33.3-51.5,34-56.3c0.4-2.8,0.2-9.4,0-15.2c-0.1-5.2-0.3-10.1-0.1-12.9c0.1-1.1,0.9-2.1,2-2.3c0.1,0,0.3,0,0.4,0
					c1,0,1.9,0.6,2.3,1.4c3,6.5,13.6,17.2,23.9,27.4c8.8,8.8,17.1,17.1,21.1,23.2c11.9,18,20.3,34.7,25.5,45.7
					c1.5,3.1,2.9,6,4.1,8.8c10.8,23.2,19.2,71.7,7.8,94.8c-3.5,7.1-19,26.1-23.8,31c-20.6,20.9-59.5,49.9-77.2,57.5
					c-0.3,0.1-0.7,0.2-1,0.2c-0.5,0-0.9-0.1-1.3-0.4c-0.7-0.4-1.1-1.2-1.2-2c0-0.7,0.1-1.1,1.3-5.5c1-3.4,2.6-9.1,2.7-10.7
					c0.6-10.6-2.5-44.7-7.1-61.7c-2.7,8.8-12.1,30.7-20.2,41.9c-9.5,13.1-5.4,30.8-2.1,40.2c4.7,13.3,11.4,21.3,13.3,21.9h24
					c1.4,0,2.5,1.1,2.5,2.5c0,10.2-7,14.7-12.1,17.9c-0.8,0.5-1.6,1-2.4,1.6c-3.8,2.6-4.4,4.1-4.6,7.6c-0.3,5.7-0.6,75.3-0.7,126.2
					c-0.2,50.8-0.2,60.1-0.3,62.1c1.5,10.2,6.5,15.7,16.1,25.3c0.7,0.7,0.9,1.8,0.5,2.7s-1.3,1.5-2.3,1.5H276.3V918.1z M410.8,861.7
					c6.9,0,20.7,0,32.5,0c10.4,0,15.8,0,18.5,0V721.2h-141l-0.5,140.5c5.4,0,18.7,0,31.9,0c6.4,0,12.9,0,18.4,0
					c-1.4-2.4-2.9-5.9-3.5-10.6c0-0.1,0-0.1,0-0.2c-1.2-33.2,12.5-60,18.4-71.4c1-2,1.8-3.5,2.1-4.3c0.3-0.9,1.2-1.6,2.2-1.6h0.1
					c0.9,0,1.8,0.5,2.2,1.4c0.3,0.5,26.7,54.2,21.8,79C413.3,856.6,412,859.5,410.8,861.7z M353.8,492.8c1,0,1.9,0.6,2.3,1.5
					c3.9,8.7,8.3,15.7,13.2,21.3c10.9,12.4,16.6,18,21.7,18c5.1,0,11-5.7,21.3-17.6c3.8-4.4,6.9-9.4,10.1-14.8c1.5-2.4,3-5,4.6-7.5
					c0.5-0.7,1.3-1.1,2.1-1.1c0.1,0,0.2,0,0.3,0c3.5,0.4,5,4.2,6.7,8.2c1.1,2.7,2.6,6.4,4.1,6.6c2.7-1.2,7.4-15.5,9.5-26.6l0.1-0.8
					c1.1-5.9,1.5-10.3-3.5-13.2c-8-4.7-30.9-16-49.7-22.5c-2.4-0.8-4.3-1.2-6.2-1.2c-1.8,0-3.5,0.4-5.3,1.2c-4.5,2-9.1,4-13.6,5.9
					c-10.3,4.4-21,9-31,14.6c-6.2,3.4-8.5,7.2-8.1,12.9c5.9,27.8,10.1,28.8,10.3,28.8c1.4,0,1.9-0.7,3.1-4.4
					c1.1-3.2,2.5-7.6,7.2-9.2C353.3,492.9,353.6,492.8,353.8,492.8z"/>
				<path class="st3" d="M388.9,341.9c19.8,0,39.7,3.3,59.2,9.9c3.3,1.1,10.2,2.4,9,8.5s-14.8,25.3-22.6,31.7
					c-7.5,6.1-17.7,10-26.2,14.9c-0.8,1.2-4.3,4.2-4.8,9.6c-0.6,5.4,0.3,6.2,0.5,7.9c0,0,35.8,22.1,56,28.3c1.4,0.4,3.1,0.7,5.1,0.7
					c6.3,0,15-2.3,20.4-8.1c19.6-21,33.9-52.2,34.6-57.6c0.8-5.5-0.5-22.4,0-28.2c5.8,12.6,36.5,37.8,45.2,51
					c11,16.8,19.2,32.7,25.3,45.4c1.5,3.1,2.9,6,4.1,8.7c11.1,24,18.5,71,7.8,92.7c-3.3,6.7-18.6,25.5-23.4,30.3
					c-20.5,20.8-58.9,49.5-76.4,57c0-0.7,3.8-12.8,4-15.9c0.7-12.8-3.8-61.9-11-71.7c0,0.5-0.4,5-0.4,6.5c0,2.7-10.5,30.1-20.5,43.8
					c-17.8,24.4,6.6,66,13.1,66c7.7,0,24.1,0,24.1,0c0,10.4-8,13.7-13.4,17.4c-4.3,3-5.5,5.2-5.7,9.5c-0.5,9.5-0.8,187.4-1,188.4
					l0,0c1.5,11.1,6.8,17,16.8,27H276.3c3.6-3.7,6.7-7,8.9-10.5c2.2-3.5,3.7-7.1,4.2-11.1c-0.1-30.6,0.2-183.5-0.4-194.5
					c-0.2-4.2,0.5-7.3-6.7-9.4c-6.2-1.8-13-11.9-11.3-16.8l0,0l0,0c4.1,0,26,0.3,26,0.3c6.5-12.6,16.9-49.5,6-66.3
					c-8.4-13-8.7-50.9-8.7-53.4l0,0c-2.6,0-11.2,28.8-13.2,37.7c-3.2,14.1-2.6,28.1-1.2,42.2c0.3,3.5,1.3,7.2-0.8,11.8
					c-6.7-7.3-41.4-30.2-50.2-37.4c-10.6-8.7-44.3-31.7-54.4-57.1c-4.8-17.7,6.6-86.4,11-94.9c5.5-17.7,16.6-31.6,30.2-43.7
					c17-15.2,45.2-51.9,45.2-51.9l0.1,0.3l0,0c1.9,11,0.3,22.1,0.2,33.1c0,7.4,16.5,49.1,23.6,54.4c6.6,4.9,13.5,7.6,21.1,7.6
					c3.1,0,6.2-0.4,9.5-1.3c20.5-5.6,62.8-30.4,62.8-30.4c0.1-2.6,1.2-2.6,0.8-8c-0.5-5.4-4.3-8.2-5.1-9.4
					c-8.1-4.7-19.8-9-26.7-15.3c-9.5-8.7-21.5-26.7-21.6-31.8c-0.1-5.1,4.6-7.8,8-8.9C351.6,344.9,370.2,341.9,388.9,341.9
					 M342.7,509.1c6.8,0,4-11.3,11.1-13.8c3.4,7.6,7.8,15.4,13.6,21.9c11,12.5,17.3,18.8,23.6,18.8c6.2,0,12.5-6.1,23.2-18.5
					c5.8-6.7,9.9-14.8,14.9-22.5c4.4,0.5,5.2,14.8,11.1,14.8l0,0c5.5,0,10.9-23.6,11.9-28.6c0.9-5,2.8-12.3-4.6-16.6
					c-7.3-4.3-30.4-15.9-50.1-22.7c-2.4-0.8-4.7-1.3-7-1.3c-2.1,0-4.2,0.4-6.3,1.4c-15,6.8-30.4,12.6-44.8,20.6
					c-6.5,3.6-10,8.1-9.4,15.6l0,0C331.5,485.4,336.6,509.1,342.7,509.1 M317.8,864.2c0,0,17.2,0,34.4,0c8.6,0,17.1,0,23.5,0
					c0,0-4.9-3.9-6.1-13.4c-1.4-38.9,18.3-69.3,20.3-74.8c3.3,6.6,26,55,21.5,77.4c-1.1,4.9-5.1,10.8-5.1,10.8s20.3,0,36.9,0
					c10.5,0,19.5,0,21-0.1c0,0,0-140.8,0-145.5H318.4l0,0l0,0l0,0L317.8,864.2 M290.3,894.3c-0.2,0-0.3-0.1-0.5-0.1
					C290,894.2,290.2,894.3,290.3,894.3 M388.9,336.9v5V336.9c-19.3,0-38.5,3.1-57,9.3c-7.3,2.4-11.5,7.6-11.4,13.7
					c0.2,7.8,14.4,27.3,23.2,35.4c5.1,4.7,12.1,8.1,18.9,11.5c2.9,1.4,5.6,2.7,7.9,4.1c0.1,0.1,0.2,0.3,0.4,0.4
					c1.2,1.2,2.8,2.9,3,5.5c0.2,2.5,0,3.1-0.2,3.9c0,0.2-0.1,0.3-0.1,0.5c-8.6,4.9-42.4,24-59.5,28.7c-2.8,0.8-5.6,1.2-8.2,1.2
					c-6.3,0-12.2-2.2-18.1-6.6c-1.6-1.2-6.3-8.6-12.9-24.3c-5.7-13.7-8.7-23.9-8.7-26.1c0-3.3,0.2-6.7,0.3-10
					c0.4-7.7,0.8-15.7-0.6-23.8c0-0.2-0.1-0.4-0.1-0.6l-0.1-0.3c-0.5-1.9-2-3.3-3.8-3.7c-0.3-0.1-0.7-0.1-1-0.1c-1.5,0-3,0.7-4,2
					c-0.3,0.4-28.1,36.5-44.5,51.2c-16.2,14.5-26.2,29-31.5,45.6c-2.9,6.2-6.8,27.1-9.2,45.1c-2,14.9-5,41.5-1.9,52.9
					c0.1,0.2,0.1,0.4,0.2,0.6c9.2,22.9,35.7,43.4,49.9,54.4c2.4,1.9,4.5,3.5,6,4.7c3.5,2.9,10.6,7.9,18.9,13.7
					c12,8.5,27,19.1,30.8,23.2c1,1,2.3,1.6,3.7,1.6c0.3,0,0.5,0,0.8-0.1c1.7-0.3,3.1-1.3,3.8-2.8c2.4-5.2,1.8-9.6,1.4-12.8
					c-0.1-0.5-0.1-1.1-0.2-1.6c-1.3-12.9-2-26.7,1.1-40.7c0.9-3.9,2.6-10.1,4.5-16.3c1.2,12.9,3.6,26.3,8.4,33.6
					c4,6.2,5,17.3,2.8,31.2c-1.7,10.7-5,21-7.7,27.3c-6-0.1-18.6-0.2-22.4-0.2c-0.2,0-0.3,0-0.5,0c-0.6,0-1.3,0.1-1.9,0.4
					c-1.5,0.6-2.5,1.8-2.9,3.3c-1.2,3.8,0.2,8,1.7,10.8c2.3,4.5,7.1,10.3,13,12.1c2.5,0.7,2.9,1.3,2.9,1.3c0.1,0.3,0.2,1.4,0.2,2.2
					c0,0.4,0,0.9,0,1.3c0.3,7.2,0.3,75.9,0.3,131.1c0,28,0,52.2,0,62.8c-0.4,3-1.5,5.8-3.4,8.8c-1.8,2.8-4.3,5.8-8.2,9.7
					c-1.4,1.4-1.9,3.6-1.1,5.4c0.8,1.9,2.6,3.1,4.6,3.1H509c2,0,3.8-1.2,4.6-3.1c0.8-1.9,0.3-4-1.1-5.4c-10-10-14-14.8-15.4-23.7
					c0.1-3,0.1-14,0.3-61.9c0.2-50.8,0.4-120.4,0.7-126c0.2-2.6,0.3-3.5,3.6-5.7c0.7-0.5,1.5-1,2.3-1.5c5.3-3.3,13.3-8.4,13.3-20
					c0-2.8-2.2-5-5-5h-23.4c-2.7-2-10.5-13.3-13.9-28c-1.9-8.6-2.8-20.8,4-30.1c6.3-8.7,13.5-23.7,17.7-34.5
					c3.4,17.3,5.7,42.9,5.1,52.7c-0.1,1.4-1.8,7.3-2.6,10.2c-1.3,4.5-1.5,5.2-1.4,6.3c0.1,1.6,1,3.1,2.4,3.9
					c0.8,0.5,1.7,0.7,2.6,0.7c0.7,0,1.3-0.1,2-0.4c18.2-7.8,56.9-36.6,78-58.1c4.8-4.9,20.5-24,24.3-31.6c11.9-24.1,3.5-72.7-7.7-97
					c-1.4-3-2.8-5.9-4.1-8.8c-5.3-11.1-13.7-27.8-25.7-46c-4.2-6.4-12.6-14.8-21.4-23.6c-9.6-9.7-20.6-20.6-23.4-26.7
					c-0.8-1.8-2.6-2.9-4.5-2.9c-0.3,0-0.6,0-0.9,0.1c-2.2,0.4-3.9,2.3-4.1,4.5c-0.2,2.9-0.1,7.9,0.1,13.1c0.2,5.7,0.3,12.2,0,14.8
					c-0.7,4.7-14.6,34.8-33.3,54.9c-4.2,4.5-11.4,6.5-16.7,6.5c-2,0-3.1-0.3-3.7-0.4c-16.9-5.2-45.7-22.2-53.1-26.7
					c-0.1-0.8-0.2-1.9,0-4.2c0.3-2.8,1.8-4.6,3-6c0.1-0.1,0.2-0.2,0.2-0.3c2.5-1.4,5.2-2.7,8-4.1c6.2-3.1,12.7-6.3,18-10.7
					c8.1-6.6,22.9-26.7,24.4-34.6c0.8-4.3-0.7-8.1-4.2-10.6c-2.3-1.7-5.1-2.6-7.1-3.2c-0.4-0.1-0.7-0.2-1.1-0.3
					C429.6,340.3,409.1,336.9,388.9,336.9L388.9,336.9z M334.9,477.4c-0.3-4,0.8-7,6.8-10.4c9.9-5.5,20.5-10.1,30.8-14.5
					c4.5-1.9,9.1-3.9,13.6-5.9c1.4-0.6,2.8-0.9,4.2-0.9c1.5,0,3.2,0.3,5.4,1.1c18.6,6.4,41.3,17.7,49.2,22.3c3.5,2,3.4,4.9,2.3,10.6
					l-0.1,0.8c-1.5,7.9-4.8,18.8-7.2,23.2c-0.6-1.2-1.2-2.7-1.6-3.7c-1.7-4.3-3.7-9.2-8.7-9.8c-0.2,0-0.4,0-0.6,0
					c-1.7,0-3.3,0.8-4.2,2.3c-1.6,2.5-3.2,5.1-4.7,7.5c-3.2,5.2-6.2,10.2-9.9,14.4c-9.4,10.9-15.3,16.8-19.4,16.8
					c-4.5,0-11.3-7.4-19.8-17.1c-4.8-5.4-8.9-12.2-12.8-20.7c-0.8-1.8-2.6-2.9-4.6-2.9c-0.5,0-1.1,0.1-1.6,0.3
					c-5.8,2-7.6,7.3-8.8,10.8c-0.2,0.5-0.4,1.1-0.6,1.7C341.4,500.8,338.6,494.4,334.9,477.4L334.9,477.4z M323.3,723.7h136v135.6
					c-3.1,0-8.1,0-16,0c-9.9,0-21.1,0-28.5,0c0.6-1.5,1.2-3.1,1.6-4.7v-0.1c5.2-26.1-21.7-80.1-22-80.6c-0.9-1.7-2.6-2.7-4.5-2.7
					c-0.1,0-0.2,0-0.3,0c-2,0.1-3.7,1.4-4.4,3.3c-0.2,0.6-1.1,2.2-2,4c-5.9,11.6-19.9,38.8-18.6,72.7c0,0.1,0,0.3,0,0.4
					c0.4,3,1.1,5.6,1.9,7.7c-4.2,0-9,0-14.4,0c-11.5,0-23,0-29.4,0L323.3,723.7L323.3,723.7z"/>
			</g>
		</g>
		<g>
			<path class="st2" d="M325.9,361.8c-0.5,0-0.9-0.1-1.3-0.4c-1.2-0.7-1.5-2.3-0.8-3.4c0.2-0.3,0.3-0.5,0.5-0.8l0,0
				c0.2-0.2,0.4-0.4,0.6-0.6c0.3-0.2,0.7-0.4,1.2-0.5c0.1,0,0.2,0,0.3,0c0.7,0,1.4,0.3,1.9,0.8c0.8,0.8,0.9,2.1,0.2,3l-0.4,0.7
				C327.5,361.4,326.7,361.8,325.9,361.8z"/>
			<path class="st3" d="M326.3,358.6L326.3,358.6 M326.3,358.6l-0.4,0.7L326.3,358.6L326.3,358.6L326.3,358.6L326.3,358.6
				 M326.3,353.6c-0.1,0-0.1,0-0.2,0c-0.9,0-1.7,0.3-2.3,0.7c-0.8,0.4-1.4,1.1-1.9,1.8c-0.1,0.2-0.2,0.4-0.3,0.5
				c-1.5,2.3-0.8,5.4,1.6,6.9c0.8,0.5,1.8,0.8,2.7,0.8c1.6,0,3.3-0.8,4.2-2.3l0.4-0.6c0.5-0.8,0.9-1.8,0.9-2.8
				C331.3,355.9,329.1,353.7,326.3,353.6C326.4,353.6,326.4,353.6,326.3,353.6L326.3,353.6z M326.3,363.6L326.3,363.6L326.3,363.6
				L326.3,363.6z"/>
		</g>
		<g>
			<path class="st2" d="M160.3,535.8c-0.2,0-0.3,0-0.5-0.1c-1.2-0.2-2.5-0.5-14.4-18.9c-7.8-12.1-17-27.2-25.9-42.5
				c-14-24.2-38.9-69.3-48.2-99.1c-14.7-47-12.7-74.4-10.8-100.8c0.2-3.1,0.4-6.1,0.6-9.1c0.1-1.3,1.1-2.3,2.3-2.3
				c4.6-0.6,41.1-10.7,71.2-37.8c6.2-5.6,12.1-11.7,18.3-18.2c10.1-10.6,20.6-21.5,33.7-31.1c22.6-16.6,51.1-26.8,53.4-26.8
				c0.7,0,1.4,0.3,1.9,0.8c0.7,0.8,0.9,1.9,0.4,2.8c-0.3,0.5-26.9,55.3-32.3,81.5c-5.5,26.7,4.3,55.8,6.4,60.5
				c1.1,2.4,3.4,5.6,5.8,9c2.7,3.8,5.7,8,7.8,12.1l0.6,1.2c3.1,6.4,5.3,11.1,5.3,21.7c0,13.6-4.6,19.2-8.6,24.2
				c-0.6,0.8-1.2,1.6-1.8,2.3c-2.4,3.3-12.9,14.1-24,25.5c-9.2,9.5-18.7,19.3-22.3,23.5c-18.2,21.1-19.4,50-19.4,55.6
				c-0.1,12.7,0.6,44.2,3.1,63c0.1,0.8-0.2,1.6-0.8,2.2C161.5,535.5,160.9,535.8,160.3,535.8z"/>
			<path class="st3" d="M239.9,151.6C240,151.6,240,151.6,239.9,151.6c0.1,0-27,55.3-32.4,82.1c-5.5,26.8,4.1,56.6,6.6,62
				s9.8,13.7,13.7,21.2c3.3,6.9,5.6,11.1,5.6,21.8c0,14.8-5.7,19.4-9.9,25.1c-4.4,5.9-38.4,39.8-46.3,48.9
				c-16.2,18.9-19.9,44.8-20,57.2c-0.1,12.3,0.6,44,3.1,63.4c-3.8-0.8-70.4-106.8-86.7-158.8c-16.2-52.1-11.8-80.3-10-109.1
				c1.3,0,40-9,72.7-38.4c16.7-15,31.1-33.8,51.8-49.1C210.4,161.4,238.5,151.6,239.9,151.6 M239.9,146.6c-0.7,0-1.6,0-7.3,2.1
				c-2.8,1-7.2,2.8-12.9,5.3c-9.1,4.1-22.6,10.9-34.8,19.9c-13.2,9.7-23.8,20.7-34,31.3c-6.2,6.4-12,12.5-18.2,18
				c-31.5,28.4-68.2,36.8-69.8,37.2c-2.4,0.2-4.3,2.2-4.5,4.7c-0.2,3-0.4,6.1-0.6,9.1C56,299.7,53.9,328.5,68.7,376
				c9.4,30.1,34.4,75.4,48.5,99.6c8.9,15.3,18.1,30.4,25.9,42.6c12.5,19.3,13.9,19.6,16,20c0.3,0.1,0.7,0.1,1,0.1
				c1.2,0,2.5-0.5,3.4-1.3c1.2-1.1,1.8-2.7,1.6-4.3c-2.5-18.7-3.2-50.1-3.1-62.7c0.2-15,5.2-38.1,18.8-54
				c3.6-4.1,13.1-13.9,22.2-23.4c13.5-13.9,21.9-22.6,24.2-25.8c0.6-0.7,1.2-1.5,1.8-2.3c4.1-5.1,9.1-11.3,9.1-25.8
				c0-11.3-2.4-16.4-5.5-22.8l-0.6-1.2c0,0,0-0.1-0.1-0.1c-2.1-4.2-5.2-8.6-8-12.4c-2.4-3.3-4.6-6.4-5.6-8.6
				c-2-4.3-11.5-33.2-6.3-58.9c5.3-25.9,31.8-80.3,32.1-80.9c0.9-1.9,0.6-4.1-0.9-5.6C242.7,147.2,241.4,146.6,239.9,146.6
				L239.9,146.6z"/>
		</g>
		<g>
			<path class="st2" d="M391.3,772.2c-2.8,0-4.4-0.5-5.4-1.6c-0.8-1-1.1-2.4-0.8-4.5c0.8-5.7,1.9-11.4,2.9-16.9s2.1-11.2,2.9-16.9
				c0-0.2,0.2-0.4,0.5-0.4l0,0c0.2,0,0.4,0.2,0.5,0.4c0,0.2,4.4,22.7,5.9,33.8c0.3,2.3,0.1,3.7-0.7,4.6
				C395.9,772,394,772.2,391.3,772.2z"/>
			<path class="st3" d="M391.4,732.4c0,0,4.4,22.5,5.9,33.8c0.6,4.7-1.1,5.5-6,5.5c-4.1,0-6.4-1-5.7-5.5
				C387.2,754.9,389.7,743.7,391.4,732.4 M391.4,731.4L391.4,731.4c-0.5,0-0.9,0.4-1,0.9c-0.8,5.6-1.9,11.3-2.9,16.8
				c-1,5.6-2.1,11.3-2.9,17c-0.3,2.2,0,3.8,0.9,4.9c1.3,1.5,3.7,1.8,5.8,1.8c2.9,0,4.9-0.3,6.1-1.6c0.9-1,1.2-2.6,0.9-5
				c-1.5-11.2-5.8-33.6-5.9-33.9C392.3,731.7,391.9,731.4,391.4,731.4L391.4,731.4z"/>
		</g>
		<g>
			<path class="st2" d="M412.1,789c-1.5,0-3-1.2-4.9-3.1c-2-2-2.8-3.5-2.7-4.9c0.1-1.3,1-2.5,2.6-3.7c4.6-3.4,9.4-6.7,14.1-9.9
				c4.6-3.2,9.4-6.5,14-9.8c0.1-0.1,0.2-0.1,0.3-0.1s0.3,0,0.3,0.1c0.2,0.2,0.2,0.4,0.1,0.6c-0.1,0.2-12.9,19-19.8,28
				C414.6,788.2,413.4,789,412.1,789z"/>
			<path class="st3" d="M435.5,758c-0.4,0.6-13,19.1-19.8,28c-1.4,1.7-2.5,2.5-3.6,2.5c-1.3,0-2.7-1.1-4.5-2.9
				c-2.9-2.9-3.8-5.2-0.1-7.9C416.6,770.9,426.3,764.8,435.5,758 M435.5,757c-0.2,0-0.4,0.1-0.6,0.2c-4.6,3.4-9.3,6.6-14,9.8
				s-9.5,6.5-14.1,9.9c-1.8,1.3-2.7,2.7-2.8,4.1c-0.2,2,1.3,3.8,2.8,5.3c2,2,3.5,3.2,5.2,3.2c1.5,0,2.8-0.9,4.4-2.9
				c7-9,19.7-27.9,19.8-28c0.3-0.4,0.2-0.9-0.1-1.3C436,757.1,435.7,757,435.5,757L435.5,757z M435.5,759L435.5,759L435.5,759
				L435.5,759z"/>
		</g>
		<g>
			<path class="st2" d="M424.9,838.4c-3.9,0-4.2-2.8-4.3-6.5c-0.1-2.7,0.3-4.3,1.3-5.3c0.7-0.8,1.8-1.1,3.3-1.1c0.4,0,0.9,0,1.4,0.1
				c5.7,0.7,11.5,1.7,17.1,2.6c5.5,0.9,11.2,1.8,16.8,2.6c0.2,0,0.4,0.2,0.4,0.5c0,0.2-0.2,0.5-0.4,0.5s-22.6,4.9-33.7,6.5
				C426.1,838.4,425.4,838.4,424.9,838.4z"/>
			<path class="st3" d="M425.2,826c0.4,0,0.8,0,1.3,0.1c11.3,1.4,22.6,3.7,33.9,5.2c0,0-22.4,4.8-33.7,6.5c-0.7,0.1-1.3,0.2-1.8,0.2
				c-3.1,0-3.7-1.8-3.8-6C421,828.2,421.8,826,425.2,826 M425.2,825L425.2,825c-1.6,0-2.8,0.4-3.6,1.3c-1.4,1.4-1.5,3.6-1.5,5.6
				c0.1,3.7,0.5,7,4.8,7c0.6,0,1.2-0.1,2-0.2c11.2-1.7,33.5-6.5,33.7-6.5c0.5-0.1,0.8-0.5,0.8-1s-0.4-0.9-0.9-0.9
				c-5.6-0.7-11.3-1.7-16.8-2.6c-5.6-0.9-11.4-1.9-17.1-2.6C426.1,825,425.6,825,425.2,825L425.2,825z"/>
		</g>
		<g>
			<path class="st2" d="M420.8,811c-2,0-3.2-1.7-4.6-4.6c-1.2-2.5-1.5-4.2-1-5.5c0.5-1.2,1.7-2.1,3.7-2.7c5.5-1.7,11.1-3.3,16.6-4.9
				c5.4-1.5,11-3.1,16.4-4.8c0,0,0.1,0,0.2,0c0.2,0,0.4,0.1,0.4,0.3c0.1,0.2,0.1,0.5-0.1,0.6c-0.2,0.1-18.4,13.9-27.8,20.1
				C423,810.5,421.8,811,420.8,811z"/>
			<path class="st3" d="M452,789c0,0-18.3,13.8-27.8,20.1c-1.4,0.9-2.5,1.4-3.4,1.4c-1.7,0-2.8-1.5-4.2-4.3
				c-1.8-3.7-1.9-6.2,2.4-7.5C429.9,795.2,441.1,792.4,452,789 M452,788c-0.1,0-0.2,0-0.3,0c-5.4,1.7-11,3.3-16.4,4.8
				c-5.5,1.5-11.1,3.1-16.6,4.9c-2.1,0.7-3.4,1.6-4,3c-0.8,1.9,0,4.1,1,5.9c1.3,2.6,2.6,4.9,5,4.9c1.1,0,2.3-0.5,4-1.6
				c9.4-6.2,27.6-20,27.8-20.2c0.4-0.3,0.5-0.8,0.3-1.3C452.7,788.2,452.3,788,452,788L452,788z M452,790L452,790L452,790L452,790z"
				/>
		</g>
		<g>
			<path class="st2" d="M370.7,789c-1.3,0-2.5-0.8-4-2.7c-7-9-19.7-27.8-19.8-28c-0.1-0.2-0.1-0.5,0.1-0.6c0.1-0.1,0.2-0.1,0.3-0.1
				c0.1,0,0.2,0,0.3,0.1c4.6,3.4,9.4,6.6,14,9.8c4.7,3.2,9.5,6.5,14.1,9.9c1.7,1.2,2.5,2.4,2.6,3.7c0.1,1.5-0.7,2.9-2.7,4.9
				C373.7,787.9,372.2,789,370.7,789z"/>
			<path class="st3" d="M347.2,758c9.2,6.8,18.9,12.9,28.1,19.7c3.7,2.7,2.8,5-0.1,7.9c-1.9,1.9-3.2,2.9-4.5,2.9
				c-1.1,0-2.2-0.8-3.6-2.5C360.2,777.1,347.6,758.6,347.2,758 M347.3,757c-0.3,0-0.5,0.1-0.7,0.3c-0.4,0.3-0.4,0.9-0.1,1.3
				c0.1,0.2,12.9,19,19.8,28c1.1,1.4,2.5,2.9,4.4,2.9c1.7,0,3.3-1.2,5.2-3.2c1.5-1.5,3-3.3,2.8-5.3c-0.1-1.4-1-2.8-2.8-4.1
				c-4.6-3.4-9.4-6.7-14.1-9.9c-4.6-3.2-9.4-6.5-14-9.8C347.7,757.1,347.5,757,347.3,757L347.3,757z"/>
		</g>
		<g>
			<path class="st2" d="M357.8,838.4c-0.5,0-1.2-0.1-1.9-0.2c-11.1-1.7-33.5-6.5-33.7-6.5c-0.2-0.1-0.4-0.3-0.4-0.5s0.2-0.4,0.4-0.5
				c5.6-0.7,11.3-1.7,16.8-2.6c5.6-0.9,11.4-1.9,17.1-2.6c0.5-0.1,0.9-0.1,1.4-0.1c1.4,0,2.5,0.4,3.3,1.1c1,1,1.4,2.6,1.3,5.3
				C362.1,835.6,361.7,838.4,357.8,838.4z"/>
			<path class="st3" d="M357.6,826c3.4,0,4.1,2.2,4.1,5.9c-0.1,4.2-0.7,6-3.8,6c-0.5,0-1.1-0.1-1.8-0.2c-11.3-1.7-33.7-6.5-33.7-6.5
				c11.3-1.5,22.6-3.7,33.9-5.2C356.7,826,357.2,826,357.6,826 M357.6,825L357.6,825c-0.4,0-0.9,0-1.4,0.1
				c-5.7,0.7-11.5,1.7-17.1,2.6c-5.5,0.9-11.2,1.8-16.8,2.6c-0.5,0.1-0.9,0.5-0.9,0.9c0,0.5,0.3,0.9,0.8,1c0.2,0,22.6,4.9,33.7,6.5
				c0.7,0.1,1.4,0.2,2,0.2c4.3,0,4.7-3.3,4.8-7c0-2-0.1-4.2-1.5-5.6C360.3,825.4,359.2,825,357.6,825L357.6,825z"/>
		</g>
		<g>
			<path class="st2" d="M362,811c-1,0-2.2-0.5-3.7-1.5c-9.4-6.2-27.6-20-27.8-20.1c-0.2-0.1-0.3-0.4-0.1-0.6
				c0.1-0.2,0.3-0.3,0.4-0.3s0.1,0,0.2,0c5.4,1.7,11,3.3,16.4,4.8c5.5,1.5,11.1,3.1,16.6,4.9c2,0.6,3.2,1.5,3.7,2.7
				c0.6,1.3,0.3,3-1,5.5C365.1,809.3,363.9,811,362,811z"/>
			<path class="st3" d="M330.8,789c10.8,3.4,22.1,6.2,32.9,9.6c4.3,1.4,4.2,3.8,2.4,7.5c-1.4,2.8-2.5,4.3-4.2,4.3
				c-0.9,0-2-0.5-3.4-1.4C349.1,802.8,330.8,789,330.8,789 M330.8,788c-0.4,0-0.7,0.2-0.9,0.5c-0.2,0.4-0.1,1,0.3,1.3
				c0.2,0.1,18.4,13.9,27.8,20.2c1.6,1.1,2.8,1.6,4,1.6c2.4,0,3.8-2.3,5-4.9c0.9-1.9,1.8-4.1,1-6c-0.6-1.3-1.9-2.3-4-3
				c-5.5-1.7-11.1-3.3-16.6-4.9c-5.4-1.5-11-3.1-16.4-4.8C331,788,330.9,788,330.8,788L330.8,788z"/>
		</g>
	</g>
	<g class="st1">
		<g>
			<path class="st2" d="M-110.9,819c-3.3,0-6-2.7-6-6v-29c0-3.3,2.7-6,6-6h17.7c2.6,0,4.9-1.5,5.9-3.8L35.1,503.1
				c-5.9-3.4-7.6-15.7-8-26.3c0-0.2-0.1-0.3-0.2-0.4c-4-0.1-31.2-1.2-43.6-8.7c-13.9-8.4-21.5-17.5-24.9-29.4
				c-3.7-13.4-1.3-29.4,3.3-35.4c1.8-2.3,3.6-2.8,4.9-2.8c4.3,0,5.2,4.6,6.1,9c0.7,3.4,1.5,7.4,3.6,10.2c8.4,11.3,17,16.8,26.2,16.8
				h72c0.1,0,0.1,0,0.2,0H75c3.3,0.3,5.7,0.5,8,4.3c0.1,0.1,4.4,7.4,8.4,15c8,15.3,7.7,18.3,6.7,20c-0.6,1-1.7,1.7-2.9,1.7H59.4
				c-0.3,0-0.5,0.2-0.5,0.5c-0.4,10.3-2.3,22.3-8,25.7l113.6,270.9c1,2.4,3.4,4,6,4H188c3.3,0,6,2.7,6,6v29c0,3.3-2.7,6-6,6
				L-110.9,819z M50.1,532c0,34.6,0,133.2,0,196.7V777c0,0.5,0.4,1,1,1c8.2,0,29.8,0,52.4,0c16.8,0,34.2,0,46.9,0
				c0.5,0,0.7-0.3,0.8-0.4c0.1-0.2,0.3-0.5,0.1-0.9C135.4,738.1,68.6,576.7,50.1,532z M35.9,529.7C17.3,568.1-51.1,723.9-74,776.6
				c-0.2,0.4,0,0.8,0.1,0.9c0.1,0.2,0.4,0.5,0.8,0.5H35.1c0.6,0,1-0.4,1-1c0-10.6-0.1-28.8-0.1-50.7
				C35.7,662.3,35.4,568.6,35.9,529.7z M43.1,477c-0.6,0.3-2,2.5-2,6.5c0,4.1,1.5,6.3,2,6.5c0.5-0.2,2-2.4,2-6.5
				C45.1,479.5,43.7,477.3,43.1,477z"/>
			<path class="st3" d="M-33.4,402.5c4.3,0,2.7,11.3,7.8,18.1c7,9.4,16.2,17.9,28.3,17.9h72c3.3,0.3,4.7,0.3,6.4,3.1
				c0,0,19.6,32.9,14.3,32.9H59.6c-1.6,0-2.9,1.3-3,2.9c-0.3,7-1.8,24.1-8.9,24.1L162.4,775c1.4,3.3,4.7,5.5,8.3,5.5h17.5
				c1.9,0,3.5,1.6,3.5,3.5v29c0,1.9-1.6,3.5-3.5,3.5h-299c-1.9,0-3.5-1.6-3.5-3.5v-29c0-1.9,1.6-3.5,3.5-3.5h17.7
				c3.5,0,6.7-2.1,8.2-5.3L38.7,501.5c-7.4,0-8.7-18.4-8.9-24.8c-0.1-1.3-0.9-2.4-2.2-2.8c0,0-30.1-0.7-42.9-8.4
				c-12.7-7.7-20.5-16.3-23.7-28C-43.5,422-38.8,402.5-33.4,402.5 M43.1,492.5c2.5,0,4.5-4,4.5-9s-2-9-4.5-9s-4.5,4-4.5,9
				S40.6,492.5,43.1,492.5 M103.9,780.5c16.7,0,33.8,0,46.4,0c2.5,0,4.2-2.5,3.2-4.8C138.9,740.4,49,522.8,47.5,519.5
				c0,2.8,0,226.7,0,257.5c0,1.9,1.6,3.5,3.5,3.5C59.3,780.5,81.2,780.5,103.9,780.5 M-73.1,780.5H35.1c1.9,0,3.5-1.6,3.5-3.5
				c0-44.4-1-219,0-257.5c-3,0.6-94,208-114.9,256.1C-77.3,777.9-75.6,780.5-73.1,780.5 M-33.4,397.5c-1.8,0-4.4,0.7-6.8,3.8
				c-4.9,6.5-7.6,23.5-3.7,37.6c3.5,12.6,11.5,22.1,26,30.9c11.5,7,34.9,8.7,42.7,9c0.2,3.6,0.7,9,1.8,13.9c1.2,5.2,3.1,9,5.5,11.2
				L-89.6,773.1c-0.6,1.4-2.1,2.3-3.6,2.3h-17.7c-4.7,0-8.5,3.8-8.5,8.5v29c0,4.7,3.8,8.5,8.5,8.5h299c4.7,0,8.5-3.8,8.5-8.5v-29
				c0-4.7-3.8-8.5-8.5-8.5h-17.5c-1.6,0-3.1-1-3.7-2.4L54,504c4.2-3.8,6.6-12,7.4-24.5h33.9c2.1,0,4-1.1,5.1-2.9
				c1.8-3.1,1.2-7.4-6.6-22.4c-4-7.7-8.3-14.8-8.4-15.1c0,0,0-0.1-0.1-0.1c-3-4.9-6.6-5.1-10-5.4H75c-0.1,0-0.3,0-0.4,0h-72
				c-8.4,0-16.3-5.2-24.2-15.8c-1.8-2.4-2.5-6-3.2-9.2c-0.4-2.2-0.9-4.2-1.6-5.9C-28.4,398-32,397.5-33.4,397.5L-33.4,397.5z
				 M-70.8,775.5c21.9-50.3,81-184.9,104.1-234.4c-0.3,43.7,0,126.8,0.2,185.2c0.1,20.5,0.1,38.4,0.1,49.2H-70.8L-70.8,775.5z
				 M52.6,775.5v-46.8c0-57,0-142.3,0-184.2c22.8,55,79.5,192.3,95.5,231c-12.4,0-28.5,0-44.2,0C82.5,775.5,61.8,775.5,52.6,775.5
				L52.6,775.5z"/>
		</g>
		<g>
			<path class="st2" d="M-66.9,864c-3.3,0-6-2.7-6-6v-20c0-3.3,2.7-6,6-6h209c3.3,0,6,2.7,6,6v20c0,3.3-2.7,6-6,6H-66.9z"/>
			<path class="st3" d="M142.1,834.5c1.9,0,3.5,1.6,3.5,3.5v20c0,1.9-1.6,3.5-3.5,3.5h-209c-1.9,0-3.5-1.6-3.5-3.5v-20
				c0-1.9,1.6-3.5,3.5-3.5H142.1 M142.1,829.5h-209c-4.7,0-8.5,3.8-8.5,8.5v20c0,4.7,3.8,8.5,8.5,8.5h209c4.7,0,8.5-3.8,8.5-8.5v-20
				C150.6,833.3,146.8,829.5,142.1,829.5L142.1,829.5z"/>
		</g>
		<g>
			<path class="st2" d="M-30.9,909c-3.3,0-6-2.7-6-6v-20c0-3.3,2.7-6,6-6h137c3.3,0,6,2.7,6,6v20c0,3.3-2.7,6-6,6H-30.9z"/>
			<path class="st3" d="M106.1,879.5c1.9,0,3.5,1.6,3.5,3.5v20c0,1.9-1.6,3.5-3.5,3.5h-137c-1.9,0-3.5-1.6-3.5-3.5v-20
				c0-1.9,1.6-3.5,3.5-3.5H106.1 M106.1,874.5h-137c-4.7,0-8.5,3.8-8.5,8.5v20c0,4.7,3.8,8.5,8.5,8.5h137c4.7,0,8.5-3.8,8.5-8.5v-20
				C114.6,878.3,110.8,874.5,106.1,874.5L106.1,874.5z"/>
		</g>
	</g>
	<g class="st1">
		<g>
			<path class="st2" d="M642.7,864c-3.3,0-6-2.7-6-6v-20c0-3.3,2.7-6,6-6h209c3.3,0,6,2.7,6,6v20c0,3.3-2.7,6-6,6H642.7z"/>
			<path class="st3" d="M851.7,834.5c1.9,0,3.5,1.6,3.5,3.5v20c0,1.9-1.6,3.5-3.5,3.5h-209c-1.9,0-3.5-1.6-3.5-3.5v-20
				c0-1.9,1.6-3.5,3.5-3.5H851.7 M851.7,829.5h-209c-4.7,0-8.5,3.8-8.5,8.5v20c0,4.7,3.8,8.5,8.5,8.5h209c4.7,0,8.5-3.8,8.5-8.5v-20
				C860.2,833.3,856.4,829.5,851.7,829.5L851.7,829.5z"/>
		</g>
		<g>
			<path class="st2" d="M597.7,819c-3.3,0-6-2.7-6-6v-29c0-3.3,2.7-6,6-6h17.5c2.6,0,5-1.6,6-4l113.6-270.9
				c-5.8-3.3-7.6-15.3-8-25.6c0-0.3-0.2-0.5-0.5-0.5h-35.8c-1.2,0-2.3-0.6-2.9-1.7c-1-1.8-1.3-4.8,6.7-20c4-7.6,8.3-14.9,8.4-15
				c2.4-3.8,4.8-4,8.1-4.3h0.3c0.1,0,0.1,0,0.2,0h72c9.2,0,17.8-5.5,26.2-16.8c2.1-2.8,2.9-6.7,3.6-10.2c0.9-4.4,1.8-9,6.1-9
				c1.2,0,3.1,0.5,4.9,2.8c4.5,6,7,22,3.3,35.4c-3.3,11.9-11,21-24.9,29.4c-12.4,7.5-39.6,8.6-43.6,8.7c-0.1,0.1-0.2,0.2-0.2,0.4
				c-0.4,10.6-2.1,22.9-8,26.3l122.4,271.1c1,2.3,3.4,3.8,5.9,3.8h17.7c3.3,0,6,2.7,6,6v29c0,3.3-2.7,6-6,6L597.7,819z M735.7,532
				c-18.6,44.9-85.9,207.6-101.2,244.6c-0.2,0.4,0,0.8,0.1,0.9c0.1,0.2,0.4,0.4,0.8,0.4c12.8,0,30.1,0,46.9,0c22.6,0,44.1,0,52.4,0
				c0.5,0,1-0.4,1-1v-48.3C735.7,665.2,735.7,566.6,735.7,532z M749.9,529.7c0.5,38.9,0.2,132.6,0,196.6
				c-0.1,21.9-0.1,40.1-0.1,50.7c0,0.5,0.4,1,1,1h108.1c0.5,0,0.7-0.3,0.8-0.5s0.3-0.5,0.1-0.9C836.9,723.9,768.5,568.2,749.9,529.7
				z M742.7,477c-0.6,0.3-2,2.5-2,6.5c0,4.1,1.5,6.3,2,6.5c0.5-0.2,2-2.4,2-6.5C744.7,479.5,743.3,477.3,742.7,477z"/>
			<path class="st3" d="M819.2,402.5c5.4,0,10.1,19.5,5.7,35c-3.3,11.7-11,20.2-23.7,28c-12.7,7.7-42.9,8.4-42.9,8.4
				c-1.3,0.4-2.1,1.5-2.2,2.8c-0.2,6.4-1.5,24.8-9,24.8l123.6,273.7c1.5,3.2,4.7,5.3,8.2,5.3h17.7c1.9,0,3.5,1.6,3.5,3.5v29
				c0,1.9-1.6,3.5-3.5,3.5h-299c-1.9,0-3.5-1.6-3.5-3.5v-29c0-1.9,1.6-3.5,3.5-3.5h17.5c3.6,0,6.9-2.2,8.3-5.5l114.7-273.5
				c-7.2,0-8.6-17.2-8.9-24.1c-0.1-1.6-1.4-2.9-3-2.9h-35.8c-5.3,0,14.3-32.9,14.3-32.9c1.8-2.8,3.1-2.8,6.5-3.1h72
				c12.1,0,21.2-8.4,28.3-17.9C816.5,413.8,814.9,402.5,819.2,402.5 M742.7,492.5c2.5,0,4.5-4,4.5-9s-2-9-4.5-9s-4.5,4-4.5,9
				S740.2,492.5,742.7,492.5 M750.7,780.5h108.2c2.5,0,4.2-2.6,3.2-4.9c-20.9-48.1-111.9-255.5-114.9-256.1c1,38.5,0,213.1,0,257.5
				C747.2,778.9,748.8,780.5,750.7,780.5 M681.9,780.5c22.7,0,44.6,0,52.8,0c1.9,0,3.5-1.6,3.5-3.5c0-30.8,0-254.8,0-257.5
				c-1.5,3.3-91.4,220.8-106,256.2c-1,2.3,0.7,4.8,3.2,4.8C648.1,780.5,665.2,780.5,681.9,780.5 M819.2,397.5c-1.4,0-5,0.5-7,5
				c-0.7,1.7-1.2,3.8-1.6,5.9c-0.7,3.2-1.4,6.8-3.2,9.2c-7.9,10.7-15.9,15.8-24.2,15.8h-72c-0.1,0-0.3,0-0.4,0h-0.3
				c-3.4,0.3-6.9,0.6-10,5.4c0,0,0,0.1-0.1,0.1c-0.2,0.3-4.4,7.4-8.4,15.1c-7.9,15-8.4,19.3-6.6,22.4c1,1.8,2.9,2.9,5.1,2.9h33.9
				c0.7,12.5,3.2,20.6,7.4,24.5L618.9,773c-0.6,1.5-2.1,2.5-3.7,2.5h-17.5c-4.7,0-8.5,3.8-8.5,8.5v29c0,4.7,3.8,8.5,8.5,8.5h299
				c4.7,0,8.5-3.8,8.5-8.5v-29c0-4.7-3.8-8.5-8.5-8.5H879c-1.6,0-3-0.9-3.6-2.3L753.8,503.9c2.4-2.3,4.2-6,5.5-11.2
				c1.2-4.9,1.6-10.2,1.8-13.9c7.9-0.4,31.2-2,42.7-9c14.5-8.8,22.5-18.3,26-30.9c3.9-14.1,1.2-31.1-3.7-37.6
				C823.7,398.2,821,397.5,819.2,397.5L819.2,397.5z M752.2,775.5c0-10.8,0.1-28.7,0.1-49.2c0.2-58.4,0.5-141.6,0.2-185.2
				c23.1,49.6,82.2,184.1,104.1,234.4H752.2L752.2,775.5z M637.7,775.5c16-38.7,72.7-175.9,95.5-231c0,41.9,0,127.2,0,184.2v46.8
				c-9.2,0-29.9,0-51.3,0C666.2,775.5,650.1,775.5,637.7,775.5L637.7,775.5z"/>
		</g>
		<g>
			<path class="st2" d="M678.7,909c-3.3,0-6-2.7-6-6v-20c0-3.3,2.7-6,6-6h137c3.3,0,6,2.7,6,6v20c0,3.3-2.7,6-6,6H678.7z"/>
			<path class="st3" d="M815.7,879.5c1.9,0,3.5,1.6,3.5,3.5v20c0,1.9-1.6,3.5-3.5,3.5h-137c-1.9,0-3.5-1.6-3.5-3.5v-20
				c0-1.9,1.6-3.5,3.5-3.5H815.7 M815.7,874.5h-137c-4.7,0-8.5,3.8-8.5,8.5v20c0,4.7,3.8,8.5,8.5,8.5h137c4.7,0,8.5-3.8,8.5-8.5v-20
				C824.2,878.3,820.4,874.5,815.7,874.5L815.7,874.5z"/>
		</g>
	</g>
</g>
<g>
	<g>
		<polygon class="st4" points="341.5,301 368.5,301 368.5,346 350.5,328 305.5,328 260.5,301 278.5,283 		"/>
		<polygon class="st4" points="458.5,301 521.5,283 539.5,301 494.5,328 449.5,328 431.5,346 431.5,301 		"/>
		<path class="st4" d="M696.4,210.7L517.2,68.8c-8.9-7-19.9-10.8-31.2-10.8H305.6c-11.7,0-23,4.1-32,11.5L102.7,210.7
			c-13.8,11.4-20.4,29.2-17.6,46.8L125.8,508l6.5,40c0.3,1.7,0.6,3.3,1.1,5c2,7.3,5.5,14,10.4,19.7l130.4,151.8
			c9.5,11.1,23.5,17.5,38.1,17.5h170.4c14.3,0,28-6.1,37.5-16.8l135.6-152.3c5.1-5.7,8.8-12.6,10.9-19.9c0.5-1.8,0.9-3.6,1.2-5.4
			l6.4-39.6l40.5-249.9C717.7,240.1,710.7,222,696.4,210.7z M445,589l-9-9l-36,36l-36-36l-9,9l-9-36l54-27l54,27L445,589z M526,445
			v63l-36,36l-72-36v-18l54-36l-9-18l-63-18l-63,18l-9,18l54,36v18l-72,36l-36-36v-63l-63-144l72-108l117,9l117-9l72,108L526,445z"
			/>
		<polygon class="st4" points="341.5,301 368.5,301 368.5,346 350.5,328 305.5,328 260.5,301 278.5,283 		"/>
		<polygon class="st4" points="458.5,301 521.5,283 539.5,301 494.5,328 449.5,328 431.5,346 431.5,301 		"/>
		<path class="st4" d="M696.4,210.7L517.2,68.8c-8.9-7-19.9-10.8-31.2-10.8H305.6c-11.7,0-23,4.1-32,11.5L102.7,210.7
			c-13.8,11.4-20.4,29.2-17.6,46.8L125.8,508l6.5,40c0.3,1.7,0.6,3.3,1.1,5c2,7.3,5.5,14,10.4,19.7l130.4,151.8
			c9.5,11.1,23.5,17.5,38.1,17.5h170.4c14.3,0,28-6.1,37.5-16.8l135.6-152.3c5.1-5.7,8.8-12.6,10.9-19.9c0.5-1.8,0.9-3.6,1.2-5.4
			l6.4-39.6l40.5-249.9C717.7,240.1,710.7,222,696.4,210.7z M445,589l-9-9l-36,36l-36-36l-9,9l-9-36l54-27l54,27L445,589z M526,445
			v63l-36,36l-72-36v-18l54-36l-9-18l-63-18l-63,18l-9,18l54,36v18l-72,36l-36-36v-63l-63-144l72-108l117,9l117-9l72,108L526,445z"
			/>
		<g>
			<g>
				<polygon class="st4" points="341.5,301 368.5,301 368.5,346 350.5,328 305.5,328 260.5,301 278.5,283 				"/>
				<polygon class="st4" points="539.5,301 494.5,328 449.5,328 431.5,346 431.5,301 458.5,301 521.5,283 				"/>
				<g>
					<polygon class="st4" points="368.5,301 368.5,346 350.5,328 305.5,328 260.5,301 278.5,283 341.5,301 					"/>
					<polygon class="st4" points="539.5,301 494.5,328 449.5,328 431.5,346 431.5,301 458.5,301 521.5,283 					"/>
				</g>
			</g>
		</g>
	</g>
</g>
</svg>
