<?xml version="1.0" encoding="utf-8"?>
<!-- Generator: Adobe Illustrator 24.2.3, SVG Export Plug-In . SVG Version: 6.00 Build 0)  -->
<svg version="1.1" id="Layer_1" xmlns="http://www.w3.org/2000/svg" xmlns:xlink="http://www.w3.org/1999/xlink" x="0px" y="0px"
	 viewBox="0 0 1000 1000" style="enable-background:new 0 0 1000 1000;" xml:space="preserve">
<style type="text/css">
	.st0{fill:#F2B120;}
	.st1{fill:#6D6875;}
</style>
<g>
	<polygon class="st0" points="414.6,355.3 454,355.3 454,421.1 427.7,394.7 361.9,394.7 296.1,355.3 322.5,328.9 	"/>
	<polygon class="st0" points="585.6,355.3 677.7,328.9 704,355.3 638.2,394.7 572.5,394.7 546.1,421.1 546.1,355.3 	"/>
	<path class="st0" d="M933.4,223.2L671.4,15.9C658.5,5.6,642.4,0,625.8,0H362c-17.1,0-33.6,6-46.8,16.8L65.4,223.2
		c-20.1,16.6-29.9,42.6-25.7,68.4l59.4,366.3l9.5,58.5c0.4,2.5,0.9,4.9,1.5,7.3c2.9,10.6,8.1,20.5,15.2,28.8l190.7,221.9
		c14,16.2,34.3,25.6,55.7,25.6h249.2c21,0,40.9-8.9,54.8-24.6L874,752.8c7.5-8.4,12.9-18.4,15.9-29.1c0.7-2.6,1.3-5.3,1.8-8
		l9.4-57.8l59.2-365.3C964.5,266.3,954.3,239.8,933.4,223.2z M565.9,776.3l-13.2-13.2l-52.6,52.6l-52.6-52.6l-13.2,13.2l-13.2-52.6
		l78.9-39.5l78.9,39.5L565.9,776.3z M684.3,565.8v92.1l-52.6,52.6l-105.3-52.6v-26.3l78.9-52.6l-13.2-26.3l-92.1-26.3L408,552.6
		l-13.2,26.3l78.9,52.6v26.3l-105.3,52.6l-52.6-52.6v-92.1l-92.1-210.5L329,197.4l171.1,13.2l171.1-13.2l105.3,157.9L684.3,565.8z"
		/>
	<polygon class="st0" points="414.6,355.3 454,355.3 454,421.1 427.7,394.7 361.9,394.7 296.1,355.3 322.5,328.9 	"/>
	<polygon class="st0" points="585.6,355.3 677.7,328.9 704,355.3 638.2,394.7 572.5,394.7 546.1,421.1 546.1,355.3 	"/>
	<path class="st1" d="M933.4,223.2L671.4,15.9C658.5,5.6,642.4,0,625.8,0H362c-17.1,0-33.6,6-46.8,16.8L65.4,223.2
		c-20.1,16.6-29.9,42.6-25.7,68.4l59.4,366.3l9.5,58.5c0.4,2.5,0.9,4.9,1.5,7.3c2.9,10.6,8.1,20.5,15.2,28.8l190.7,221.9
		c14,16.2,34.3,25.6,55.7,25.6h249.2c21,0,40.9-8.9,54.8-24.6L874,752.8c7.5-8.4,12.9-18.4,15.9-29.1c0.7-2.6,1.3-5.3,1.8-8
		l9.4-57.8l59.2-365.3C964.5,266.3,954.3,239.8,933.4,223.2z M565.9,776.3l-13.2-13.2l-52.6,52.6l-52.6-52.6l-13.2,13.2l-13.2-52.6
		l78.9-39.5l78.9,39.5L565.9,776.3z M684.3,565.8v92.1l-52.6,52.6l-105.3-52.6v-26.3l78.9-52.6l-13.2-26.3l-92.1-26.3L408,552.6
		l-13.2,26.3l78.9,52.6v26.3l-105.3,52.6l-52.6-52.6v-92.1l-92.1-210.5L329,197.4l171.1,13.2l171.1-13.2l105.3,157.9L684.3,565.8z"
		/>
	<g>
		<g>
			<polygon class="st1" points="414.6,355.3 454,355.3 454,421.1 427.7,394.7 361.9,394.7 296.1,355.3 322.5,328.9 			"/>
			<polygon class="st1" points="704,355.3 638.2,394.7 572.5,394.7 546.1,421.1 546.1,355.3 585.6,355.3 677.7,328.9 			"/>
			<g>
				<polygon class="st1" points="454,355.3 454,421.1 427.7,394.7 361.9,394.7 296.1,355.3 322.5,328.9 414.6,355.3 				"/>
				<polygon class="st1" points="704,355.3 638.2,394.7 572.5,394.7 546.1,421.1 546.1,355.3 585.6,355.3 677.7,328.9 				"/>
			</g>
		</g>
	</g>
</g>
</svg>
