<?xml version="1.0" encoding="utf-8"?>
<!-- Generator: Adobe Illustrator 24.2.3, SVG Export Plug-In . SVG Version: 6.00 Build 0)  -->
<svg version="1.1" id="Layer_1" xmlns="http://www.w3.org/2000/svg" xmlns:xlink="http://www.w3.org/1999/xlink" x="0px" y="0px"
	 viewBox="0 0 1107 864" style="enable-background:new 0 0 1107 864;" xml:space="preserve">
<style type="text/css">
	.st0{display:none;opacity:0.38;}
	.st1{display:inline;}
	.st2{fill:#2B2925;}
	.st3{fill:#FFFFFF;}
	.st4{fill:#6D6875;}
</style>
<g class="st0">
	<g class="st1">
		<g>
			<path class="st2" d="M869.3,287.2c-0.3,0-0.6,0-0.8-0.1c-9-3.2-24.9-20.5-45.1-42.4c-22.3-24.2-47.7-51.6-66.8-62.8
				c-41.9-24.4-93.6-29.6-129.6-29.6c-24.1,0-42.9,2.2-49.9,3.1l-1.1,0.1c-0.1,0-0.2,0-0.3,0c-0.4,0-0.7-0.1-1.1-0.2
				c-3.7-1.5-3.7-4.8-3.8-6.5c0-0.6,0-1.1-0.1-1.5c-0.1-0.5-0.1-1.1,0.1-1.6l3.2-10.1c0.1-0.2,0.1-0.4,0.2-0.6
				c14.2-25.3,36.8-41.8,58.7-56.6c5-3.4,10.3-6.6,15.4-9.7c14.9-8.9,28.9-17.4,39-31.4c1.7-2.3,3.6-2.8,5-2.8
				c1.9,0,3.7,0.9,5.2,1.7c38.1,20,68.6,42.1,93.3,67.6c27.8,28.7,47.6,60.9,60.5,98.5c2.1,6.1,4.4,12.2,6.6,18.1
				c6.8,18.3,13.9,37.2,16,57.4c0,0.3,0.2,0.8,0.4,1.3c0.6,1.6,1.3,3.7,0.1,5.7c-1.4,2.1-4.1,2.3-5.1,2.3
				C869.4,287.2,869.4,287.2,869.3,287.2z"/>
			<path class="st3" d="M692.5,37c1.3,0,2.7,0.7,4,1.4c70.3,36.9,126,87.2,152.6,164.8c8.5,24.7,19.7,48.5,22.5,74.9
				c0.2,2.4,3.5,6.2-2.3,6.5c-18.2-6.5-75.4-83.9-111.5-105c-41.9-24.5-93.1-29.9-130.9-29.9c-25.6,0-45.1,2.5-51.3,3.2l0,0
				c-3.3-1.2-2-4.1-2.5-6.4l0,0l3.4-10.4l0,0c13.7-24.4,35.4-40.6,57.9-55.8c19.1-12.9,41-22.1,55.1-41.6
				C690.4,37.5,691.4,37,692.5,37 M692.5,32c-1.9,0-4.7,0.7-7,3.8c-9.9,13.6-23.7,21.9-38.3,30.7c-5.1,3.1-10.5,6.3-15.6,9.7
				c-22.2,14.9-45.1,31.7-59.5,57.5c-0.2,0.4-0.4,0.8-0.5,1.2l-3.2,9.9c-0.4,0.9-0.4,2-0.2,3c0,0.1,0,0.6,0,0.9
				c0,1.9,0.1,6.8,5.3,8.8c0.6,0.3,1.3,0.4,2,0.4c0.2,0,0.4,0,0.6,0l1.1-0.1c7-0.8,25.7-3.1,49.6-3.1c35.7,0,87,5.1,128.3,29.2
				c18.8,11,44,38.3,66.3,62.4c22.7,24.6,37.1,39.8,46.1,43.1c0.5,0.2,1.1,0.3,1.7,0.3c0.1,0,0.2,0,0.3,0c3.3-0.2,5.6-1.4,7-3.5
				c2-3,0.8-6.2,0.2-7.9c-0.1-0.3-0.2-0.6-0.3-0.8c-2.1-20.5-9.2-39.5-16.1-57.9c-2.2-5.9-4.5-12-6.6-18c-13-38-33-70.5-61.1-99.5
				c-24.9-25.7-55.6-48-94-68.1C697.1,33.2,695,32,692.5,32L692.5,32z"/>
		</g>
		<g>
			<path class="st2" d="M221.8,287c-2.1-0.2-3.6-0.9-4.6-2.2c-1.4-1.9-0.9-4.3-0.5-5.9c0.1-0.3,0.1-0.5,0.2-0.8
				c10.8-55.5,30.3-103.5,57.9-142.6c29.4-41.7,69.2-75,118.2-98.9c2-1,3.7-1.6,5.5-1.6c2.4,0,4.4,1.2,6.2,3.5
				c9.7,12.9,23.5,21.3,36.8,29.4c2.3,1.4,4.7,2.9,7,4.3c18,11.2,36.7,23.9,52.1,40.4l0.6,0.7c5.5,5.9,18.4,19.6,18.3,40.1
				c0,2.3-1.6,3.9-3.9,3.9c-2,0-4.5-1.2-7.2-2.5c-1.3-0.6-2.7-1.3-3.6-1.6c-12.8-4.1-27.8-6.1-44.8-6.1
				c-49.9,0-104.8,17.8-124.8,34.4c-10.6,8.9-27.1,25.7-44.6,43.6c-27.5,28.1-56,57.2-68,61.7C222.3,286.9,222,287,221.8,287
				C221.9,287,221.8,287,221.8,287z"/>
			<path class="st3" d="M398.5,37.4c1.4,0,2.8,0.7,4.2,2.5c11.7,15.5,28.5,24.4,44.5,34.3c18.6,11.6,36.6,23.8,51.6,40
				c4.9,5.3,18.3,18.7,18.3,39.1c0,1-0.5,1.4-1.4,1.4c-2.4,0-7.2-3-10-3.9c-13.7-4.4-29.4-6.2-45.6-6.2c-50.1,0-105.7,17.8-126.4,35
				c-27.3,22.7-93,97.8-111.9,104.8c-4.4-0.4-3.1-3.5-2.7-5.9C240,171.3,293.4,87.9,393.9,38.7C395.7,38,397.2,37.4,398.5,37.4
				 M398.5,32.4L398.5,32.4c-2.4,0-4.6,0.9-6.6,1.9c-25,12.2-47.9,27-67.8,43.8c-19.4,16.4-36.7,35.2-51.4,55.9
				c-27.8,39.4-47.5,87.7-58.4,143.6c0,0.2-0.1,0.4-0.1,0.7c-0.4,1.9-1.2,5.1,0.9,8c1.4,1.9,3.5,3,6.4,3.2c0.1,0,0.3,0,0.4,0
				c0.6,0,1.2-0.1,1.7-0.3c11.6-4.3,34.8-27.5,68.9-62.3c17.4-17.8,33.9-34.7,44.5-43.4c19.6-16.3,73.8-33.8,123.2-33.8
				c16.8,0,31.6,2,44.1,6c0.7,0.2,2.1,0.9,3.2,1.4c2.9,1.4,5.7,2.7,8.3,2.7c3.7,0,6.4-2.7,6.4-6.4c0-21.6-13.3-35.8-19-41.9
				l-0.6-0.7c-15.7-16.7-34.7-29.4-52.8-40.7c-2.3-1.5-4.7-2.9-7-4.3c-13.7-8.4-26.7-16.3-36.1-28.8C404.4,34,401.7,32.4,398.5,32.4
				L398.5,32.4z"/>
		</g>
		<g>
			<path class="st2" d="M779.2,567.8c-0.3,0-0.6,0-0.9-0.2c-1.1-0.4-1.8-1.5-1.6-2.6c3.7-31.8,2.4-60.5-4.1-87.7
				c-5-12.1-39.9-59.2-56.7-81.9c-10.7-14.5-11.5-15.6-11.7-16.3c-7.6-15.5,0.3-27.4,8-38.9l0.2-0.2c0.8-1.5,1.6-3,2.4-4.4
				c5.8-10.7,12.4-22.9,14.6-58.5c0.7-21-24.3-64.7-35-83.3c-3.1-5.5-4.5-7.9-5-9.1c-0.3-0.9-0.2-1.9,0.5-2.6
				c0.5-0.5,1.2-0.8,1.9-0.8c0.2,0,0.4,0,0.6,0.1c37.5,9.7,82.9,50.2,104.7,69.7c2.9,2.6,5.4,4.8,7.4,6.5
				c22.7,19.6,43,33.6,68.7,38.1c0.5,0.1,1,0.3,1.3,0.7c0.9,0.8,1.1,1,0.8,15.8c-0.1,7.5-0.5,19.4-1.4,33.3
				c-1.6,23.6-5,56-12.4,76.1h-0.1c-2,5.8-15.8,38.3-15.9,38.6C834,487,826,503.4,821.6,509l0,0c-0.5,0.9-1.6,2.4-3.7,5.5
				c-9.5,13.6-34.6,49.8-36.3,52.4C780.8,567.4,780,567.8,779.2,567.8z"/>
			<path class="st3" d="M691.6,183.6c41.9,10.8,94.1,61.1,111.1,75.7c20.6,17.8,42.2,33.8,69.9,38.7c0.5,0.5,0.4,84.5-13.6,122.6
				c0,0-29.4,73.6-39.5,86.7c0,0-38.1,54.8-40.2,58c3.5-30,2.8-59.5-4.2-88.7l0,0c-6.5-16.4-67.9-96.6-68.5-98.4l0,0
				c-7.3-14.5,0.4-25.8,8-37.1l0,0c6.5-12.8,14.7-23,17.3-64.1C732.7,250.1,693.6,188.8,691.6,183.6 M788.4,503.4L788.4,503.4
				L788.4,503.4L788.4,503.4 M691.6,178.6c-1.4,0-2.8,0.6-3.7,1.7c-1.2,1.4-1.6,3.4-0.9,5.1c0.5,1.3,1.9,3.7,5.1,9.4
				c9.7,16.9,35.3,61.6,34.7,82c-2.2,35-8.3,46.4-14.3,57.4c-0.8,1.4-1.5,2.9-2.3,4.4l-0.1,0.1c-7.7,11.5-16.4,24.6-8.2,41.3
				c0.4,1,1.2,2.2,12.1,16.9c16.7,22.5,51.2,69.1,56.3,81.2c6.4,26.9,7.7,55.2,4,86.7c-0.3,2.3,1.1,4.5,3.3,5.3
				c0.6,0.2,1.1,0.3,1.7,0.3c1.6,0,3.2-0.8,4.2-2.3c1.7-2.6,27.9-40.3,36.5-52.6l2.7-3.9c0.3-0.5,0.6-0.9,0.8-1.2l0,0
				c4.4-5.8,12.6-22.3,24.2-49.3c4.5-10.4,8.6-20.3,11.2-26.8c3-7.4,4.3-10.4,4.8-11.9l0,0c7.5-20.4,11-53,12.5-76.8
				c0.9-14,1.3-25.9,1.4-33.4c0.1-3.9,0.1-7.5,0.1-10.3c0-4.6,0-5.8-1.6-7.4c-0.7-0.7-1.6-1.2-2.6-1.4
				c-25.1-4.4-45.1-18.2-67.5-37.5c-2-1.7-4.5-3.9-7.3-6.5c-21.9-19.6-67.6-60.4-105.7-70.3C692.4,178.7,692,178.6,691.6,178.6
				L691.6,178.6z"/>
		</g>
		<g>
			<path class="st2" d="M545.6,127.4c-3.2,0-5.2-2.9-6.4-5.1c-9.8-17.2-35.8-39.7-55.3-52.1c-12.8-8.1-32.4-18.1-46.7-25.4
				c-9-4.5-16-8.1-18.9-10c-2.5-1.6-3.6-3.4-3.5-5.4c0.2-3,3.3-4.4,5-5.1l0.2-0.1C462.8,4.9,504.2-4.5,546.6-4.5
				c10.9,0,22.1,0.7,33,2c33.7,4,79,20.3,94.7,27.7c2.4,1.1,5.5,3,5.5,6c0,3.3-3.5,5.1-6.4,6.5c-0.3,0.2-0.6,0.3-0.9,0.5
				c-7.7,4-16.4,8.3-24.7,12.4c-11.4,5.6-23.2,11.5-33.5,17c-27.6,14.9-47.9,32.8-62.1,54.8C550.8,124.6,548.6,127.4,545.6,127.4z"
				/>
			<path class="st3" d="M546.6-2c10.8,0,21.8,0.6,32.8,1.9c32.9,3.9,77.8,19.9,93.9,27.5c8.4,4,1.8,6.6-1.9,8.5
				C653.3,45.3,631,55.7,613,65.4c-25.3,13.6-47.3,31.2-63,55.7c-1.7,2.6-3.1,3.8-4.5,3.8s-2.8-1.3-4.3-3.9
				c-9.6-16.9-35.4-39.8-56.2-53c-20.8-13.2-58.3-30.6-65.6-35.3c-5.2-3.4-0.4-5.4,1.4-6.2C461.3,8.3,503.1-2,546.6-2 M546.6-7
				C503.8-7,462,2.5,418.8,22l-0.2,0.1c-1.8,0.8-6.1,2.7-6.5,7.2c-0.2,2,0.5,5,4.6,7.6c0,0,0,0,0.1,0c3,1.9,9.7,5.3,19.1,10.1
				c14.3,7.2,33.8,17.2,46.5,25.2c19.5,12.4,45.3,34.9,54.5,51.2c0.9,1.6,3.6,6.4,8.6,6.4c4.3,0,7-3.5,8.7-6.1
				c13.9-21.7,33.9-39.3,61.2-54c10.3-5.5,22.1-11.4,33.5-17c8.4-4.1,17-8.4,24.8-12.4c0.3-0.2,0.6-0.3,0.9-0.5
				c3.1-1.6,7.8-3.9,7.8-8.8c-0.1-4.9-5.3-7.4-7-8.2c-15.8-7.5-61.5-23.9-95.5-28C568.9-6.4,557.7-7,546.6-7L546.6-7z"/>
		</g>
		<g>
			<path class="st2" d="M504,299.8c-4.6,0-11.9-8.7-12.5-12.9c-0.9-5.4-3-7.2-8.2-7.2c-0.5,0-1,0-1.5,0c-3.5,0.2-7.1,0.3-10.7,0.3
				c-5.3,0-10.8-0.2-16.3-0.7c-8.4-0.7-22.1-12-35.4-23.6c-3-2.6-6-5.2-6.9-5.7c-1.3-0.4-2-0.4-3.4-0.5c-1,0-2.2,0-3.9-0.2
				c-1.1-0.1-2-0.9-2.2-2s0.3-2.1,1.2-2.7c11.6-6.7,23.1-10,35.2-10c9.3,0,18.8,1.9,29,5.9c1.8,0.7,3.8,1.6,6.2,2.8
				c6.5,3,15.3,7.2,23.9,7.8c0.3,0,0.6,0,1,0c2.7,0,6-0.5,8.6-0.9c1.5-0.2,2.8-0.4,3.8-0.5c0.1,0,0.1,0,0.2,0c1.2,0,2.2,0.8,2.5,2
				c0,0,0.8,3.9,1.5,7.3c0.9,4.3-1.4,9.1-3.2,13c-0.4,0.8-0.7,1.5-1,2.2v0.1c-1.9,3.9-2.2,8.1-2.6,12.6c-0.3,3.2-0.5,6.5-1.4,9.8
				C507.1,298.7,505.7,299.8,504,299.8z"/>
			<path class="st3" d="M439.2,237.4c9.4,0,18.7,2.1,28.1,5.8c6.7,2.6,18.7,9.9,30.8,10.7c0.4,0,0.8,0,1.2,0c4.5,0,9.9-1.2,12.6-1.4
				c0,0,0.8,3.9,1.5,7.3c0.9,4.4-2.6,10.1-4.1,13.6c-3.5,7.2-2.1,15.3-4.1,22.9c-0.2,0.7-0.6,1-1.2,1c-2.9,0-9.5-7.2-10.1-10.8
				c-1.1-6.9-4.5-9.3-10.7-9.3c-0.5,0-1.1,0-1.7,0.1c-3.5,0.2-7,0.3-10.6,0.3c-5.4,0-10.8-0.2-16.1-0.7c-11.7-1-38.7-28.2-41.6-29.1
				s-3.8-0.4-7.9-0.8C416.9,240.3,428.1,237.4,439.2,237.4 M439.2,232.4c-12.5,0-24.4,3.4-36.4,10.3c-1.9,1.1-2.8,3.3-2.4,5.4
				c0.5,2.1,2.2,3.7,4.4,3.9c1.8,0.2,3.1,0.2,4.1,0.2c1.1,0,1.6,0,2.4,0.2c1,0.7,3.8,3.2,6.3,5.3c14.2,12.3,27.7,23.4,36.8,24.2
				c5.6,0.5,11.2,0.7,16.6,0.7c3.7,0,7.3-0.1,10.9-0.3c0.5,0,1,0,1.4,0c3.8,0,5.1,0.7,5.8,5.1c0.9,5.2,8.9,14.9,15,14.9
				c2.9,0,5.3-1.9,6-4.7c0.9-3.5,1.2-6.9,1.4-10.2c0.3-4.2,0.6-8.3,2.3-11.7c0-0.1,0.1-0.1,0.1-0.2c0.3-0.6,0.6-1.3,1-2.1
				c1.9-4,4.5-9.4,3.4-14.5c-0.7-3.4-1.5-7.2-1.5-7.3c-0.5-2.4-2.5-4-4.9-4c-0.1,0-0.3,0-0.4,0c-1.1,0.1-2.4,0.3-4,0.5
				c-2.5,0.4-5.7,0.9-8.2,0.9c-0.3,0-0.6,0-0.9,0c-8.1-0.6-16.3-4.5-22.9-7.6c-2.4-1.1-4.5-2.1-6.3-2.8
				C458.6,234.4,448.8,232.4,439.2,232.4L439.2,232.4z"/>
		</g>
		<g>
			<path class="st2" d="M587.2,299.8c-1.8,0-3.2-1.1-3.6-2.9c-0.9-3.3-1.1-6.6-1.4-9.8c-0.4-4.5-0.7-8.7-2.6-12.6v-0.1
				c-0.3-0.7-0.6-1.4-1-2.2c-1.8-3.8-4.1-8.6-3.2-13c0.7-3.4,1.5-7.3,1.5-7.3c0.2-1.2,1.3-2,2.5-2c0.1,0,0.1,0,0.2,0
				c1,0.1,2.3,0.3,3.8,0.5c2.6,0.4,5.9,0.9,8.6,0.9c0.4,0,0.7,0,1,0c8.5-0.6,17.4-4.8,23.8-7.8c2.4-1.1,4.4-2.1,6.2-2.8
				c10.3-4,19.7-5.9,29-5.9c12.1,0,23.6,3.3,35.2,10c0.9,0.5,1.4,1.6,1.2,2.7s-1.1,1.9-2.2,2c-1.7,0.2-2.9,0.2-3.9,0.2
				c-1.4,0-2.1,0-3.4,0.5c-0.9,0.5-3.9,3.1-6.9,5.7c-13.3,11.5-27,22.9-35.4,23.6c-5.6,0.5-11.1,0.7-16.3,0.7
				c-3.6,0-7.2-0.1-10.7-0.3c-0.5,0-1,0-1.5,0c-5.3,0-7.4,1.8-8.2,7.2C599,291.1,591.8,299.8,587.2,299.8L587.2,299.8z"/>
			<path class="st3" d="M651.9,237.4c11.1,0,22.3,2.9,33.9,9.6c-4.1,0.4-5.1-0.1-7.9,0.8c-2.8,0.9-29.9,28.2-41.6,29.1
				c-5.4,0.4-10.8,0.7-16.1,0.7c-3.5,0-7-0.1-10.6-0.3c-0.6,0-1.1-0.1-1.7-0.1c-6.2,0-9.6,2.4-10.7,9.3c-0.6,3.6-7.2,10.8-10.1,10.8
				c-0.6,0-1-0.3-1.2-1c-2-7.5-0.6-15.6-4.1-22.9c-1.5-3.5-5-9.3-4.1-13.6c0.7-3.4,1.5-7.3,1.5-7.3c2.7,0.2,8.2,1.4,12.6,1.4
				c0.4,0,0.8,0,1.2,0c12.1-0.8,24.1-8.1,30.8-10.7C633.2,239.5,642.5,237.4,651.9,237.4 M651.9,232.4c-9.6,0-19.4,2-29.9,6.1
				c-1.9,0.7-3.9,1.7-6.3,2.8c-6.6,3.1-14.9,7-22.9,7.6c-0.3,0-0.6,0-0.9,0c-2.5,0-5.7-0.5-8.2-0.9c-1.5-0.2-2.9-0.4-4-0.5
				c-0.1,0-0.3,0-0.4,0c-2.4,0-4.4,1.7-4.9,4c0,0-0.8,3.9-1.5,7.3c-1.1,5.2,1.5,10.6,3.4,14.5c0.4,0.8,0.7,1.5,1,2.1
				c0,0.1,0.1,0.1,0.1,0.2c1.7,3.4,2,7.5,2.3,11.7c0.3,3.3,0.5,6.8,1.4,10.2c0.8,2.9,3.1,4.7,6,4.7c6.1,0,14.2-9.7,15-15
				c0.7-4.4,1.9-5.1,5.8-5.1c0.4,0,0.9,0,1.4,0c3.5,0.2,7.2,0.3,10.9,0.3c5.4,0,10.9-0.2,16.6-0.7c9.2-0.7,22.7-11.9,36.8-24.2
				c2.5-2.1,5.3-4.6,6.3-5.3c0.8-0.2,1.2-0.2,2.4-0.2c1,0,2.3,0,4.1-0.2c2.2-0.2,3.9-1.8,4.4-3.9s-0.5-4.3-2.4-5.4
				C676.4,235.8,664.5,232.4,651.9,232.4L651.9,232.4z"/>
		</g>
		<g>
			<path class="st2" d="M443.7,928.8c-0.5,0-0.9-0.1-1.3-0.3s-0.8-0.4-1.1-0.7c-1-0.9-1.2-2.5-0.3-3.5c0.5-0.6,1.2-0.9,1.9-0.9
				c0.5,0,1,0.1,1.4,0.4c1.2,0.2,2.1,1.3,2,2.6s-1.2,2.4-2.5,2.4H443.7z M578.4,872.4c-6.1,0-6.2-5.5-6.3-8.5c0-2.3,0.1-4.9,1.9-6.7
				c1.1-1.1,2.7-1.7,4.7-1.7c0.5,0,1,0,1.6,0.1c5.7,0.7,11.5,1.7,17.2,2.6c5.5,0.9,11.2,1.8,16.7,2.5c1.2,0.2,2.1,1.2,2.2,2.4
				c0.1,1.2-0.8,2.3-2,2.5c-0.2,0-22.6,4.9-33.8,6.6C579.8,872.4,579,872.4,578.4,872.4L578.4,872.4z M511.3,872.4
				c-0.7,0-1.4-0.1-2.2-0.2c-11.2-1.7-33.6-6.5-33.8-6.6c-1.2-0.3-2-1.3-2-2.5c0.1-1.2,1-2.2,2.2-2.4c5.6-0.7,11.2-1.6,16.7-2.5
				c5.6-0.9,11.4-1.9,17.2-2.6c0.6-0.1,1.1-0.1,1.6-0.1c2,0,3.6,0.6,4.7,1.7c1.7,1.8,1.9,4.4,1.9,6.7
				C517.6,866.9,517.5,872.4,511.3,872.4L511.3,872.4z M574.3,845c-3.6,0-5.3-3.5-6.4-5.7c-1.1-2.2-2-4.8-1-7.2
				c0.7-1.8,2.4-3,4.9-3.8c5.5-1.8,11.2-3.3,16.6-4.9c5.4-1.5,10.9-3.1,16.3-4.8c0.3-0.1,0.5-0.1,0.8-0.1c0.9,0,1.8,0.5,2.2,1.4
				c0.6,1.1,0.3,2.4-0.7,3.1c-0.2,0.1-18.5,14-27.9,20.2C577.2,844.5,575.7,845,574.3,845L574.3,845z M515.5,845
				c-1.4,0-2.9-0.6-4.8-1.8c-9.4-6.2-27.7-20.1-27.9-20.2c-1-0.7-1.3-2.1-0.7-3.1c0.4-0.8,1.3-1.4,2.2-1.4c0.3,0,0.5,0,0.8,0.1
				c5.4,1.7,10.9,3.3,16.3,4.8c5.5,1.5,11.1,3.1,16.6,4.9c2.5,0.8,4.2,2.1,4.9,3.8c1,2.4,0.1,5-1,7.2
				C520.7,841.6,519.1,845,515.5,845L515.5,845z M565.6,823c-2.2,0-4.1-1.4-6.3-3.7c-1.6-1.6-3.5-3.8-3.3-6.5
				c0.1-1.9,1.3-3.6,3.4-5.2c4.6-3.4,9.5-6.7,14.1-9.9s9.4-6.4,13.9-9.8c0.4-0.3,1-0.5,1.5-0.5c0.6,0,1.3,0.2,1.7,0.7
				c0.9,0.8,1,2.2,0.3,3.2c-0.1,0.2-12.9,19.1-19.9,28.1C569.9,821.1,568.1,823,565.6,823L565.6,823z M524.2,823
				c-2.5,0-4.3-1.9-5.6-3.5c-7-9-19.8-27.9-19.9-28.1c-0.7-1-0.5-2.4,0.3-3.2c0.5-0.5,1.1-0.7,1.7-0.7c0.5,0,1,0.2,1.5,0.5
				c4.5,3.3,9.3,6.6,13.9,9.8c4.7,3.2,9.5,6.5,14.1,9.9c2.2,1.6,3.3,3.3,3.4,5.2c0.2,2.7-1.6,4.9-3.3,6.5
				C528.6,821.2,526.6,823,524.2,823L524.2,823z M544.8,806.2c-2.4,0-5.2-0.3-6.9-2.3c-1.2-1.4-1.7-3.4-1.3-6.1
				c0.8-5.7,1.9-11.4,2.9-17c1-5.5,2.1-11.2,2.9-16.8c0.2-1.2,1.2-2.1,2.4-2.1c0,0,0,0,0.1,0c1.2,0,2.2,0.8,2.5,2
				c0,0.2,4.4,22.7,5.9,33.9c0.3,1.9,0.3,4.4-1.2,6.2C550.3,806,547.5,806.2,544.8,806.2z M471.9,753.2c-1.4,0-2.5-1.1-2.5-2.5
				s1.1-2.5,2.5-2.5s2.5,1.1,2.5,2.5S473.3,753.2,471.9,753.2L471.9,753.2z"/>
			<path class="st3" d="M471.9,750.6L471.9,750.6C471.9,750.7,471.9,750.7,471.9,750.6L471.9,750.6L471.9,750.6 M544.9,764.4
				c0,0,4.4,22.5,5.9,33.8c0.6,4.7-1.1,5.5-6,5.5c-4.1,0-6.4-1-5.7-5.5C540.7,786.9,543.2,775.7,544.9,764.4 M589,790L589,790
				 M589,790c-0.4,0.6-13,19.1-19.8,28c-1.4,1.8-2.5,2.5-3.6,2.5c-1.3,0-2.7-1.1-4.5-2.9c-2.9-2.9-3.8-5.2-0.1-7.9
				C570.1,802.9,579.8,796.8,589,790 M500.7,790c9.2,6.8,18.9,12.9,28.1,19.7c3.7,2.7,2.8,5-0.1,7.9c-1.9,1.9-3.2,2.9-4.5,2.9
				c-1.1,0-2.2-0.8-3.6-2.5C513.7,809.1,501.1,790.6,500.7,790 M605.5,821L605.5,821 M605.5,821c0,0-18.3,13.8-27.8,20.1
				c-1.4,0.9-2.5,1.4-3.4,1.4c-1.7,0-2.8-1.5-4.2-4.3c-1.8-3.7-1.9-6.2,2.4-7.5C583.4,827.2,594.6,824.4,605.5,821 M484.3,821
				c10.8,3.4,22.1,6.2,32.9,9.6c4.3,1.4,4.2,3.8,2.4,7.5c-1.4,2.8-2.5,4.3-4.2,4.3c-0.9,0-2-0.5-3.4-1.4
				C502.6,834.8,484.3,821,484.3,821 M578.7,858c0.4,0,0.8,0,1.3,0.1c11.3,1.4,22.6,3.7,33.9,5.2c0,0-22.4,4.8-33.7,6.5
				c-0.7,0.1-1.3,0.2-1.8,0.2c-3.1,0-3.7-1.8-3.8-6C574.5,860.2,575.3,858,578.7,858 M511.1,858c3.4,0,4.1,2.2,4.1,5.9
				c-0.1,4.2-0.7,6-3.8,6c-0.5,0-1.1-0.1-1.8-0.2c-11.3-1.7-33.7-6.5-33.7-6.5c11.3-1.5,22.6-3.7,33.9-5.2
				C510.2,858,510.7,858,511.1,858 M442.9,925.9c0.1,0.1,0.3,0.2,0.4,0.3C443.2,926.1,443,926,442.9,925.9 M443.3,926.2
				c0.2,0.1,0.3,0.1,0.5,0.1C443.7,926.3,443.5,926.2,443.3,926.2 M471.9,745.6L471.9,745.6c-2.8,0-5,2.2-5,5s2.2,5,5,5s5-2.2,5-5
				S474.7,745.6,471.9,745.6L471.9,745.6z M544.9,759.4L544.9,759.4c-2.5,0.1-4.6,1.9-4.9,4.3c-0.8,5.5-1.9,11.2-2.9,16.7
				c-1,5.6-2.1,11.4-2.9,17.1c-0.5,3.4,0.1,6.1,1.8,8.1c2.4,2.8,6,3.1,8.8,3.1c3.2,0,6.7-0.2,9.1-3c2.3-2.6,2.1-5.9,1.8-8.2
				c-1.5-11.3-5.7-33.2-5.9-34.1C549.3,761.1,547.3,759.4,544.9,759.4L544.9,759.4z M589,785c-0.1,0-0.2,0-0.2,0l0,0l0,0
				c-1,0.1-2,0.4-2.8,1c-4.5,3.3-9.2,6.6-13.8,9.7c-4.7,3.2-9.5,6.5-14.2,10c-2.7,2-4.2,4.4-4.4,7c-0.3,3.7,2,6.4,4,8.4
				c2.1,2.1,4.6,4.4,8.1,4.4c3.7,0,6.1-2.6,7.6-4.5c6.7-8.7,18.8-26.5,19.9-28.1c0.6-0.8,0.9-1.8,0.9-2.9
				C594,787.2,591.8,785,589,785L589,785L589,785z M589,795L589,795L589,795L589,795z M500.8,785c-1.3,0-2.5,0.5-3.5,1.4
				c-1.8,1.7-2,4.4-0.7,6.4c0.1,0.2,13,19.1,20,28.2c1.5,1.9,3.9,4.5,7.6,4.5c3.4,0,6-2.3,8.1-4.4c2-2,4.3-4.8,4-8.4
				c-0.2-2.6-1.7-5-4.4-7c-4.7-3.4-9.5-6.8-14.2-10c-4.6-3.2-9.4-6.4-13.9-9.7C502.8,785.3,501.8,785,500.8,785L500.8,785z
				 M605.5,816c-0.2,0-0.4,0-0.6,0c-0.3,0-0.7,0.1-1,0.2c-5.3,1.7-10.8,3.2-16.1,4.7c-5.5,1.5-11.2,3.1-16.7,4.9
				c-3.2,1-5.4,2.8-6.5,5.2c-1.4,3.4-0.2,6.7,1.1,9.3c1.2,2.5,3.5,7.1,8.6,7.1c2.5,0,4.7-1.3,6.2-2.2c9.3-6.1,26.5-19.1,27.9-20.2
				c1.2-0.9,2.1-2.4,2.1-4c0-2.6-2-4.8-4.6-5C605.7,816,605.6,816,605.5,816L605.5,816z M605.5,826L605.5,826L605.5,826L605.5,826z
				 M484.3,816c-1.8,0-3.6,1-4.4,2.7c-1.1,2.2-0.5,4.8,1.4,6.3c0.8,0.6,18.5,14,28,20.3c1.4,1,3.6,2.2,6.2,2.2
				c5.1,0,7.4-4.6,8.6-7.1c1.2-2.5,2.5-5.9,1-9.3c-1-2.4-3.2-4.2-6.4-5.2c-5.5-1.8-11.2-3.4-16.7-4.9c-5.4-1.5-10.9-3.1-16.2-4.7
				C485.3,816.1,484.8,816,484.3,816L484.3,816z M578.7,853c-2.7,0-4.9,0.8-6.5,2.5c-2.4,2.5-2.7,5.8-2.6,8.5
				c0.1,2.7,0.2,10.9,8.8,10.9c0.8,0,1.6-0.1,2.6-0.2c11.3-1.7,33.1-6.4,34-6.6c2.4-0.5,4-2.7,3.9-5.1s-1.9-4.4-4.4-4.7
				c-5.5-0.7-11.2-1.6-16.7-2.5c-5.6-0.9-11.5-1.9-17.3-2.6C579.9,853,579.3,853,578.7,853L578.7,853z M511.1,853
				c-0.6,0-1.3,0-1.9,0.1c-5.8,0.7-11.6,1.7-17.3,2.6c-5.5,0.9-11.1,1.8-16.7,2.5c-2.4,0.3-4.3,2.3-4.4,4.7s1.6,4.6,3.9,5.1
				c0.9,0.2,22.7,4.9,34,6.6c0.9,0.1,1.8,0.2,2.6,0.2c8.6,0,8.7-8.2,8.8-10.9c0.1-2.7-0.2-6-2.6-8.5
				C515.9,853.8,513.8,853,511.1,853L511.1,853z M442.9,920.9c-1.4,0-2.8,0.6-3.8,1.7c-1.8,2.1-1.6,5.3,0.5,7.1
				c0.5,0.5,1.1,0.8,1.8,1.1c0.7,0.3,1.4,0.4,2.1,0.5c0.1,0,0.2,0,0.3,0c2.6,0,4.8-2,5-4.7c0.1-2.4-1.4-4.4-3.6-5.1
				C444.5,921.1,443.7,920.9,442.9,920.9L442.9,920.9z"/>
		</g>
		<g>
			<g>
				<path class="st2" d="M443.8,926.8c-0.2,0-0.5-0.1-0.7-0.1c-0.2-0.1-0.4-0.2-0.6-0.4s-0.2-0.5-0.1-0.7c0.1-0.1,0.2-0.2,0.4-0.2
					c0.1,0,0.2,0,0.3,0.1c0.1,0.1,0.2,0.1,0.3,0.2c0.1,0,0.2,0.1,0.3,0.1c0.3,0,0.5,0.3,0.5,0.5
					C444.3,926.6,444.1,926.8,443.8,926.8L443.8,926.8z M578.4,870.4c-3.9,0-4.2-2.8-4.3-6.5c-0.1-2.7,0.3-4.3,1.3-5.3
					c0.7-0.8,1.8-1.1,3.3-1.1c0.4,0,0.9,0,1.4,0.1c5.7,0.7,11.5,1.7,17.1,2.6c5.5,0.9,11.2,1.8,16.8,2.6c0.2,0,0.4,0.2,0.4,0.5
					c0,0.2-0.2,0.5-0.4,0.5s-22.6,4.9-33.7,6.5C579.6,870.4,578.9,870.4,578.4,870.4L578.4,870.4z M511.3,870.4
					c-0.5,0-1.2-0.1-1.9-0.2c-11.1-1.7-33.5-6.5-33.7-6.5c-0.2-0.1-0.4-0.3-0.4-0.5s0.2-0.4,0.4-0.5c5.6-0.7,11.3-1.7,16.8-2.6
					c5.6-0.9,11.4-1.9,17.1-2.6c0.5-0.1,0.9-0.1,1.4-0.1c1.4,0,2.5,0.4,3.3,1.1c1,1,1.4,2.6,1.3,5.3
					C515.6,867.6,515.2,870.4,511.3,870.4L511.3,870.4z M574.3,843c-2,0-3.2-1.7-4.6-4.6c-1.2-2.5-1.5-4.2-1-5.5
					c0.5-1.2,1.7-2.1,3.7-2.7c5.5-1.7,11.1-3.3,16.6-4.9c5.4-1.5,11-3.1,16.4-4.8c0,0,0.1,0,0.2,0c0.2,0,0.4,0.1,0.4,0.3
					c0.1,0.2,0.1,0.5-0.1,0.6c-0.2,0.1-18.4,13.9-27.8,20.1C576.5,842.5,575.3,843,574.3,843L574.3,843z M515.5,843
					c-1,0-2.2-0.5-3.7-1.5c-9.4-6.2-27.6-20-27.8-20.1c-0.2-0.1-0.3-0.4-0.1-0.6c0.1-0.2,0.3-0.3,0.4-0.3s0.1,0,0.2,0
					c5.4,1.7,11,3.3,16.4,4.8c5.5,1.5,11.1,3.1,16.6,4.9c2,0.6,3.2,1.5,3.7,2.7c0.6,1.3,0.3,3-1,5.5
					C518.6,841.3,517.4,843,515.5,843L515.5,843z M565.6,821c-1.5,0-3-1.2-4.9-3.1c-2-2-2.8-3.5-2.7-4.9c0.1-1.3,1-2.5,2.6-3.7
					c4.6-3.4,9.4-6.7,14.1-9.9c4.6-3.2,9.4-6.5,14-9.8c0.1-0.1,0.2-0.1,0.3-0.1s0.3,0,0.3,0.1c0.2,0.2,0.2,0.4,0.1,0.6
					c-0.1,0.2-12.9,19-19.8,28C568.1,820.2,566.9,821,565.6,821L565.6,821z M524.2,821c-1.3,0-2.5-0.8-4-2.7
					c-6.9-9-19.7-27.8-19.8-28c-0.1-0.2-0.1-0.5,0.1-0.6c0.1-0.1,0.2-0.1,0.3-0.1c0.1,0,0.2,0,0.3,0.1c4.6,3.4,9.4,6.6,14,9.8
					c4.7,3.2,9.5,6.5,14.1,9.9c1.7,1.2,2.5,2.4,2.6,3.7c0.1,1.5-0.7,2.9-2.7,4.9C527.2,819.9,525.7,821,524.2,821L524.2,821z
					 M544.8,804.2c-2.8,0-4.4-0.5-5.4-1.6c-0.8-1-1.1-2.4-0.8-4.5c0.8-5.7,1.9-11.4,2.9-16.9s2.1-11.2,2.9-16.9
					c0-0.2,0.2-0.4,0.5-0.4l0,0c0.2,0,0.4,0.2,0.5,0.4c0,0.2,4.4,22.7,5.9,33.8c0.3,2.3,0.1,3.7-0.7,4.6
					C549.4,804,547.5,804.2,544.8,804.2z M471.9,751.2c-0.3,0-0.5-0.2-0.5-0.5s0.2-0.5,0.5-0.5s0.5,0.2,0.5,0.5
					S472.2,751.2,471.9,751.2L471.9,751.2z"/>
				<path class="st3" d="M471.9,750.6L471.9,750.6C471.9,750.7,471.9,750.7,471.9,750.6L471.9,750.6L471.9,750.6 M544.9,764.4
					c0,0,4.4,22.5,5.9,33.8c0.6,4.7-1.1,5.5-6,5.5c-4.1,0-6.4-1-5.7-5.5C540.7,786.9,543.2,775.7,544.9,764.4 M589,790L589,790
					 M589,790c-0.4,0.6-13,19.1-19.8,28c-1.4,1.8-2.5,2.5-3.6,2.5c-1.3,0-2.7-1.1-4.5-2.9c-2.9-2.9-3.8-5.2-0.1-7.9
					C570.1,802.9,579.8,796.8,589,790 M500.7,790c9.2,6.8,18.9,12.9,28.1,19.7c3.7,2.7,2.8,5-0.1,7.9c-1.9,1.9-3.2,2.9-4.5,2.9
					c-1.1,0-2.2-0.8-3.6-2.5C513.7,809.1,501.1,790.6,500.7,790 M605.5,821L605.5,821 M605.5,821c0,0-18.3,13.8-27.8,20.1
					c-1.4,0.9-2.5,1.4-3.4,1.4c-1.7,0-2.8-1.5-4.2-4.3c-1.8-3.7-1.9-6.2,2.4-7.5C583.4,827.2,594.6,824.4,605.5,821 M484.3,821
					c10.8,3.4,22.1,6.2,32.9,9.6c4.3,1.4,4.2,3.8,2.4,7.5c-1.4,2.8-2.5,4.3-4.2,4.3c-0.9,0-2-0.5-3.4-1.4
					C502.6,834.8,484.3,821,484.3,821 M578.7,858c0.4,0,0.8,0,1.3,0.1c11.3,1.4,22.6,3.7,33.9,5.2c0,0-22.4,4.8-33.7,6.5
					c-0.7,0.1-1.3,0.2-1.8,0.2c-3.1,0-3.7-1.8-3.8-6C574.5,860.2,575.3,858,578.7,858 M511.1,858c3.4,0,4.1,2.2,4.1,5.9
					c-0.1,4.2-0.7,6-3.8,6c-0.5,0-1.1-0.1-1.8-0.2c-11.3-1.7-33.7-6.5-33.7-6.5c11.3-1.5,22.6-3.7,33.9-5.2
					C510.2,858,510.7,858,511.1,858 M442.9,925.9c0.1,0.1,0.3,0.2,0.4,0.3C443.2,926.1,443,926,442.9,925.9 M443.3,926.2
					c0.2,0.1,0.3,0.1,0.5,0.1C443.7,926.3,443.5,926.2,443.3,926.2 M471.9,749.6L471.9,749.6c-0.6,0-1,0.4-1,1s0.4,1,1,1s1-0.4,1-1
					S472.4,749.6,471.9,749.6L471.9,749.6z M544.9,763.4L544.9,763.4c-0.5,0-0.9,0.4-1,0.9c-0.8,5.6-1.9,11.3-2.9,16.8
					c-1,5.6-2.1,11.3-2.9,17c-0.3,2.2,0,3.8,0.9,4.9c1.3,1.5,3.7,1.8,5.8,1.8c2.9,0,4.9-0.3,6.1-1.6c0.9-1,1.2-2.6,0.9-5
					c-1.5-11.2-5.8-33.6-5.9-33.9C545.8,763.7,545.4,763.4,544.9,763.4L544.9,763.4z M589,789L589,789C588.9,789,588.9,789,589,789
					C588.9,789,588.9,789,589,789c-0.3,0-0.4,0.1-0.6,0.2c-4.6,3.4-9.3,6.6-14,9.8s-9.5,6.5-14.1,9.9c-1.8,1.3-2.7,2.7-2.8,4.1
					c-0.2,2,1.3,3.8,2.8,5.3c2,2,3.5,3.2,5.2,3.2c1.5,0,2.8-0.9,4.4-2.9c6.8-8.8,19.1-27,19.8-28c0.1-0.2,0.2-0.4,0.2-0.6
					C590,789.4,589.5,789,589,789L589,789L589,789L589,789z M589,791L589,791L589,791L589,791z M500.8,789c-0.3,0-0.5,0.1-0.7,0.3
					c-0.4,0.3-0.4,0.9-0.1,1.3c0.1,0.2,12.9,19,19.8,28c1.1,1.4,2.5,2.9,4.4,2.9c1.7,0,3.3-1.2,5.2-3.2c1.5-1.5,3-3.3,2.8-5.3
					c-0.1-1.4-1-2.8-2.8-4.1c-4.6-3.4-9.4-6.7-14.1-9.9c-4.6-3.2-9.4-6.5-14-9.8C501.2,789.1,501,789,500.8,789L500.8,789z
					 M605.5,820L605.5,820c-0.2,0-0.2,0-0.3,0c-5.4,1.7-10.9,3.3-16.3,4.8c-5.5,1.5-11.1,3.1-16.6,4.9c-2.1,0.7-3.4,1.6-4,3
					c-0.8,1.9,0,4.1,1,5.9c1.3,2.6,2.6,4.9,5,4.9c1.1,0,2.3-0.5,4-1.6c9.2-6.1,27-19.5,27.8-20.1c0.3-0.2,0.4-0.5,0.4-0.8
					C606.5,820.5,606,820,605.5,820L605.5,820L605.5,820z M605.5,822L605.5,822L605.5,822L605.5,822z M484.3,820
					c-0.4,0-0.7,0.2-0.9,0.5c-0.2,0.4-0.1,1,0.3,1.3c0.2,0.1,18.4,13.9,27.8,20.2c1.6,1.1,2.8,1.6,4,1.6c2.4,0,3.8-2.3,5-4.9
					c0.9-1.9,1.8-4.1,1-6c-0.6-1.3-1.9-2.3-4-3c-5.5-1.7-11.1-3.3-16.6-4.9c-5.4-1.5-11-3.1-16.4-4.8C484.5,820,484.4,820,484.3,820
					L484.3,820z M578.7,857c-1.6,0-2.8,0.4-3.6,1.3c-1.4,1.4-1.5,3.6-1.5,5.6c0.1,3.7,0.5,7,4.8,7c0.6,0,1.2-0.1,2-0.2
					c11.2-1.7,33.5-6.5,33.7-6.5c0.5-0.1,0.8-0.5,0.8-1s-0.4-0.9-0.9-0.9c-5.6-0.7-11.3-1.7-16.8-2.6c-5.6-0.9-11.4-1.9-17.1-2.6
					C579.6,857,579.1,857,578.7,857L578.7,857z M511.1,857c-0.4,0-0.9,0-1.4,0.1c-5.7,0.7-11.5,1.7-17.1,2.6
					c-5.5,0.9-11.2,1.8-16.8,2.6c-0.5,0.1-0.9,0.5-0.9,0.9c0,0.5,0.3,0.9,0.8,1c0.2,0,22.6,4.9,33.7,6.5c0.7,0.1,1.4,0.2,2,0.2
					c4.3,0,4.7-3.3,4.8-7c0-2-0.1-4.2-1.5-5.6C513.8,857.4,512.7,857,511.1,857L511.1,857z M442.9,924.9c-0.3,0-0.6,0.1-0.8,0.3
					c-0.4,0.4-0.3,1.1,0.1,1.4c0.2,0.2,0.5,0.3,0.7,0.4c0.3,0.1,0.5,0.2,0.8,0.2c0,0,0,0,0.1,0c0.5,0,1-0.4,1-0.9
					c0-0.6-0.4-1-0.9-1.1c0,0-0.1,0-0.2,0s-0.1-0.1-0.2-0.1C443.4,925,443.1,924.9,442.9,924.9L442.9,924.9z"/>
			</g>
			<g>
				<path class="st2" d="M443.3,928.7c-0.3,0-0.6-0.1-0.9-0.2c-0.4-0.2-0.8-0.4-1.1-0.7c-1-0.9-1.2-2.5-0.3-3.5
					c0.5-0.6,1.2-0.9,1.9-0.9c0.5,0,1.1,0.2,1.5,0.5c1.2,0.6,1.7,2,1.2,3.2C445.2,928.1,444.3,928.7,443.3,928.7z"/>
				<path class="st3" d="M442.9,925.9L442.9,925.9L442.9,925.9 M442.9,925.9c0.1,0.1,0.3,0.2,0.4,0.3
					C443.2,926.1,443,926,442.9,925.9 M442.9,920.9c-1.4,0-2.8,0.6-3.8,1.8c-1.8,2.1-1.5,5.3,0.6,7l0,0l0,0c0.5,0.5,1.2,0.8,1.8,1.1
					c0.6,0.2,1.2,0.4,1.9,0.4c1.9,0,3.8-1.1,4.6-3c1-2.4,0.1-5.2-2.2-6.4C444.9,921.2,443.9,920.9,442.9,920.9L442.9,920.9z"/>
			</g>
			<g>
				<path class="st2" d="M443.3,928.7c-0.3,0-0.6-0.1-0.9-0.2c-0.4-0.2-0.8-0.4-1.1-0.7c-1-0.9-1.2-2.5-0.3-3.5
					c0.5-0.6,1.2-0.9,1.9-0.9c0.5,0,1.1,0.2,1.5,0.5c1.2,0.6,1.7,2,1.2,3.2C445.2,928.1,444.3,928.7,443.3,928.7z"/>
				<path class="st3" d="M442.9,925.9L442.9,925.9L442.9,925.9 M442.9,925.9c0.1,0.1,0.3,0.2,0.4,0.3
					C443.2,926.1,443,926,442.9,925.9 M442.9,920.9c-1.4,0-2.8,0.6-3.8,1.8c-1.8,2.1-1.5,5.3,0.6,7l0,0l0,0c0.5,0.5,1.2,0.8,1.8,1.1
					c0.6,0.2,1.2,0.4,1.9,0.4c1.9,0,3.8-1.1,4.6-3c1-2.4,0.1-5.2-2.2-6.4C444.9,921.2,443.9,920.9,442.9,920.9L442.9,920.9z"/>
			</g>
			<g>
				<path class="st2" d="M429.8,950.1c-1,0-1.9-0.6-2.3-1.5s-0.2-2,0.5-2.7c4-4,6.6-7.1,8.5-10.1c2.1-3.3,3.3-6.5,3.8-10
					c0-10.5,0-34.9,0-63.1c0-55.2,0-124-0.3-131.2c0-0.4,0-0.9,0-1.3c-0.1-3.3-0.1-4.5-4.9-5.9c-4.9-1.4-9.3-6.5-11.5-10.8
					c-1.3-2.4-2.5-6-1.5-9.1c0.2-0.7,0.7-1.3,1.4-1.6c0.3-0.1,0.6-0.2,1-0.2c0.1,0,0.2,0,0.3,0c3.9,0,19.2,0.2,24.2,0.3
					c7-14.7,14.8-48,5.5-62.4c-6.2-9.5-8.2-30.7-8.8-45.1c-3.1,8.4-7,21.6-8.6,28.5c-3.2,14.3-2.5,28.4-1.2,41.4
					c0.1,0.5,0.1,1.1,0.2,1.6c0.4,3.1,0.9,6.9-1.2,11.5c-0.4,0.8-1.1,1.3-1.9,1.4c-0.1,0-0.3,0-0.4,0c-0.7,0-1.4-0.3-1.8-0.8
					c-3.9-4.3-19-15-31.2-23.5c-8.2-5.8-15.3-10.8-18.7-13.6c-1.6-1.3-3.6-2.9-6-4.8c-14-10.9-40.2-31.1-49.1-53.3
					c0-0.1-0.1-0.2-0.1-0.3c-4.8-17.9,5.9-86,11.1-96.5c5.1-16.2,14.9-30.4,30.8-44.7c16.6-14.9,44.6-51.2,44.8-51.6
					c0.5-0.6,1.2-1,2-1c0.2,0,0.3,0,0.5,0.1c0.9,0.2,1.7,0.9,1.9,1.8l0.1,0.3c0,0.1,0,0.2,0.1,0.3c1.3,7.8,1,15.7,0.6,23.3
					c-0.2,3.3-0.3,6.8-0.3,10.2c0,6.5,16.3,47.7,22.6,52.4c6.4,4.8,12.8,7.1,19.6,7.1c2.9,0,5.8-0.4,8.9-1.2
					c18.2-5,54.3-25.6,61-29.5c0.1-0.5,0.2-1,0.3-1.4c0.3-0.9,0.6-1.9,0.3-4.8c-0.3-3.5-2.3-5.6-3.7-7c-0.2-0.2-0.4-0.4-0.6-0.6
					c-2.5-1.4-5.4-2.8-8.4-4.3c-6.6-3.2-13.4-6.6-18.3-11.1c-9.2-8.4-22.3-27.2-22.4-33.6c-0.1-5,3.5-9.3,9.7-11.3
					c18.2-6.1,37.1-9.1,56.2-9.1c20,0,40.2,3.4,60,10c0.3,0.1,0.7,0.2,1.1,0.4c3.6,1.1,11,3.3,9.6,11c-1.3,6.8-15.1,26.3-23.5,33.2
					c-5.1,4.2-11.5,7.4-17.6,10.4c-3,1.5-5.8,2.9-8.5,4.4c-0.2,0.2-0.3,0.4-0.5,0.6c-1.2,1.4-3.2,3.8-3.5,7.3
					c-0.4,3.5-0.1,4.7,0.2,5.8c0,0.1,0,0.2,0.1,0.3c5.7,3.5,36.6,22,54.6,27.5c0.8,0.2,2.2,0.5,4.4,0.5c5.4,0,13.5-1.9,18.5-7.3
					c19.3-20.7,33.3-51.5,34-56.3c0.4-2.8,0.2-9.4,0-15.2c-0.1-5.2-0.3-10.1-0.1-12.9c0.1-1.1,0.9-2.1,2-2.3c0.1,0,0.3,0,0.4,0
					c1,0,1.9,0.6,2.3,1.4c3,6.5,13.6,17.2,23.9,27.4c8.8,8.8,17.1,17.1,21.1,23.2c11.9,18,20.3,34.7,25.5,45.7
					c1.5,3.1,2.9,6,4.1,8.8c10.8,23.2,19.2,71.7,7.8,94.8c-3.5,7.1-19,26.1-23.8,31c-20.6,20.9-59.5,49.9-77.2,57.5
					c-0.3,0.1-0.7,0.2-1,0.2c-0.5,0-0.9-0.1-1.3-0.4c-0.7-0.4-1.1-1.2-1.2-2c0-0.7,0.1-1.1,1.3-5.5c1-3.4,2.6-9.1,2.7-10.7
					c0.6-10.6-2.5-44.7-7.1-61.7c-2.7,8.8-12.1,30.7-20.2,41.9c-9.5,13.1-5.4,30.8-2.1,40.2c4.7,13.3,11.4,21.3,13.3,21.9h24
					c1.4,0,2.5,1.1,2.5,2.5c0,10.2-7,14.7-12.1,17.9c-0.8,0.5-1.6,1-2.4,1.6c-3.8,2.6-4.4,4.1-4.6,7.6c-0.3,5.7-0.6,75.3-0.7,126.2
					c-0.2,50.8-0.2,60.1-0.3,62.1c1.5,10.2,6.5,15.7,16.1,25.3c0.7,0.7,0.9,1.8,0.5,2.7s-1.3,1.5-2.3,1.5H429.8V950.1z M564.3,893.7
					c6.9,0,20.7,0,32.5,0c10.4,0,15.8,0,18.5,0V753.2h-141l-0.5,140.5c5.4,0,18.7,0,31.9,0c6.4,0,12.9,0,18.4,0
					c-1.4-2.4-2.9-5.9-3.5-10.6c0-0.1,0-0.1,0-0.2c-1.2-33.2,12.5-60,18.4-71.4c1-2,1.8-3.5,2.1-4.3c0.3-0.9,1.2-1.6,2.2-1.6h0.1
					c0.9,0,1.8,0.5,2.2,1.4c0.3,0.5,26.7,54.2,21.8,79C566.8,888.6,565.5,891.5,564.3,893.7z M507.3,524.8c1,0,1.9,0.6,2.3,1.5
					c3.9,8.7,8.3,15.7,13.2,21.3c10.9,12.4,16.6,18,21.7,18c5.1,0,11-5.7,21.3-17.6c3.8-4.4,6.9-9.4,10.1-14.8c1.5-2.4,3-5,4.6-7.5
					c0.5-0.7,1.3-1.1,2.1-1.1c0.1,0,0.2,0,0.3,0c3.5,0.4,5,4.2,6.7,8.2c1.1,2.7,2.6,6.4,4.1,6.6c2.7-1.2,7.4-15.5,9.5-26.6l0.1-0.8
					c1.1-5.9,1.5-10.3-3.5-13.2c-8-4.7-30.9-16-49.7-22.5c-2.4-0.8-4.3-1.2-6.2-1.2c-1.8,0-3.5,0.4-5.3,1.2c-4.5,2-9.1,4-13.6,5.9
					c-10.3,4.4-21,9-31,14.6c-6.2,3.4-8.5,7.2-8.1,12.9c5.9,27.8,10.1,28.8,10.3,28.8c1.4,0,1.9-0.7,3.1-4.4
					c1.1-3.2,2.5-7.6,7.2-9.2C506.8,524.9,507.1,524.8,507.3,524.8z"/>
				<path class="st3" d="M542.4,373.9c19.8,0,39.7,3.3,59.2,9.9c3.3,1.1,10.2,2.4,9,8.5S595.8,417.6,588,424
					c-7.5,6.1-17.7,10-26.2,14.9c-0.8,1.2-4.3,4.2-4.8,9.6c-0.6,5.4,0.3,6.2,0.5,7.9c0,0,35.8,22.1,56,28.3c1.4,0.4,3.1,0.7,5.1,0.7
					c6.3,0,15-2.3,20.4-8.1c19.6-21,33.9-52.2,34.6-57.6c0.8-5.5-0.5-22.4,0-28.2c5.8,12.6,36.5,37.8,45.2,51
					c11,16.8,19.2,32.7,25.3,45.4c1.5,3.1,2.9,6,4.1,8.7c11.1,24,18.5,71,7.8,92.7c-3.3,6.7-18.6,25.5-23.4,30.3
					c-20.5,20.8-58.9,49.5-76.4,57c0-0.7,3.8-12.8,4-15.9c0.7-12.8-3.8-61.9-11-71.7c0,0.5-0.4,5-0.4,6.5c0,2.7-10.5,30.1-20.5,43.8
					c-17.8,24.4,6.6,66,13.1,66c7.7,0,24.1,0,24.1,0c0,10.4-8,13.7-13.4,17.4c-4.3,3-5.5,5.2-5.7,9.5c-0.5,9.5-0.8,187.4-1,188.4
					l0,0c1.5,11.1,6.8,17,16.8,27H429.8c3.6-3.7,6.7-7,8.9-10.5c2.2-3.5,3.7-7.1,4.2-11.1c-0.1-30.6,0.2-183.5-0.4-194.5
					c-0.2-4.2,0.5-7.3-6.7-9.4c-6.2-1.8-13-11.9-11.3-16.8l0,0l0,0c4.1,0,26,0.3,26,0.3c6.5-12.6,16.9-49.5,6-66.3
					c-8.4-13-8.7-50.9-8.7-53.4l0,0c-2.6,0-11.2,28.8-13.2,37.7c-3.2,14.1-2.6,28.1-1.2,42.2c0.3,3.5,1.3,7.2-0.8,11.8
					c-6.7-7.3-41.4-30.2-50.2-37.4c-10.6-8.7-44.3-31.7-54.4-57.1c-4.8-17.7,6.6-86.4,11-94.9c5.5-17.7,16.6-31.6,30.2-43.7
					c17-15.2,45.2-51.9,45.2-51.9l0.1,0.3l0,0c1.9,11,0.3,22.1,0.2,33.1c0,7.4,16.5,49.1,23.6,54.4c6.6,4.9,13.5,7.6,21.1,7.6
					c3.1,0,6.2-0.4,9.5-1.3c20.5-5.6,62.8-30.4,62.8-30.4c0.1-2.6,1.2-2.6,0.8-8c-0.5-5.4-4.3-8.2-5.1-9.4
					c-8.1-4.7-19.8-9-26.7-15.3c-9.5-8.7-21.5-26.7-21.6-31.8c-0.1-5.1,4.6-7.8,8-8.9C505.1,376.9,523.7,373.9,542.4,373.9
					 M496.2,541.1c6.8,0,4-11.3,11.1-13.8c3.4,7.6,7.8,15.4,13.6,21.9c11,12.5,17.3,18.8,23.6,18.8c6.2,0,12.5-6.1,23.2-18.5
					c5.8-6.7,9.9-14.8,14.9-22.5c4.4,0.5,5.2,14.8,11.1,14.8l0,0c5.5,0,10.9-23.6,11.9-28.6c0.9-5,2.8-12.3-4.6-16.6
					c-7.3-4.3-30.4-15.9-50.1-22.7c-2.4-0.8-4.7-1.3-7-1.3c-2.1,0-4.2,0.4-6.3,1.4c-15,6.8-30.4,12.6-44.8,20.6
					c-6.5,3.6-10,8.1-9.4,15.6l0,0C485,517.4,490.1,541.1,496.2,541.1 M471.3,896.2c0,0,17.2,0,34.4,0c8.6,0,17.1,0,23.5,0
					c0,0-4.9-3.9-6.1-13.4c-1.4-38.9,18.3-69.3,20.3-74.8c3.3,6.6,26,55,21.5,77.4c-1.1,4.9-5.1,10.8-5.1,10.8s20.3,0,36.9,0
					c10.5,0,19.5,0,21-0.1c0,0,0-140.8,0-145.5H471.9l0,0l0,0l0,0L471.3,896.2 M443.8,926.3c-0.2,0-0.3-0.1-0.5-0.1
					C443.5,926.2,443.7,926.3,443.8,926.3 M542.4,368.9v5V368.9c-19.3,0-38.5,3.1-57,9.3c-7.3,2.4-11.5,7.6-11.4,13.7
					c0.2,7.8,14.4,27.3,23.2,35.4c5.1,4.7,12.1,8.1,18.9,11.5c2.9,1.4,5.6,2.7,7.9,4.1c0.1,0.1,0.2,0.3,0.4,0.4
					c1.2,1.2,2.8,2.9,3,5.5c0.2,2.5,0,3.1-0.2,3.9c0,0.2-0.1,0.3-0.1,0.5c-8.6,4.9-42.4,24-59.5,28.7c-2.8,0.8-5.6,1.2-8.2,1.2
					c-6.3,0-12.2-2.2-18.1-6.6c-1.6-1.2-6.3-8.6-12.9-24.3c-5.7-13.7-8.7-23.9-8.7-26.1c0-3.3,0.2-6.7,0.3-10
					c0.4-7.7,0.8-15.7-0.6-23.8c0-0.2-0.1-0.4-0.1-0.6l-0.1-0.3c-0.5-1.9-2-3.3-3.8-3.7c-0.3-0.1-0.7-0.1-1-0.1c-1.5,0-3,0.7-4,2
					c-0.3,0.4-28.1,36.5-44.5,51.2c-16.2,14.5-26.2,29-31.5,45.6c-2.9,6.2-6.8,27.1-9.2,45.1c-2,14.9-5,41.5-1.9,52.9
					c0.1,0.2,0.1,0.4,0.2,0.6c9.2,22.9,35.7,43.4,49.9,54.4c2.4,1.9,4.5,3.5,6,4.7c3.5,2.9,10.6,7.9,18.9,13.7
					c12,8.5,27,19.1,30.8,23.2c1,1,2.3,1.6,3.7,1.6c0.3,0,0.5,0,0.8-0.1c1.7-0.3,3.1-1.3,3.8-2.8c2.4-5.2,1.8-9.6,1.4-12.8
					c-0.1-0.5-0.1-1.1-0.2-1.6c-1.3-12.9-2-26.7,1.1-40.7c0.9-3.9,2.6-10.1,4.5-16.3c1.2,12.9,3.6,26.3,8.4,33.6
					c4,6.2,5,17.3,2.8,31.2c-1.7,10.7-5,21-7.7,27.3c-6-0.1-18.6-0.2-22.4-0.2c-0.2,0-0.3,0-0.5,0c-0.6,0-1.3,0.1-1.9,0.4
					c-1.5,0.6-2.5,1.8-2.9,3.3c-1.2,3.8,0.2,8,1.7,10.8c2.3,4.5,7.1,10.3,13,12.1c2.5,0.7,2.9,1.3,2.9,1.3c0.1,0.3,0.2,1.4,0.2,2.2
					c0,0.4,0,0.9,0,1.3c0.3,7.2,0.3,75.9,0.3,131.1c0,28,0,52.2,0,62.8c-0.4,3-1.5,5.8-3.4,8.8c-1.8,2.8-4.3,5.8-8.2,9.7
					c-1.4,1.4-1.9,3.6-1.1,5.4c0.8,1.9,2.6,3.1,4.6,3.1h232.5c2,0,3.8-1.2,4.6-3.1c0.8-1.9,0.3-4-1.1-5.4c-10-10-14-14.8-15.4-23.7
					c0.1-3,0.1-14,0.3-61.9c0.2-50.8,0.4-120.4,0.7-126c0.2-2.6,0.3-3.5,3.6-5.7c0.7-0.5,1.5-1,2.3-1.5c5.3-3.3,13.3-8.4,13.3-20
					c0-2.8-2.2-5-5-5h-23.4c-2.7-2-10.5-13.3-13.9-28c-1.9-8.6-2.8-20.8,4-30.1c6.3-8.7,13.5-23.7,17.7-34.5
					c3.4,17.3,5.7,42.9,5.1,52.7c-0.1,1.4-1.8,7.3-2.6,10.2c-1.3,4.5-1.5,5.2-1.4,6.3c0.1,1.6,1,3.1,2.4,3.9
					c0.8,0.5,1.7,0.7,2.6,0.7c0.7,0,1.3-0.1,2-0.4c18.2-7.8,56.9-36.6,78-58.1c4.8-4.9,20.5-24,24.3-31.6c11.9-24.1,3.5-72.7-7.7-97
					c-1.4-3-2.8-5.9-4.1-8.8c-5.3-11.1-13.7-27.8-25.7-46c-4.2-6.4-12.6-14.8-21.4-23.6c-9.6-9.7-20.6-20.6-23.4-26.7
					c-0.8-1.8-2.6-2.9-4.5-2.9c-0.3,0-0.6,0-0.9,0.1c-2.2,0.4-3.9,2.3-4.1,4.5c-0.2,2.9-0.1,7.9,0.1,13.1c0.2,5.7,0.3,12.2,0,14.8
					c-0.7,4.7-14.6,34.8-33.3,54.9c-4.2,4.5-11.4,6.5-16.7,6.5c-2,0-3.1-0.3-3.7-0.4c-16.9-5.2-45.7-22.2-53.1-26.7
					c-0.1-0.8-0.2-1.9,0-4.2c0.3-2.8,1.8-4.6,3-6c0.1-0.1,0.2-0.2,0.2-0.3c2.5-1.4,5.2-2.7,8-4.1c6.2-3.1,12.7-6.3,18-10.7
					c8.1-6.6,22.9-26.7,24.4-34.6c0.8-4.3-0.7-8.1-4.2-10.6c-2.3-1.7-5.1-2.6-7.1-3.2c-0.4-0.1-0.7-0.2-1.1-0.3
					C583.1,372.3,562.6,368.9,542.4,368.9L542.4,368.9z M488.4,509.4c-0.3-4,0.8-7,6.8-10.4c9.9-5.5,20.5-10.1,30.8-14.5
					c4.5-1.9,9.1-3.9,13.6-5.9c1.4-0.6,2.8-0.9,4.2-0.9c1.5,0,3.2,0.3,5.4,1.1c18.6,6.4,41.3,17.7,49.2,22.3c3.5,2,3.4,4.9,2.3,10.6
					l-0.1,0.8c-1.5,7.9-4.8,18.8-7.2,23.2c-0.6-1.2-1.2-2.7-1.6-3.7c-1.7-4.3-3.7-9.2-8.7-9.8c-0.2,0-0.4,0-0.6,0
					c-1.7,0-3.3,0.8-4.2,2.3c-1.6,2.5-3.2,5.1-4.7,7.5c-3.2,5.2-6.2,10.2-9.9,14.4c-9.4,10.9-15.3,16.8-19.4,16.8
					c-4.5,0-11.3-7.4-19.8-17.1c-4.8-5.4-8.9-12.2-12.8-20.7c-0.8-1.8-2.6-2.9-4.6-2.9c-0.5,0-1.1,0.1-1.6,0.3
					c-5.8,2-7.6,7.3-8.8,10.8c-0.2,0.5-0.4,1.1-0.6,1.7C494.9,532.8,492.1,526.4,488.4,509.4L488.4,509.4z M476.8,755.7h136v135.6
					c-3.1,0-8.1,0-16,0c-9.9,0-21.1,0-28.5,0c0.6-1.5,1.2-3.1,1.6-4.7v-0.1c5.2-26.1-21.7-80.1-22-80.6c-0.9-1.7-2.6-2.7-4.5-2.7
					c-0.1,0-0.2,0-0.3,0c-2,0.1-3.7,1.4-4.4,3.3c-0.2,0.6-1.1,2.2-2,4c-5.9,11.6-19.9,38.8-18.6,72.7c0,0.1,0,0.3,0,0.4
					c0.4,3,1.1,5.6,1.9,7.7c-4.2,0-9,0-14.4,0c-11.5,0-23,0-29.4,0L476.8,755.7L476.8,755.7z"/>
			</g>
		</g>
		<g>
			<path class="st2" d="M479.4,393.8c-0.5,0-0.9-0.1-1.3-0.4c-1.2-0.7-1.5-2.3-0.8-3.4c0.2-0.3,0.3-0.5,0.5-0.8l0,0
				c0.2-0.2,0.4-0.4,0.6-0.6c0.3-0.2,0.7-0.4,1.2-0.5c0.1,0,0.2,0,0.3,0c0.7,0,1.4,0.3,1.9,0.8c0.8,0.8,0.9,2.1,0.2,3l-0.4,0.7
				C481,393.4,480.2,393.8,479.4,393.8z"/>
			<path class="st3" d="M479.8,390.6L479.8,390.6 M479.8,390.6l-0.4,0.7L479.8,390.6L479.8,390.6L479.8,390.6L479.8,390.6
				 M479.8,385.6c-0.1,0-0.1,0-0.2,0c-0.9,0-1.7,0.3-2.3,0.7c-0.8,0.4-1.4,1.1-1.9,1.8c-0.1,0.2-0.2,0.4-0.3,0.5
				c-1.5,2.3-0.8,5.4,1.6,6.9c0.8,0.5,1.8,0.8,2.7,0.8c1.6,0,3.3-0.8,4.2-2.3l0.4-0.6c0.5-0.8,0.9-1.8,0.9-2.8
				C484.8,387.9,482.6,385.7,479.8,385.6C479.9,385.6,479.9,385.6,479.8,385.6L479.8,385.6z M479.8,395.6L479.8,395.6L479.8,395.6
				L479.8,395.6z"/>
		</g>
		<g>
			<path class="st2" d="M313.8,567.8c-0.2,0-0.3,0-0.5-0.1c-1.2-0.2-2.5-0.5-14.4-18.9c-7.8-12.1-17-27.2-25.9-42.5
				c-14-24.2-38.9-69.3-48.2-99.1c-14.7-47-12.7-74.4-10.8-100.8c0.2-3.1,0.4-6.1,0.6-9.1c0.1-1.3,1.1-2.3,2.3-2.3
				c4.6-0.6,41.1-10.7,71.2-37.8c6.2-5.6,12.1-11.7,18.3-18.2c10.1-10.6,20.6-21.5,33.7-31.1c22.6-16.6,51.1-26.8,53.4-26.8
				c0.7,0,1.4,0.3,1.9,0.8c0.7,0.8,0.9,1.9,0.4,2.8c-0.3,0.5-26.9,55.3-32.3,81.5c-5.5,26.7,4.3,55.8,6.4,60.5
				c1.1,2.4,3.4,5.6,5.8,9c2.7,3.8,5.7,8,7.8,12.1l0.6,1.2c3.1,6.4,5.3,11.1,5.3,21.7c0,13.6-4.6,19.2-8.6,24.2
				c-0.6,0.8-1.2,1.6-1.8,2.3c-2.4,3.3-12.9,14.1-24,25.5c-9.2,9.5-18.7,19.3-22.3,23.5c-18.2,21.1-19.4,50-19.4,55.6
				c-0.1,12.7,0.6,44.2,3.1,63c0.1,0.8-0.2,1.6-0.8,2.2C315,567.5,314.4,567.8,313.8,567.8z"/>
			<path class="st3" d="M393.4,183.6C393.5,183.6,393.5,183.6,393.4,183.6c0.1,0-27,55.3-32.4,82.1c-5.5,26.8,4.1,56.6,6.6,62
				s9.8,13.7,13.7,21.2c3.3,6.9,5.6,11.1,5.6,21.8c0,14.8-5.7,19.4-9.9,25.1c-4.4,5.9-38.4,39.8-46.3,48.9
				c-16.2,18.9-19.9,44.8-20,57.2c-0.1,12.3,0.6,44,3.1,63.4c-3.8-0.8-70.4-106.8-86.7-158.8c-16.2-52.1-11.8-80.3-10-109.1
				c1.3,0,40-9,72.7-38.4c16.7-15,31.1-33.8,51.8-49.1C363.9,193.4,392,183.6,393.4,183.6 M393.4,178.6c-0.7,0-1.6,0-7.3,2.1
				c-2.8,1-7.2,2.8-12.9,5.3c-9.1,4.1-22.6,10.9-34.8,19.9c-13.2,9.7-23.8,20.7-34,31.3c-6.2,6.4-12,12.5-18.2,18
				c-31.5,28.4-68.2,36.8-69.8,37.2c-2.4,0.2-4.3,2.2-4.5,4.7c-0.2,3-0.4,6.1-0.6,9.1c-1.8,25.5-3.9,54.3,10.9,101.8
				c9.4,30.1,34.4,75.4,48.5,99.6c8.9,15.3,18.1,30.4,25.9,42.6c12.5,19.3,13.9,19.6,16,20c0.3,0.1,0.7,0.1,1,0.1
				c1.2,0,2.5-0.5,3.4-1.3c1.2-1.1,1.8-2.7,1.6-4.3c-2.5-18.7-3.2-50.1-3.1-62.7c0.2-15,5.2-38.1,18.8-54
				c3.6-4.1,13.1-13.9,22.2-23.4c13.5-13.9,21.9-22.6,24.2-25.8c0.6-0.7,1.2-1.5,1.8-2.3c4.1-5.1,9.1-11.3,9.1-25.8
				c0-11.3-2.4-16.4-5.5-22.8l-0.6-1.2c0,0,0-0.1-0.1-0.1c-2.1-4.2-5.2-8.6-8-12.4c-2.4-3.3-4.6-6.4-5.6-8.6
				c-2-4.3-11.5-33.2-6.3-58.9c5.3-25.9,31.8-80.3,32.1-80.9c0.9-1.9,0.6-4.1-0.9-5.6C396.2,179.2,394.9,178.6,393.4,178.6
				L393.4,178.6z"/>
		</g>
		<g>
			<path class="st2" d="M544.8,804.2c-2.8,0-4.4-0.5-5.4-1.6c-0.8-1-1.1-2.4-0.8-4.5c0.8-5.7,1.9-11.4,2.9-16.9s2.1-11.2,2.9-16.9
				c0-0.2,0.2-0.4,0.5-0.4l0,0c0.2,0,0.4,0.2,0.5,0.4c0,0.2,4.4,22.7,5.9,33.8c0.3,2.3,0.1,3.7-0.7,4.6
				C549.4,804,547.5,804.2,544.8,804.2z"/>
			<path class="st3" d="M544.9,764.4c0,0,4.4,22.5,5.9,33.8c0.6,4.7-1.1,5.5-6,5.5c-4.1,0-6.4-1-5.7-5.5
				C540.7,786.9,543.2,775.7,544.9,764.4 M544.9,763.4L544.9,763.4c-0.5,0-0.9,0.4-1,0.9c-0.8,5.6-1.9,11.3-2.9,16.8
				c-1,5.6-2.1,11.3-2.9,17c-0.3,2.2,0,3.8,0.9,4.9c1.3,1.5,3.7,1.8,5.8,1.8c2.9,0,4.9-0.3,6.1-1.6c0.9-1,1.2-2.6,0.9-5
				c-1.5-11.2-5.8-33.6-5.9-33.9C545.8,763.7,545.4,763.4,544.9,763.4L544.9,763.4z"/>
		</g>
		<g>
			<path class="st2" d="M565.6,821c-1.5,0-3-1.2-4.9-3.1c-2-2-2.8-3.5-2.7-4.9c0.1-1.3,1-2.5,2.6-3.7c4.6-3.4,9.4-6.7,14.1-9.9
				c4.6-3.2,9.4-6.5,14-9.8c0.1-0.1,0.2-0.1,0.3-0.1s0.3,0,0.3,0.1c0.2,0.2,0.2,0.4,0.1,0.6c-0.1,0.2-12.9,19-19.8,28
				C568.1,820.2,566.9,821,565.6,821z"/>
			<path class="st3" d="M589,790c-0.4,0.6-13,19.1-19.8,28c-1.4,1.7-2.5,2.5-3.6,2.5c-1.3,0-2.7-1.1-4.5-2.9
				c-2.9-2.9-3.8-5.2-0.1-7.9C570.1,802.9,579.8,796.8,589,790 M589,789c-0.2,0-0.4,0.1-0.6,0.2c-4.6,3.4-9.3,6.6-14,9.8
				s-9.5,6.5-14.1,9.9c-1.8,1.3-2.7,2.7-2.8,4.1c-0.2,2,1.3,3.8,2.8,5.3c2,2,3.5,3.2,5.2,3.2c1.5,0,2.8-0.9,4.4-2.9
				c7-9,19.7-27.9,19.8-28c0.3-0.4,0.2-0.9-0.1-1.3C589.5,789.1,589.2,789,589,789L589,789z M589,791L589,791L589,791L589,791z"/>
		</g>
		<g>
			<path class="st2" d="M578.4,870.4c-3.9,0-4.2-2.8-4.3-6.5c-0.1-2.7,0.3-4.3,1.3-5.3c0.7-0.8,1.8-1.1,3.3-1.1c0.4,0,0.9,0,1.4,0.1
				c5.7,0.7,11.5,1.7,17.1,2.6c5.5,0.9,11.2,1.8,16.8,2.6c0.2,0,0.4,0.2,0.4,0.5c0,0.2-0.2,0.5-0.4,0.5s-22.6,4.9-33.7,6.5
				C579.6,870.4,578.9,870.4,578.4,870.4z"/>
			<path class="st3" d="M578.7,858c0.4,0,0.8,0,1.3,0.1c11.3,1.4,22.6,3.7,33.9,5.2c0,0-22.4,4.8-33.7,6.5c-0.7,0.1-1.3,0.2-1.8,0.2
				c-3.1,0-3.7-1.8-3.8-6C574.5,860.2,575.3,858,578.7,858 M578.7,857L578.7,857c-1.6,0-2.8,0.4-3.6,1.3c-1.4,1.4-1.5,3.6-1.5,5.6
				c0.1,3.7,0.5,7,4.8,7c0.6,0,1.2-0.1,2-0.2c11.2-1.7,33.5-6.5,33.7-6.5c0.5-0.1,0.8-0.5,0.8-1s-0.4-0.9-0.9-0.9
				c-5.6-0.7-11.3-1.7-16.8-2.6c-5.6-0.9-11.4-1.9-17.1-2.6C579.6,857,579.1,857,578.7,857L578.7,857z"/>
		</g>
		<g>
			<path class="st2" d="M574.3,843c-2,0-3.2-1.7-4.6-4.6c-1.2-2.5-1.5-4.2-1-5.5c0.5-1.2,1.7-2.1,3.7-2.7c5.5-1.7,11.1-3.3,16.6-4.9
				c5.4-1.5,11-3.1,16.4-4.8c0,0,0.1,0,0.2,0c0.2,0,0.4,0.1,0.4,0.3c0.1,0.2,0.1,0.5-0.1,0.6c-0.2,0.1-18.4,13.9-27.8,20.1
				C576.5,842.5,575.3,843,574.3,843z"/>
			<path class="st3" d="M605.5,821c0,0-18.3,13.8-27.8,20.1c-1.4,0.9-2.5,1.4-3.4,1.4c-1.7,0-2.8-1.5-4.2-4.3
				c-1.8-3.7-1.9-6.2,2.4-7.5C583.4,827.2,594.6,824.4,605.5,821 M605.5,820c-0.1,0-0.2,0-0.3,0c-5.4,1.7-11,3.3-16.4,4.8
				c-5.5,1.5-11.1,3.1-16.6,4.9c-2.1,0.7-3.4,1.6-4,3c-0.8,1.9,0,4.1,1,5.9c1.3,2.6,2.6,4.9,5,4.9c1.1,0,2.3-0.5,4-1.6
				c9.4-6.2,27.6-20,27.8-20.2c0.4-0.3,0.5-0.8,0.3-1.3C606.2,820.2,605.8,820,605.5,820L605.5,820z M605.5,822L605.5,822L605.5,822
				L605.5,822z"/>
		</g>
		<g>
			<path class="st2" d="M524.2,821c-1.3,0-2.5-0.8-4-2.7c-7-9-19.7-27.8-19.8-28c-0.1-0.2-0.1-0.5,0.1-0.6c0.1-0.1,0.2-0.1,0.3-0.1
				c0.1,0,0.2,0,0.3,0.1c4.6,3.4,9.4,6.6,14,9.8c4.7,3.2,9.5,6.5,14.1,9.9c1.7,1.2,2.5,2.4,2.6,3.7c0.1,1.5-0.7,2.9-2.7,4.9
				C527.2,819.9,525.7,821,524.2,821z"/>
			<path class="st3" d="M500.7,790c9.2,6.8,18.9,12.9,28.1,19.7c3.7,2.7,2.8,5-0.1,7.9c-1.9,1.9-3.2,2.9-4.5,2.9
				c-1.1,0-2.2-0.8-3.6-2.5C513.7,809.1,501.1,790.6,500.7,790 M500.8,789c-0.3,0-0.5,0.1-0.7,0.3c-0.4,0.3-0.4,0.9-0.1,1.3
				c0.1,0.2,12.9,19,19.8,28c1.1,1.4,2.5,2.9,4.4,2.9c1.7,0,3.3-1.2,5.2-3.2c1.5-1.5,3-3.3,2.8-5.3c-0.1-1.4-1-2.8-2.8-4.1
				c-4.6-3.4-9.4-6.7-14.1-9.9c-4.6-3.2-9.4-6.5-14-9.8C501.2,789.1,501,789,500.8,789L500.8,789z"/>
		</g>
		<g>
			<path class="st2" d="M511.3,870.4c-0.5,0-1.2-0.1-1.9-0.2c-11.1-1.7-33.5-6.5-33.7-6.5c-0.2-0.1-0.4-0.3-0.4-0.5s0.2-0.4,0.4-0.5
				c5.6-0.7,11.3-1.7,16.8-2.6c5.6-0.9,11.4-1.9,17.1-2.6c0.5-0.1,0.9-0.1,1.4-0.1c1.4,0,2.5,0.4,3.3,1.1c1,1,1.4,2.6,1.3,5.3
				C515.6,867.6,515.2,870.4,511.3,870.4z"/>
			<path class="st3" d="M511.1,858c3.4,0,4.1,2.2,4.1,5.9c-0.1,4.2-0.7,6-3.8,6c-0.5,0-1.1-0.1-1.8-0.2c-11.3-1.7-33.7-6.5-33.7-6.5
				c11.3-1.5,22.6-3.7,33.9-5.2C510.2,858,510.7,858,511.1,858 M511.1,857L511.1,857c-0.4,0-0.9,0-1.4,0.1
				c-5.7,0.7-11.5,1.7-17.1,2.6c-5.5,0.9-11.2,1.8-16.8,2.6c-0.5,0.1-0.9,0.5-0.9,0.9c0,0.5,0.3,0.9,0.8,1c0.2,0,22.6,4.9,33.7,6.5
				c0.7,0.1,1.4,0.2,2,0.2c4.3,0,4.7-3.3,4.8-7c0-2-0.1-4.2-1.5-5.6C513.8,857.4,512.7,857,511.1,857L511.1,857z"/>
		</g>
		<g>
			<path class="st2" d="M515.5,843c-1,0-2.2-0.5-3.7-1.5c-9.4-6.2-27.6-20-27.8-20.1c-0.2-0.1-0.3-0.4-0.1-0.6
				c0.1-0.2,0.3-0.3,0.4-0.3s0.1,0,0.2,0c5.4,1.7,11,3.3,16.4,4.8c5.5,1.5,11.1,3.1,16.6,4.9c2,0.6,3.2,1.5,3.7,2.7
				c0.6,1.3,0.3,3-1,5.5C518.6,841.3,517.4,843,515.5,843z"/>
			<path class="st3" d="M484.3,821c10.8,3.4,22.1,6.2,32.9,9.6c4.3,1.4,4.2,3.8,2.4,7.5c-1.4,2.8-2.5,4.3-4.2,4.3
				c-0.9,0-2-0.5-3.4-1.4C502.6,834.8,484.3,821,484.3,821 M484.3,820c-0.4,0-0.7,0.2-0.9,0.5c-0.2,0.4-0.1,1,0.3,1.3
				c0.2,0.1,18.4,13.9,27.8,20.2c1.6,1.1,2.8,1.6,4,1.6c2.4,0,3.8-2.3,5-4.9c0.9-1.9,1.8-4.1,1-6c-0.6-1.3-1.9-2.3-4-3
				c-5.5-1.7-11.1-3.3-16.6-4.9c-5.4-1.5-11-3.1-16.4-4.8C484.5,820,484.4,820,484.3,820L484.3,820z"/>
		</g>
	</g>
	<g class="st1">
		<g>
			<path class="st2" d="M42.6,851c-3.3,0-6-2.7-6-6v-29c0-3.3,2.7-6,6-6h17.7c2.6,0,4.9-1.5,5.9-3.8l122.4-271.1
				c-5.9-3.4-7.6-15.7-8-26.3c0-0.2-0.1-0.3-0.2-0.4c-4-0.1-31.2-1.2-43.6-8.7c-13.9-8.4-21.5-17.5-24.9-29.4
				c-3.7-13.4-1.3-29.4,3.3-35.4c1.8-2.3,3.6-2.8,4.9-2.8c4.3,0,5.2,4.6,6.1,9c0.7,3.4,1.5,7.4,3.6,10.2c8.4,11.3,17,16.8,26.2,16.8
				h72c0.1,0,0.1,0,0.2,0h0.3c3.3,0.3,5.7,0.5,8,4.3c0.1,0.1,4.4,7.4,8.4,15c8,15.3,7.7,18.3,6.7,20c-0.6,1-1.7,1.7-2.9,1.7h-35.8
				c-0.3,0-0.5,0.2-0.5,0.5c-0.4,10.3-2.3,22.3-8,25.7L318,806.2c1,2.4,3.4,4,6,4h17.5c3.3,0,6,2.7,6,6v29c0,3.3-2.7,6-6,6L42.6,851
				z M203.6,564c0,34.6,0,133.2,0,196.7V809c0,0.5,0.4,1,1,1c8.2,0,29.8,0,52.4,0c16.8,0,34.2,0,46.9,0c0.5,0,0.7-0.3,0.8-0.4
				c0.1-0.2,0.3-0.5,0.1-0.9C288.9,770.1,222.1,608.7,203.6,564z M189.4,561.7c-18.6,38.4-87,194.2-109.9,246.9
				c-0.2,0.4,0,0.8,0.1,0.9c0.1,0.2,0.4,0.5,0.8,0.5h108.2c0.6,0,1-0.4,1-1c0-10.6-0.1-28.8-0.1-50.7
				C189.2,694.3,188.9,600.6,189.4,561.7z M196.6,509c-0.6,0.3-2,2.5-2,6.5c0,4.1,1.5,6.3,2,6.5c0.5-0.2,2-2.4,2-6.5
				C198.6,511.5,197.2,509.3,196.6,509z"/>
			<path class="st3" d="M120.1,434.5c4.3,0,2.7,11.3,7.8,18.1c7,9.4,16.2,17.9,28.3,17.9h72c3.3,0.3,4.7,0.3,6.4,3.1
				c0,0,19.6,32.9,14.3,32.9h-35.8c-1.6,0-2.9,1.3-3,2.9c-0.3,7-1.8,24.1-8.9,24.1L315.9,807c1.4,3.3,4.7,5.5,8.3,5.5h17.5
				c1.9,0,3.5,1.6,3.5,3.5v29c0,1.9-1.6,3.5-3.5,3.5h-299c-1.9,0-3.5-1.6-3.5-3.5v-29c0-1.9,1.6-3.5,3.5-3.5h17.7
				c3.5,0,6.7-2.1,8.2-5.3l123.6-273.7c-7.4,0-8.7-18.4-8.9-24.8c-0.1-1.3-0.9-2.4-2.2-2.8c0,0-30.1-0.7-42.9-8.4
				c-12.7-7.7-20.5-16.3-23.7-28C110,454,114.7,434.5,120.1,434.5 M196.6,524.5c2.5,0,4.5-4,4.5-9s-2-9-4.5-9s-4.5,4-4.5,9
				S194.1,524.5,196.6,524.5 M257.4,812.5c16.7,0,33.8,0,46.4,0c2.5,0,4.2-2.5,3.2-4.8c-14.6-35.3-104.5-252.9-106-256.2
				c0,2.8,0,226.7,0,257.5c0,1.9,1.6,3.5,3.5,3.5C212.8,812.5,234.7,812.5,257.4,812.5 M80.4,812.5h108.2c1.9,0,3.5-1.6,3.5-3.5
				c0-44.4-1-219,0-257.5c-3,0.6-94,208-114.9,256.1C76.2,809.9,77.9,812.5,80.4,812.5 M120.1,429.5c-1.8,0-4.4,0.7-6.8,3.8
				c-4.9,6.5-7.6,23.5-3.7,37.6c3.5,12.6,11.5,22.1,26,30.9c11.5,7,34.9,8.7,42.7,9c0.2,3.6,0.7,9,1.8,13.9c1.2,5.2,3.1,9,5.5,11.2
				L63.9,805.1c-0.6,1.4-2.1,2.3-3.6,2.3H42.6c-4.7,0-8.5,3.8-8.5,8.5v29c0,4.7,3.8,8.5,8.5,8.5h299c4.7,0,8.5-3.8,8.5-8.5v-29
				c0-4.7-3.8-8.5-8.5-8.5h-17.5c-1.6,0-3.1-1-3.7-2.4L207.5,536c4.2-3.8,6.6-12,7.4-24.5h33.9c2.1,0,4-1.1,5.1-2.9
				c1.8-3.1,1.2-7.4-6.6-22.4c-4-7.7-8.3-14.8-8.4-15.1c0,0,0-0.1-0.1-0.1c-3-4.9-6.6-5.1-10-5.4h-0.3c-0.1,0-0.3,0-0.4,0h-72
				c-8.4,0-16.3-5.2-24.2-15.8c-1.8-2.4-2.5-6-3.2-9.2c-0.4-2.2-0.9-4.2-1.6-5.9C125.1,430,121.5,429.5,120.1,429.5L120.1,429.5z
				 M82.7,807.5c21.9-50.3,81-184.9,104.1-234.4c-0.3,43.7,0,126.8,0.2,185.2c0.1,20.5,0.1,38.4,0.1,49.2H82.7L82.7,807.5z
				 M206.1,807.5v-46.8c0-57,0-142.3,0-184.2c22.8,55,79.5,192.3,95.5,231c-12.4,0-28.5,0-44.2,0C236,807.5,215.3,807.5,206.1,807.5
				L206.1,807.5z"/>
		</g>
		<g>
			<path class="st2" d="M86.6,896c-3.3,0-6-2.7-6-6v-20c0-3.3,2.7-6,6-6h209c3.3,0,6,2.7,6,6v20c0,3.3-2.7,6-6,6H86.6z"/>
			<path class="st3" d="M295.6,866.5c1.9,0,3.5,1.6,3.5,3.5v20c0,1.9-1.6,3.5-3.5,3.5h-209c-1.9,0-3.5-1.6-3.5-3.5v-20
				c0-1.9,1.6-3.5,3.5-3.5H295.6 M295.6,861.5h-209c-4.7,0-8.5,3.8-8.5,8.5v20c0,4.7,3.8,8.5,8.5,8.5h209c4.7,0,8.5-3.8,8.5-8.5v-20
				C304.1,865.3,300.3,861.5,295.6,861.5L295.6,861.5z"/>
		</g>
		<g>
			<path class="st2" d="M122.6,941c-3.3,0-6-2.7-6-6v-20c0-3.3,2.7-6,6-6h137c3.3,0,6,2.7,6,6v20c0,3.3-2.7,6-6,6H122.6z"/>
			<path class="st3" d="M259.6,911.5c1.9,0,3.5,1.6,3.5,3.5v20c0,1.9-1.6,3.5-3.5,3.5h-137c-1.9,0-3.5-1.6-3.5-3.5v-20
				c0-1.9,1.6-3.5,3.5-3.5H259.6 M259.6,906.5h-137c-4.7,0-8.5,3.8-8.5,8.5v20c0,4.7,3.8,8.5,8.5,8.5h137c4.7,0,8.5-3.8,8.5-8.5v-20
				C268.1,910.3,264.3,906.5,259.6,906.5L259.6,906.5z"/>
		</g>
	</g>
	<g class="st1">
		<g>
			<path class="st2" d="M796.2,896c-3.3,0-6-2.7-6-6v-20c0-3.3,2.7-6,6-6h209c3.3,0,6,2.7,6,6v20c0,3.3-2.7,6-6,6H796.2z"/>
			<path class="st3" d="M1005.2,866.5c1.9,0,3.5,1.6,3.5,3.5v20c0,1.9-1.6,3.5-3.5,3.5h-209c-1.9,0-3.5-1.6-3.5-3.5v-20
				c0-1.9,1.6-3.5,3.5-3.5H1005.2 M1005.2,861.5h-209c-4.7,0-8.5,3.8-8.5,8.5v20c0,4.7,3.8,8.5,8.5,8.5h209c4.7,0,8.5-3.8,8.5-8.5
				v-20C1013.7,865.3,1009.9,861.5,1005.2,861.5L1005.2,861.5z"/>
		</g>
		<g>
			<path class="st2" d="M751.2,851c-3.3,0-6-2.7-6-6v-29c0-3.3,2.7-6,6-6h17.5c2.6,0,5-1.6,6-4l113.6-270.9
				c-5.8-3.3-7.6-15.3-8-25.6c0-0.3-0.2-0.5-0.5-0.5H844c-1.2,0-2.3-0.6-2.9-1.7c-1-1.8-1.3-4.8,6.7-20c4-7.6,8.3-14.9,8.4-15
				c2.4-3.8,4.8-4,8.1-4.3h0.3c0.1,0,0.1,0,0.2,0h72c9.2,0,17.8-5.5,26.2-16.8c2.1-2.8,2.9-6.7,3.6-10.2c0.9-4.4,1.8-9,6.1-9
				c1.2,0,3.1,0.5,4.9,2.8c4.5,6,7,22,3.3,35.4c-3.3,11.9-11,21-24.9,29.4c-12.4,7.5-39.6,8.6-43.6,8.7c-0.1,0.1-0.2,0.2-0.2,0.4
				c-0.4,10.6-2.1,22.9-8,26.3l122.4,271.1c1,2.3,3.4,3.8,5.9,3.8h17.7c3.3,0,6,2.7,6,6v29c0,3.3-2.7,6-6,6L751.2,851z M889.2,564
				c-18.6,44.9-85.9,207.6-101.2,244.6c-0.2,0.4,0,0.8,0.1,0.9c0.1,0.2,0.4,0.4,0.8,0.4c12.8,0,30.1,0,46.9,0c22.6,0,44.1,0,52.4,0
				c0.5,0,1-0.4,1-1v-48.3C889.2,697.2,889.2,598.6,889.2,564z M903.4,561.7c0.5,38.9,0.2,132.6,0,196.6
				c-0.1,21.9-0.1,40.1-0.1,50.7c0,0.5,0.4,1,1,1h108.1c0.5,0,0.7-0.3,0.8-0.5s0.3-0.5,0.1-0.9C990.4,755.9,922,600.2,903.4,561.7z
				 M896.2,509c-0.6,0.3-2,2.5-2,6.5c0,4.1,1.5,6.3,2,6.5c0.5-0.2,2-2.4,2-6.5C898.2,511.5,896.8,509.3,896.2,509z"/>
			<path class="st3" d="M972.7,434.5c5.4,0,10.1,19.5,5.7,35c-3.3,11.7-11,20.2-23.7,28c-12.7,7.7-42.9,8.4-42.9,8.4
				c-1.3,0.4-2.1,1.5-2.2,2.8c-0.2,6.4-1.5,24.8-9,24.8l123.6,273.7c1.5,3.2,4.7,5.3,8.2,5.3h17.7c1.9,0,3.5,1.6,3.5,3.5v29
				c0,1.9-1.6,3.5-3.5,3.5h-299c-1.9,0-3.5-1.6-3.5-3.5v-29c0-1.9,1.6-3.5,3.5-3.5h17.5c3.6,0,6.9-2.2,8.3-5.5l114.7-273.5
				c-7.2,0-8.6-17.2-8.9-24.1c-0.1-1.6-1.4-2.9-3-2.9h-35.8c-5.3,0,14.3-32.9,14.3-32.9c1.8-2.8,3.1-2.8,6.5-3.1h72
				c12.1,0,21.2-8.4,28.3-17.9C970,445.8,968.4,434.5,972.7,434.5 M896.2,524.5c2.5,0,4.5-4,4.5-9s-2-9-4.5-9s-4.5,4-4.5,9
				S893.7,524.5,896.2,524.5 M904.2,812.5h108.2c2.5,0,4.2-2.6,3.2-4.9c-20.9-48.1-111.9-255.5-114.9-256.1c1,38.5,0,213.1,0,257.5
				C900.7,810.9,902.3,812.5,904.2,812.5 M835.4,812.5c22.7,0,44.6,0,52.8,0c1.9,0,3.5-1.6,3.5-3.5c0-30.8,0-254.8,0-257.5
				c-1.5,3.3-91.4,220.8-106,256.2c-1,2.3,0.7,4.8,3.2,4.8C801.6,812.5,818.7,812.5,835.4,812.5 M972.7,429.5c-1.4,0-5,0.5-7,5
				c-0.7,1.7-1.2,3.8-1.6,5.9c-0.7,3.2-1.4,6.8-3.2,9.2c-7.9,10.7-15.9,15.8-24.2,15.8h-72c-0.1,0-0.3,0-0.4,0H864
				c-3.4,0.3-6.9,0.6-10,5.4c0,0,0,0.1-0.1,0.1c-0.2,0.3-4.4,7.4-8.4,15.1c-7.9,15-8.4,19.3-6.6,22.4c1,1.8,2.9,2.9,5.1,2.9h33.9
				c0.7,12.5,3.2,20.6,7.4,24.5L772.4,805c-0.6,1.5-2.1,2.5-3.7,2.5h-17.5c-4.7,0-8.5,3.8-8.5,8.5v29c0,4.7,3.8,8.5,8.5,8.5h299
				c4.7,0,8.5-3.8,8.5-8.5v-29c0-4.7-3.8-8.5-8.5-8.5h-17.7c-1.6,0-3-0.9-3.6-2.3L907.3,535.9c2.4-2.3,4.2-6,5.5-11.2
				c1.2-4.9,1.6-10.2,1.8-13.9c7.9-0.4,31.2-2,42.7-9c14.5-8.8,22.5-18.3,26-30.9c3.9-14.1,1.2-31.1-3.7-37.6
				C977.2,430.2,974.5,429.5,972.7,429.5L972.7,429.5z M905.7,807.5c0-10.8,0.1-28.7,0.1-49.2c0.2-58.4,0.5-141.6,0.2-185.2
				c23.1,49.6,82.2,184.1,104.1,234.4H905.7L905.7,807.5z M791.2,807.5c16-38.7,72.7-175.9,95.5-231c0,41.9,0,127.2,0,184.2v46.8
				c-9.2,0-29.9,0-51.3,0C819.7,807.5,803.6,807.5,791.2,807.5L791.2,807.5z"/>
		</g>
		<g>
			<path class="st2" d="M832.2,941c-3.3,0-6-2.7-6-6v-20c0-3.3,2.7-6,6-6h137c3.3,0,6,2.7,6,6v20c0,3.3-2.7,6-6,6H832.2z"/>
			<path class="st3" d="M969.2,911.5c1.9,0,3.5,1.6,3.5,3.5v20c0,1.9-1.6,3.5-3.5,3.5h-137c-1.9,0-3.5-1.6-3.5-3.5v-20
				c0-1.9,1.6-3.5,3.5-3.5H969.2 M969.2,906.5h-137c-4.7,0-8.5,3.8-8.5,8.5v20c0,4.7,3.8,8.5,8.5,8.5h137c4.7,0,8.5-3.8,8.5-8.5v-20
				C977.7,910.3,973.9,906.5,969.2,906.5L969.2,906.5z"/>
		</g>
	</g>
</g>
<g>
	<path class="st4" d="M324.7,783.1L200,567.2c-9.7-16.8-34-16.8-43.8,0l-124.7,216c-9.7,16.8,2.4,37.9,21.9,37.9h249.4
		C322.2,821.1,334.4,800,324.7,783.1z M306.4,797.9c-0.8,1.4-2,2.1-3.6,2.1H53.4c-1.6,0-2.8-0.7-3.6-2.1c-0.8-1.4-0.8-2.8,0-4.2
		l124.7-216c0.8-1.4,2-2.1,3.6-2.1c1.6,0,2.8,0.7,3.6,2.1l124.7,216C307.2,795.1,307.2,796.5,306.4,797.9z"/>
	<path class="st4" d="M1075.5,783.1l-124.7-216c-9.7-16.8-34-16.8-43.8,0l-124.7,216c-9.7,16.8,2.4,37.9,21.9,37.9h249.4
		C1073.1,821.1,1085.2,800,1075.5,783.1z M1057.3,797.9c-0.8,1.4-2,2.1-3.6,2.1H804.2c-1.6,0-2.8-0.7-3.6-2.1
		c-0.8-1.4-0.8-2.8,0-4.2l124.7-216c0.8-1.4,2-2.1,3.6-2.1c1.6,0,2.8,0.7,3.6,2.1l124.7,216C1058.1,795.1,1058.1,796.5,1057.3,797.9
		z"/>
	<g>
		<polygon class="st4" points="488.9,252 515.9,252 515.9,297 497.9,279 452.9,279 407.9,252 425.9,234 		"/>
		<polygon class="st4" points="605.9,252 668.9,234 686.9,252 641.9,279 596.9,279 578.9,297 578.9,252 		"/>
		<path class="st4" d="M843.8,161.7L664.6,19.8c-8.9-7-19.9-10.8-31.2-10.8H453c-11.7,0-23,4.1-32,11.5L250.1,161.7
			c-13.8,11.4-20.4,29.2-17.6,46.8L273.2,459l6.5,40c0.3,1.7,0.6,3.3,1.1,5c2,7.3,5.5,14,10.4,19.7l130.4,151.8
			c9.5,11.1,23.5,17.5,38.1,17.5h170.4c14.3,0,28-6.1,37.5-16.8l135.6-152.3c5.1-5.7,8.8-12.6,10.9-19.9c0.5-1.8,0.9-3.6,1.2-5.4
			l6.4-39.6l40.5-249.9C865.1,191.1,858.1,173,843.8,161.7z M592.4,540l-9-9l-36,36l-36-36l-9,9l-9-36l54-27l54,27L592.4,540z
			 M673.4,396v63l-36,36l-72-36v-18l54-36l-9-18l-63-18l-63,18l-9,18l54,36v18l-72,36l-36-36v-63l-63-144l72-108l117,9l117-9l72,108
			L673.4,396z"/>
		<polygon class="st4" points="488.9,252 515.9,252 515.9,297 497.9,279 452.9,279 407.9,252 425.9,234 		"/>
		<polygon class="st4" points="605.9,252 668.9,234 686.9,252 641.9,279 596.9,279 578.9,297 578.9,252 		"/>
		<path class="st4" d="M843.8,161.7L664.6,19.8c-8.9-7-19.9-10.8-31.2-10.8H453c-11.7,0-23,4.1-32,11.5L250.1,161.7
			c-13.8,11.4-20.4,29.2-17.6,46.8L273.2,459l6.5,40c0.3,1.7,0.6,3.3,1.1,5c2,7.3,5.5,14,10.4,19.7l130.4,151.8
			c9.5,11.1,23.5,17.5,38.1,17.5h170.4c14.3,0,28-6.1,37.5-16.8l135.6-152.3c5.1-5.7,8.8-12.6,10.9-19.9c0.5-1.8,0.9-3.6,1.2-5.4
			l6.4-39.6l40.5-249.9C865.1,191.1,858.1,173,843.8,161.7z M592.4,540l-9-9l-36,36l-36-36l-9,9l-9-36l54-27l54,27L592.4,540z
			 M673.4,396v63l-36,36l-72-36v-18l54-36l-9-18l-63-18l-63,18l-9,18l54,36v18l-72,36l-36-36v-63l-63-144l72-108l117,9l117-9l72,108
			L673.4,396z"/>
		<g>
			<g>
				<polygon class="st4" points="488.9,252 515.9,252 515.9,297 497.9,279 452.9,279 407.9,252 425.9,234 				"/>
				<polygon class="st4" points="686.9,252 641.9,279 596.9,279 578.9,297 578.9,252 605.9,252 668.9,234 				"/>
				<g>
					<polygon class="st4" points="515.9,252 515.9,297 497.9,279 452.9,279 407.9,252 425.9,234 488.9,252 					"/>
					<polygon class="st4" points="686.9,252 641.9,279 596.9,279 578.9,297 578.9,252 605.9,252 668.9,234 					"/>
				</g>
			</g>
		</g>
	</g>
	<path class="st4" d="M259.9,502.2c0.1,0.6,0.2,1.2,0.3,1.8H93c-6.6,0-12-5.4-12-12v-21c0-6.6,5.4-12,12-12h159.9L259.9,502.2z"/>
	<path class="st4" d="M1017,471v21c0,6.6-5.4,12-12,12H834.6c0.1-0.7,0.3-1.5,0.4-2.2l6.9-42.8H1005C1011.6,459,1017,464.4,1017,471
		z"/>
</g>
</svg>
